<svg xmlns="http://www.w3.org/2000/svg" xmlns:xlink="http://www.w3.org/1999/xlink" width="200" zoomAndPan="magnify" viewBox="0 0 150 74.999997" height="100" preserveAspectRatio="xMidYMid meet" version="1.0"><defs><g/><clipPath id="b64db07dfe"><path d="M 2 59.027344 L 7 59.027344 L 7 63.527344 L 2 63.527344 Z M 2 59.027344 " clip-rule="nonzero"/></clipPath></defs><g fill="#ffffff" fill-opacity="1"><g transform="translate(28.784133, 46.4485)"><g><path d="M 20.625 -21.5 C 20.457031 -19.695312 19.859375 -18.097656 18.828125 -16.703125 C 17.804688 -15.304688 16.507812 -14.175781 14.9375 -13.3125 C 15.695312 -13.082031 16.347656 -12.75 16.890625 -12.3125 C 17.441406 -11.882812 17.878906 -11.378906 18.203125 -10.796875 C 18.523438 -10.210938 18.753906 -9.5625 18.890625 -8.84375 C 19.023438 -8.132812 19.054688 -7.40625 18.984375 -6.65625 C 18.847656 -5.164062 18.382812 -3.894531 17.59375 -2.84375 C 16.800781 -1.789062 15.820312 -0.957031 14.65625 -0.34375 C 13.5 0.269531 12.226562 0.691406 10.84375 0.921875 C 9.46875 1.148438 8.113281 1.207031 6.78125 1.09375 C 6.039062 1.019531 5.3125 0.898438 4.59375 0.734375 C 3.875 0.566406 3.195312 0.320312 2.5625 0 C 2.332031 -0.101562 2.164062 -0.441406 2.0625 -1.015625 C 1.96875 -1.585938 1.910156 -2.285156 1.890625 -3.109375 C 1.867188 -3.929688 1.875 -4.8125 1.90625 -5.75 C 1.945312 -6.695312 1.992188 -7.601562 2.046875 -8.46875 C 2.097656 -9.332031 2.148438 -10.09375 2.203125 -10.75 C 2.265625 -11.40625 2.304688 -11.863281 2.328125 -12.125 C 2.410156 -13.039062 2.492188 -13.960938 2.578125 -14.890625 C 2.671875 -15.828125 2.785156 -16.742188 2.921875 -17.640625 C 2.941406 -17.867188 2.976562 -18.234375 3.03125 -18.734375 C 3.09375 -19.234375 3.15625 -19.789062 3.21875 -20.40625 C 3.289062 -21.019531 3.378906 -21.664062 3.484375 -22.34375 C 3.585938 -23.019531 3.695312 -23.644531 3.8125 -24.21875 C 3.925781 -24.800781 4.0625 -25.296875 4.21875 -25.703125 C 4.375 -26.117188 4.53125 -26.375 4.6875 -26.46875 C 5.332031 -26.8125 6.035156 -27.125 6.796875 -27.40625 C 7.566406 -27.6875 8.359375 -27.921875 9.171875 -28.109375 C 9.984375 -28.296875 10.785156 -28.429688 11.578125 -28.515625 C 12.367188 -28.597656 13.117188 -28.609375 13.828125 -28.546875 C 14.796875 -28.460938 15.71875 -28.242188 16.59375 -27.890625 C 17.476562 -27.535156 18.226562 -27.050781 18.84375 -26.4375 C 19.457031 -25.832031 19.929688 -25.109375 20.265625 -24.265625 C 20.597656 -23.429688 20.71875 -22.507812 20.625 -21.5 Z M 13.921875 -20 C 13.960938 -20.445312 13.851562 -20.785156 13.59375 -21.015625 C 13.332031 -21.253906 12.976562 -21.394531 12.53125 -21.4375 C 12.164062 -21.46875 11.773438 -21.421875 11.359375 -21.296875 C 10.953125 -21.179688 10.59375 -21.007812 10.28125 -20.78125 C 10.195312 -20.695312 10.101562 -20.476562 10 -20.125 C 9.894531 -19.769531 9.800781 -19.363281 9.71875 -18.90625 C 9.644531 -18.445312 9.582031 -18.015625 9.53125 -17.609375 C 9.476562 -17.203125 9.445312 -16.9375 9.4375 -16.8125 C 9.4375 -16.757812 9.429688 -16.671875 9.421875 -16.546875 C 9.410156 -16.429688 9.40625 -16.3125 9.40625 -16.1875 C 9.40625 -16.0625 9.414062 -15.945312 9.4375 -15.84375 C 9.457031 -15.738281 9.492188 -15.679688 9.546875 -15.671875 C 9.992188 -15.628906 10.460938 -15.75 10.953125 -16.03125 C 11.441406 -16.3125 11.898438 -16.675781 12.328125 -17.125 C 12.753906 -17.570312 13.113281 -18.0625 13.40625 -18.59375 C 13.707031 -19.125 13.878906 -19.59375 13.921875 -20 Z M 12.734375 -8.6875 C 12.773438 -9.125 12.644531 -9.445312 12.34375 -9.65625 C 12.050781 -9.875 11.707031 -10.003906 11.3125 -10.046875 C 10.945312 -10.078125 10.550781 -10.023438 10.125 -9.890625 C 9.707031 -9.753906 9.359375 -9.578125 9.078125 -9.359375 C 8.992188 -9.316406 8.921875 -9.191406 8.859375 -8.984375 C 8.804688 -8.785156 8.765625 -8.5625 8.734375 -8.3125 C 8.703125 -8.070312 8.664062 -7.835938 8.625 -7.609375 C 8.59375 -7.390625 8.570312 -7.242188 8.5625 -7.171875 C 8.5625 -7.117188 8.550781 -7.007812 8.53125 -6.84375 C 8.519531 -6.6875 8.515625 -6.523438 8.515625 -6.359375 C 8.515625 -6.191406 8.523438 -6.03125 8.546875 -5.875 C 8.566406 -5.726562 8.601562 -5.65625 8.65625 -5.65625 C 9.03125 -5.625 9.445312 -5.691406 9.90625 -5.859375 C 10.363281 -6.023438 10.796875 -6.25 11.203125 -6.53125 C 11.609375 -6.8125 11.957031 -7.144531 12.25 -7.53125 C 12.539062 -7.914062 12.703125 -8.300781 12.734375 -8.6875 Z M 12.734375 -8.6875 "/></g></g></g><g fill="#ffffff" fill-opacity="1"><g transform="translate(48.390382, 48.268211)"><g><path d="M 22.984375 -12.65625 C 22.929688 -11.570312 22.816406 -10.460938 22.640625 -9.328125 C 22.472656 -8.191406 22.234375 -7.09375 21.921875 -6.03125 C 21.609375 -4.96875 21.195312 -3.96875 20.6875 -3.03125 C 20.175781 -2.101562 19.546875 -1.296875 18.796875 -0.609375 C 18.054688 0.0664062 17.175781 0.585938 16.15625 0.953125 C 15.132812 1.328125 13.957031 1.476562 12.625 1.40625 C 10.65625 1.300781 8.96875 0.753906 7.5625 -0.234375 C 6.164062 -1.234375 5.015625 -2.46875 4.109375 -3.9375 C 3.210938 -5.414062 2.578125 -7.054688 2.203125 -8.859375 C 1.828125 -10.660156 1.679688 -12.425781 1.765625 -14.15625 C 1.773438 -14.34375 1.785156 -14.515625 1.796875 -14.671875 C 1.804688 -14.828125 1.828125 -14.960938 1.859375 -15.078125 C 1.910156 -15.628906 1.992188 -16.375 2.109375 -17.3125 C 2.222656 -18.257812 2.382812 -19.265625 2.59375 -20.328125 C 2.8125 -21.390625 3.070312 -22.476562 3.375 -23.59375 C 3.6875 -24.71875 4.066406 -25.71875 4.515625 -26.59375 C 4.972656 -27.46875 5.503906 -28.175781 6.109375 -28.71875 C 6.722656 -29.257812 7.421875 -29.507812 8.203125 -29.46875 C 8.773438 -29.4375 9.25 -29.238281 9.625 -28.875 C 10 -28.507812 10.296875 -28.066406 10.515625 -27.546875 C 10.742188 -27.023438 10.894531 -26.476562 10.96875 -25.90625 C 11.039062 -25.332031 11.066406 -24.8125 11.046875 -24.34375 C 11.015625 -23.632812 10.90625 -22.921875 10.71875 -22.203125 C 10.53125 -21.492188 10.359375 -20.785156 10.203125 -20.078125 C 9.929688 -18.972656 9.695312 -17.859375 9.5 -16.734375 C 9.3125 -15.617188 9.1875 -14.472656 9.125 -13.296875 C 9.09375 -12.691406 9.085938 -11.953125 9.109375 -11.078125 C 9.128906 -10.203125 9.25 -9.359375 9.46875 -8.546875 C 9.6875 -7.742188 10.023438 -7.046875 10.484375 -6.453125 C 10.941406 -5.859375 11.585938 -5.539062 12.421875 -5.5 C 13.234375 -5.445312 13.898438 -5.6875 14.421875 -6.21875 C 14.941406 -6.75 15.335938 -7.382812 15.609375 -8.125 C 15.890625 -8.875 16.082031 -9.671875 16.1875 -10.515625 C 16.300781 -11.359375 16.375 -12.082031 16.40625 -12.6875 C 16.5 -14.414062 16.441406 -16.128906 16.234375 -17.828125 C 16.035156 -19.523438 15.742188 -21.226562 15.359375 -22.9375 C 15.242188 -23.382812 15.15625 -23.832031 15.09375 -24.28125 C 15.03125 -24.738281 15.007812 -25.191406 15.03125 -25.640625 C 15.070312 -26.367188 15.320312 -26.992188 15.78125 -27.515625 C 16.238281 -28.046875 16.859375 -28.289062 17.640625 -28.25 C 18.285156 -28.21875 18.878906 -27.929688 19.421875 -27.390625 C 19.960938 -26.859375 20.4375 -26.164062 20.84375 -25.3125 C 21.25 -24.46875 21.585938 -23.519531 21.859375 -22.46875 C 22.140625 -21.425781 22.367188 -20.394531 22.546875 -19.375 C 22.722656 -18.351562 22.847656 -17.382812 22.921875 -16.46875 C 22.992188 -15.550781 23.023438 -14.804688 23.015625 -14.234375 C 23.035156 -13.960938 23.039062 -13.703125 23.03125 -13.453125 C 23.019531 -13.203125 23.003906 -12.9375 22.984375 -12.65625 Z M 22.984375 -12.65625 "/></g></g></g><g fill="#ffffff" fill-opacity="1"><g transform="translate(72.578098, 49.47766)"><g><path d="M 18.90625 -23.03125 C 18.882812 -21.21875 18.414062 -19.570312 17.5 -18.09375 C 16.582031 -16.625 15.375 -15.398438 13.875 -14.421875 C 14.644531 -14.253906 15.316406 -13.976562 15.890625 -13.59375 C 16.460938 -13.207031 16.9375 -12.734375 17.3125 -12.171875 C 17.6875 -11.617188 17.96875 -10.988281 18.15625 -10.28125 C 18.34375 -9.582031 18.429688 -8.851562 18.421875 -8.09375 C 18.398438 -6.601562 18.03125 -5.300781 17.3125 -4.1875 C 16.601562 -3.082031 15.695312 -2.175781 14.59375 -1.46875 C 13.488281 -0.769531 12.253906 -0.253906 10.890625 0.078125 C 9.535156 0.421875 8.191406 0.582031 6.859375 0.5625 C 6.117188 0.550781 5.378906 0.488281 4.640625 0.375 C 3.910156 0.257812 3.21875 0.0664062 2.5625 -0.203125 C 2.320312 -0.285156 2.128906 -0.609375 1.984375 -1.171875 C 1.835938 -1.734375 1.722656 -2.421875 1.640625 -3.234375 C 1.554688 -4.054688 1.492188 -4.941406 1.453125 -5.890625 C 1.410156 -6.835938 1.382812 -7.742188 1.375 -8.609375 C 1.363281 -9.472656 1.359375 -10.234375 1.359375 -10.890625 C 1.367188 -11.546875 1.378906 -12.003906 1.390625 -12.265625 C 1.398438 -13.191406 1.410156 -14.117188 1.421875 -15.046875 C 1.429688 -15.984375 1.46875 -16.910156 1.53125 -17.828125 C 1.539062 -18.054688 1.554688 -18.421875 1.578125 -18.921875 C 1.597656 -19.421875 1.617188 -19.976562 1.640625 -20.59375 C 1.660156 -21.21875 1.691406 -21.867188 1.734375 -22.546875 C 1.785156 -23.234375 1.847656 -23.867188 1.921875 -24.453125 C 1.992188 -25.046875 2.09375 -25.550781 2.21875 -25.96875 C 2.34375 -26.382812 2.484375 -26.644531 2.640625 -26.75 C 3.253906 -27.132812 3.929688 -27.5 4.671875 -27.84375 C 5.410156 -28.1875 6.175781 -28.484375 6.96875 -28.734375 C 7.757812 -28.984375 8.550781 -29.179688 9.34375 -29.328125 C 10.132812 -29.472656 10.882812 -29.539062 11.59375 -29.53125 C 12.5625 -29.519531 13.492188 -29.375 14.390625 -29.09375 C 15.296875 -28.8125 16.082031 -28.390625 16.75 -27.828125 C 17.414062 -27.265625 17.941406 -26.578125 18.328125 -25.765625 C 18.722656 -24.960938 18.914062 -24.050781 18.90625 -23.03125 Z M 12.328125 -21.03125 C 12.335938 -21.476562 12.203125 -21.804688 11.921875 -22.015625 C 11.648438 -22.222656 11.289062 -22.332031 10.84375 -22.34375 C 10.476562 -22.34375 10.09375 -22.265625 9.6875 -22.109375 C 9.28125 -21.960938 8.929688 -21.765625 8.640625 -21.515625 C 8.566406 -21.429688 8.492188 -21.207031 8.421875 -20.84375 C 8.347656 -20.476562 8.285156 -20.0625 8.234375 -19.59375 C 8.191406 -19.132812 8.160156 -18.703125 8.140625 -18.296875 C 8.117188 -17.890625 8.109375 -17.625 8.109375 -17.5 C 8.109375 -17.445312 8.109375 -17.359375 8.109375 -17.234375 C 8.109375 -17.117188 8.113281 -16.992188 8.125 -16.859375 C 8.144531 -16.734375 8.164062 -16.617188 8.1875 -16.515625 C 8.207031 -16.410156 8.242188 -16.359375 8.296875 -16.359375 C 8.742188 -16.347656 9.203125 -16.503906 9.671875 -16.828125 C 10.148438 -17.148438 10.582031 -17.550781 10.96875 -18.03125 C 11.351562 -18.507812 11.675781 -19.023438 11.9375 -19.578125 C 12.195312 -20.128906 12.328125 -20.613281 12.328125 -21.03125 Z M 12.015625 -9.65625 C 12.023438 -10.09375 11.875 -10.40625 11.5625 -10.59375 C 11.257812 -10.789062 10.910156 -10.890625 10.515625 -10.890625 C 10.148438 -10.898438 9.757812 -10.820312 9.34375 -10.65625 C 8.925781 -10.488281 8.585938 -10.285156 8.328125 -10.046875 C 8.253906 -9.992188 8.191406 -9.863281 8.140625 -9.65625 C 8.097656 -9.445312 8.070312 -9.21875 8.0625 -8.96875 C 8.050781 -8.71875 8.035156 -8.476562 8.015625 -8.25 C 7.992188 -8.03125 7.984375 -7.882812 7.984375 -7.8125 C 7.984375 -7.757812 7.976562 -7.648438 7.96875 -7.484375 C 7.96875 -7.328125 7.972656 -7.164062 7.984375 -7 C 8.003906 -6.832031 8.03125 -6.675781 8.0625 -6.53125 C 8.101562 -6.382812 8.148438 -6.3125 8.203125 -6.3125 C 8.578125 -6.300781 8.984375 -6.394531 9.421875 -6.59375 C 9.867188 -6.800781 10.285156 -7.0625 10.671875 -7.375 C 11.054688 -7.6875 11.375 -8.046875 11.625 -8.453125 C 11.882812 -8.859375 12.015625 -9.257812 12.015625 -9.65625 Z M 12.015625 -9.65625 "/></g></g></g><g fill="#ffffff" fill-opacity="1"><g transform="translate(92.211746, 49.735357)"><g><path d="M 18.109375 -23.671875 C 18.140625 -21.859375 17.722656 -20.195312 16.859375 -18.6875 C 15.992188 -17.1875 14.828125 -15.921875 13.359375 -14.890625 C 14.148438 -14.753906 14.835938 -14.5 15.421875 -14.125 C 16.003906 -13.757812 16.488281 -13.304688 16.875 -12.765625 C 17.269531 -12.222656 17.570312 -11.601562 17.78125 -10.90625 C 18 -10.21875 18.117188 -9.492188 18.140625 -8.734375 C 18.171875 -7.242188 17.847656 -5.929688 17.171875 -4.796875 C 16.492188 -3.660156 15.613281 -2.71875 14.53125 -1.96875 C 13.445312 -1.226562 12.234375 -0.664062 10.890625 -0.28125 C 9.546875 0.09375 8.207031 0.296875 6.875 0.328125 C 6.132812 0.335938 5.394531 0.296875 4.65625 0.203125 C 3.914062 0.117188 3.21875 -0.0390625 2.5625 -0.28125 C 2.320312 -0.363281 2.113281 -0.679688 1.9375 -1.234375 C 1.769531 -1.796875 1.628906 -2.484375 1.515625 -3.296875 C 1.410156 -4.109375 1.320312 -4.988281 1.25 -5.9375 C 1.175781 -6.882812 1.117188 -7.789062 1.078125 -8.65625 C 1.035156 -9.519531 1.003906 -10.28125 0.984375 -10.9375 C 0.972656 -11.59375 0.960938 -12.050781 0.953125 -12.3125 C 0.941406 -13.238281 0.925781 -14.164062 0.90625 -15.09375 C 0.882812 -16.03125 0.890625 -16.957031 0.921875 -17.875 C 0.921875 -18.101562 0.921875 -18.46875 0.921875 -18.96875 C 0.921875 -19.46875 0.921875 -20.023438 0.921875 -20.640625 C 0.921875 -21.265625 0.929688 -21.914062 0.953125 -22.59375 C 0.984375 -23.28125 1.023438 -23.914062 1.078125 -24.5 C 1.128906 -25.09375 1.207031 -25.601562 1.3125 -26.03125 C 1.425781 -26.457031 1.5625 -26.722656 1.71875 -26.828125 C 2.3125 -27.234375 2.972656 -27.617188 3.703125 -27.984375 C 4.429688 -28.359375 5.1875 -28.679688 5.96875 -28.953125 C 6.757812 -29.234375 7.546875 -29.460938 8.328125 -29.640625 C 9.109375 -29.816406 9.851562 -29.910156 10.5625 -29.921875 C 11.53125 -29.941406 12.46875 -29.828125 13.375 -29.578125 C 14.289062 -29.328125 15.085938 -28.929688 15.765625 -28.390625 C 16.453125 -27.847656 17.007812 -27.179688 17.4375 -26.390625 C 17.863281 -25.597656 18.085938 -24.691406 18.109375 -23.671875 Z M 11.59375 -21.4375 C 11.59375 -21.882812 11.453125 -22.207031 11.171875 -22.40625 C 10.890625 -22.613281 10.523438 -22.710938 10.078125 -22.703125 C 9.710938 -22.691406 9.328125 -22.601562 8.921875 -22.4375 C 8.515625 -22.28125 8.171875 -22.066406 7.890625 -21.796875 C 7.816406 -21.710938 7.75 -21.488281 7.6875 -21.125 C 7.632812 -20.757812 7.59375 -20.34375 7.5625 -19.875 C 7.53125 -19.414062 7.507812 -18.984375 7.5 -18.578125 C 7.5 -18.171875 7.5 -17.90625 7.5 -17.78125 C 7.5 -17.726562 7.5 -17.640625 7.5 -17.515625 C 7.507812 -17.398438 7.519531 -17.273438 7.53125 -17.140625 C 7.550781 -17.015625 7.578125 -16.898438 7.609375 -16.796875 C 7.640625 -16.691406 7.679688 -16.640625 7.734375 -16.640625 C 8.179688 -16.648438 8.632812 -16.820312 9.09375 -17.15625 C 9.550781 -17.5 9.96875 -17.914062 10.34375 -18.40625 C 10.71875 -18.894531 11.019531 -19.414062 11.25 -19.96875 C 11.488281 -20.53125 11.601562 -21.019531 11.59375 -21.4375 Z M 11.6875 -10.0625 C 11.675781 -10.5 11.507812 -10.804688 11.1875 -10.984375 C 10.875 -11.171875 10.519531 -11.257812 10.125 -11.25 C 9.757812 -11.238281 9.375 -11.144531 8.96875 -10.96875 C 8.5625 -10.789062 8.226562 -10.578125 7.96875 -10.328125 C 7.894531 -10.273438 7.835938 -10.144531 7.796875 -9.9375 C 7.765625 -9.726562 7.742188 -9.5 7.734375 -9.25 C 7.734375 -9 7.726562 -8.757812 7.71875 -8.53125 C 7.707031 -8.3125 7.703125 -8.164062 7.703125 -8.09375 C 7.703125 -8.039062 7.703125 -7.929688 7.703125 -7.765625 C 7.710938 -7.609375 7.726562 -7.445312 7.75 -7.28125 C 7.769531 -7.113281 7.796875 -6.957031 7.828125 -6.8125 C 7.867188 -6.664062 7.914062 -6.59375 7.96875 -6.59375 C 8.34375 -6.601562 8.75 -6.710938 9.1875 -6.921875 C 9.632812 -7.140625 10.039062 -7.410156 10.40625 -7.734375 C 10.78125 -8.066406 11.085938 -8.4375 11.328125 -8.84375 C 11.578125 -9.257812 11.695312 -9.664062 11.6875 -10.0625 Z M 11.6875 -10.0625 "/></g></g></g><g fill="#ffffff" fill-opacity="1"><g transform="translate(111.84983, 49.319066)"><g><path d="M 19.625 -6.546875 C 19.664062 -5.898438 19.429688 -5.269531 18.921875 -4.65625 C 18.421875 -4.050781 17.753906 -3.488281 16.921875 -2.96875 C 16.097656 -2.445312 15.171875 -1.976562 14.140625 -1.5625 C 13.117188 -1.144531 12.101562 -0.78125 11.09375 -0.46875 C 10.082031 -0.164062 9.128906 0.0703125 8.234375 0.25 C 7.335938 0.425781 6.625 0.53125 6.09375 0.5625 C 5.59375 0.59375 5.0625 0.578125 4.5 0.515625 C 3.9375 0.453125 3.46875 0.273438 3.09375 -0.015625 C 2.863281 -0.160156 2.65625 -0.503906 2.46875 -1.046875 C 2.28125 -1.585938 2.09375 -2.234375 1.90625 -2.984375 C 1.71875 -3.742188 1.546875 -4.554688 1.390625 -5.421875 C 1.234375 -6.285156 1.097656 -7.132812 0.984375 -7.96875 C 0.878906 -8.8125 0.785156 -9.582031 0.703125 -10.28125 C 0.617188 -10.988281 0.566406 -11.539062 0.546875 -11.9375 C 0.515625 -12.59375 0.492188 -13.382812 0.484375 -14.3125 C 0.472656 -15.25 0.472656 -16.25 0.484375 -17.3125 C 0.503906 -18.382812 0.546875 -19.472656 0.609375 -20.578125 C 0.679688 -21.691406 0.773438 -22.742188 0.890625 -23.734375 C 1.015625 -24.722656 1.175781 -25.617188 1.375 -26.421875 C 1.582031 -27.222656 1.816406 -27.851562 2.078125 -28.3125 C 2.535156 -29.050781 3.140625 -29.441406 3.890625 -29.484375 C 4.421875 -29.515625 4.878906 -29.363281 5.265625 -29.03125 C 5.648438 -28.695312 5.96875 -28.253906 6.21875 -27.703125 C 6.476562 -27.148438 6.6875 -26.53125 6.84375 -25.84375 C 7 -25.15625 7.125 -24.472656 7.21875 -23.796875 C 7.3125 -23.117188 7.375 -22.488281 7.40625 -21.90625 C 7.4375 -21.332031 7.460938 -20.875 7.484375 -20.53125 C 7.597656 -18.488281 7.664062 -16.460938 7.6875 -14.453125 C 7.707031 -12.441406 7.773438 -10.414062 7.890625 -8.375 L 7.96875 -6.828125 C 9.132812 -7.265625 10.40625 -7.6875 11.78125 -8.09375 C 13.15625 -8.5 14.46875 -8.738281 15.71875 -8.8125 C 16.164062 -8.84375 16.617188 -8.84375 17.078125 -8.8125 C 17.535156 -8.78125 17.945312 -8.6875 18.3125 -8.53125 C 18.675781 -8.382812 18.976562 -8.15625 19.21875 -7.84375 C 19.46875 -7.53125 19.601562 -7.097656 19.625 -6.546875 Z M 19.625 -6.546875 "/></g></g></g><g fill="#ffffff" fill-opacity="1"><g transform="translate(132.04728, 48.168535)"><g><path d="M 17.71875 -7.828125 C 17.757812 -7.335938 17.671875 -6.835938 17.453125 -6.328125 C 17.222656 -5.867188 16.65625 -5.289062 15.75 -4.59375 C 14.84375 -3.90625 13.820312 -3.238281 12.6875 -2.59375 C 11.5625 -1.957031 10.46875 -1.394531 9.40625 -0.90625 C 8.34375 -0.425781 7.550781 -0.164062 7.03125 -0.125 C 6.65625 -0.09375 6.210938 -0.140625 5.703125 -0.265625 C 5.203125 -0.390625 4.6875 -0.554688 4.15625 -0.765625 C 3.632812 -0.984375 3.15625 -1.242188 2.71875 -1.546875 C 2.28125 -1.859375 1.957031 -2.15625 1.75 -2.4375 C 1.632812 -2.625 1.503906 -2.988281 1.359375 -3.53125 C 1.210938 -4.070312 1.078125 -4.703125 0.953125 -5.421875 C 0.828125 -6.148438 0.695312 -6.925781 0.5625 -7.75 C 0.4375 -8.570312 0.316406 -9.347656 0.203125 -10.078125 C 0.0976562 -10.816406 0.015625 -11.472656 -0.046875 -12.046875 C -0.109375 -12.628906 -0.148438 -13.046875 -0.171875 -13.296875 C -0.265625 -14.273438 -0.335938 -15.394531 -0.390625 -16.65625 C -0.441406 -17.914062 -0.429688 -19.1875 -0.359375 -20.46875 C -0.296875 -21.75 -0.144531 -22.984375 0.09375 -24.171875 C 0.34375 -25.367188 0.734375 -26.410156 1.265625 -27.296875 C 1.429688 -27.535156 1.773438 -27.8125 2.296875 -28.125 C 2.816406 -28.445312 3.441406 -28.753906 4.171875 -29.046875 C 4.898438 -29.347656 5.679688 -29.640625 6.515625 -29.921875 C 7.359375 -30.210938 8.175781 -30.46875 8.96875 -30.6875 C 9.757812 -30.90625 10.472656 -31.09375 11.109375 -31.25 C 11.753906 -31.40625 12.25 -31.5 12.59375 -31.53125 C 12.976562 -31.5625 13.351562 -31.503906 13.71875 -31.359375 C 14.082031 -31.222656 14.398438 -31.023438 14.671875 -30.765625 C 14.953125 -30.503906 15.179688 -30.203125 15.359375 -29.859375 C 15.535156 -29.515625 15.644531 -29.148438 15.6875 -28.765625 C 15.71875 -28.421875 15.695312 -28.125 15.625 -27.875 C 15.550781 -27.632812 15.4375 -27.363281 15.28125 -27.0625 C 15.050781 -26.695312 14.539062 -26.238281 13.75 -25.6875 C 12.957031 -25.144531 12.09375 -24.597656 11.15625 -24.046875 C 10.21875 -23.503906 9.3125 -23.007812 8.4375 -22.5625 C 7.570312 -22.113281 6.960938 -21.789062 6.609375 -21.59375 C 6.566406 -20.988281 6.507812 -20.375 6.4375 -19.75 C 6.375 -19.125 6.347656 -18.488281 6.359375 -17.84375 C 7.128906 -18.34375 8.007812 -18.820312 9 -19.28125 C 9.988281 -19.738281 10.9375 -20.007812 11.84375 -20.09375 C 13.707031 -20.269531 14.722656 -19.445312 14.890625 -17.625 C 14.929688 -17.175781 14.878906 -16.773438 14.734375 -16.421875 C 14.597656 -16.066406 14.398438 -15.742188 14.140625 -15.453125 C 13.890625 -15.160156 13.597656 -14.898438 13.265625 -14.671875 C 12.929688 -14.453125 12.601562 -14.238281 12.28125 -14.03125 C 11.488281 -13.5 10.644531 -13.023438 9.75 -12.609375 C 8.863281 -12.203125 7.984375 -11.800781 7.109375 -11.40625 C 7.078125 -11.1875 7.046875 -10.953125 7.015625 -10.703125 C 6.984375 -10.453125 6.976562 -10.210938 7 -9.984375 C 7.03125 -9.617188 7.085938 -9.253906 7.171875 -8.890625 C 7.265625 -8.523438 7.351562 -8.160156 7.4375 -7.796875 C 7.738281 -7.929688 8.222656 -8.144531 8.890625 -8.4375 C 9.566406 -8.738281 10.273438 -9.039062 11.015625 -9.34375 C 11.753906 -9.65625 12.46875 -9.925781 13.15625 -10.15625 C 13.84375 -10.394531 14.359375 -10.53125 14.703125 -10.5625 C 15.097656 -10.59375 15.46875 -10.539062 15.8125 -10.40625 C 16.164062 -10.269531 16.472656 -10.070312 16.734375 -9.8125 C 16.992188 -9.5625 17.210938 -9.257812 17.390625 -8.90625 C 17.578125 -8.550781 17.6875 -8.191406 17.71875 -7.828125 Z M 17.71875 -7.828125 "/></g></g></g><path stroke-linecap="butt" transform="matrix(0.364439, 0.0331903, -0.0331903, 0.364439, 30.387051, 7.493221)" fill="none" stroke-linejoin="miter" d="M 50.796683 38.395161 C 50.797485 43.347047 49.577636 47.842019 47.139074 51.901337 C 44.699543 55.950025 41.439424 59.344586 37.347118 62.075357 C 39.49745 62.501196 41.364673 63.2315 42.939125 64.277868 C 44.523239 65.312637 45.829066 66.587121 46.867235 68.100351 C 47.915067 69.601983 48.702968 71.309503 49.2406 73.211311 C 49.778232 75.11312 50.045283 77.103882 50.041754 79.183597 C 50.050148 83.27731 49.099778 86.847384 47.190644 89.893818 C 45.292141 92.939284 42.831102 95.457182 39.82685 97.424313 C 36.812937 99.403043 33.451999 100.866732 29.756602 101.835673 C 26.061206 102.804615 22.386026 103.289381 18.731062 103.289973 C 16.716097 103.291265 14.709807 103.152427 12.700593 102.863795 C 10.691379 102.575164 8.791335 102.072938 7.000461 101.357118 C 6.348098 101.137848 5.807734 100.265267 5.377431 98.718114 C 4.947128 97.170961 4.615345 95.293279 4.358886 93.065745 C 4.102426 90.838211 3.905858 88.444444 3.766275 85.852554 C 3.627661 83.271295 3.519988 80.794402 3.444226 78.432508 C 3.367495 76.059983 3.339133 73.983172 3.335943 72.18275 C 3.33372 70.392958 3.337383 69.138557 3.3363 68.420514 C 3.332995 65.91268 3.338384 63.382617 3.331206 60.832261 C 3.334659 58.280937 3.404798 55.755696 3.551286 53.244938 C 3.55698 52.601308 3.57228 51.592373 3.608782 50.227796 C 3.645285 48.863218 3.677896 47.338218 3.717246 45.651825 C 3.745966 43.966401 3.820092 42.191093 3.928994 40.32687 C 4.037897 38.462647 4.179678 36.724052 4.354337 35.111085 C 4.539627 33.497149 4.788737 32.113209 5.113265 30.968927 C 5.436826 29.814014 5.811678 29.104609 6.246516 28.818481 C 7.895037 27.735834 9.720421 26.71211 11.733297 25.746341 C 13.735543 24.781539 15.823819 23.937525 17.976865 23.216234 C 20.12991 22.494944 22.275249 21.924414 24.433173 21.492079 C 26.580467 21.060713 28.630189 20.852603 30.569774 20.847457 C 33.217739 20.852827 35.781687 21.230278 38.261617 21.979811 C 40.741547 22.729344 42.891994 23.862595 44.722619 25.367966 C 46.553244 26.873337 48.018621 28.72281 49.129381 30.915415 C 50.239174 33.09739 50.79913 35.597403 50.796683 38.395161 Z M 32.933511 44.095041 C 32.929448 42.873499 32.558201 41.974798 31.799477 41.411503 C 31.050416 40.83661 30.058832 40.541049 28.84792 40.544145 C 27.840921 40.550106 26.777905 40.764821 25.6695 41.187322 C 24.562064 41.620453 23.607345 42.200454 22.815004 42.915726 C 22.598563 43.128371 22.407312 43.735308 22.21999 44.738472 C 22.044268 45.751298 21.900455 46.879122 21.789521 48.132575 C 21.689217 49.385059 21.614995 50.570856 21.577486 51.688999 C 21.539009 52.796511 21.520767 53.537751 21.520824 53.891457 C 21.52278 54.03062 21.522818 54.266424 21.519971 54.588239 C 21.527754 54.909086 21.548104 55.250226 21.58102 55.611658 C 21.613937 55.97309 21.664241 56.290064 21.744501 56.582874 C 21.813162 56.866021 21.923357 57.016763 22.06252 57.014808 C 23.284062 57.010744 24.540323 56.564059 25.830335 55.664123 C 27.121315 54.774816 28.284693 53.661323 29.332067 52.333306 C 30.36881 51.006257 31.225787 49.588394 31.913627 48.07875 C 32.590836 46.570073 32.930798 45.242171 32.933511 44.095041 Z M 32.507526 75.196127 C 32.504431 73.985216 32.072306 73.124214 31.211152 72.613122 C 30.350966 72.112661 29.385482 71.868315 28.302135 71.859793 C 27.305767 71.864786 26.244686 72.100762 25.129524 72.566753 C 24.014362 73.032743 23.100228 73.58761 22.387121 74.231355 C 22.175501 74.37925 22.015135 74.736848 21.906022 75.304148 C 21.797878 75.882079 21.726465 76.510258 21.691784 77.188683 C 21.647441 77.878707 21.619518 78.513644 21.579028 79.128287 C 21.538539 79.742931 21.522176 80.151725 21.520278 80.366268 C 21.522233 80.505431 21.527112 80.794387 21.523316 81.223474 C 21.520488 81.663191 21.539888 82.111602 21.581518 82.568707 C 21.613485 83.037411 21.68507 83.470351 21.796271 83.867528 C 21.906505 84.254074 22.032171 84.457 22.171334 84.455045 C 23.1793 84.459714 24.288692 84.165745 25.512075 83.593433 C 26.724827 83.022088 27.860244 82.307727 28.896095 81.441655 C 29.943545 80.585246 30.796726 79.59647 31.477865 78.484022 C 32.159004 77.371573 32.499004 76.279475 32.507526 75.196127 Z M 32.507526 75.196127 " stroke="#1d2c4e" stroke-width="4.1331" stroke-opacity="1" stroke-miterlimit="4"/><path stroke-linecap="butt" transform="matrix(0.365449, 0.0190835, -0.0190835, 0.365449, 48.554409, 9.209879)" fill="none" stroke-linejoin="miter" d="M 60.914307 64.226162 C 60.918148 67.165407 60.777204 70.197724 60.49092 73.312453 C 60.194532 76.438399 59.700701 79.467766 58.978004 82.412884 C 58.265966 85.357445 57.27797 88.134706 56.025232 90.754769 C 54.761833 93.375388 53.171488 95.671036 51.232874 97.642826 C 49.294261 99.614616 46.960288 101.179495 44.230398 102.326804 C 41.511168 103.473556 38.313053 104.046738 34.657372 104.045235 C 29.270347 104.04863 24.597474 102.78551 20.607888 100.278865 C 16.628961 97.771662 13.307855 94.556709 10.655784 90.644107 C 8.003714 86.731505 6.022267 82.356328 4.732762 77.517463 C 3.4427 72.667937 2.797238 67.880951 2.795818 63.145845 C 2.801635 62.643163 2.798462 62.173018 2.797516 61.745511 C 2.79657 61.318005 2.829273 60.920808 2.906842 60.564024 C 2.977592 59.053195 3.106345 57.015582 3.281327 54.430421 C 3.46697 51.844703 3.771624 49.081748 4.195289 46.141557 C 4.629615 43.200808 5.188518 40.189421 5.860783 37.097292 C 6.544264 34.015266 7.447538 31.253119 8.559946 28.811406 C 9.672353 26.369693 11.010676 24.365117 12.595678 22.785904 C 14.17002 21.207248 16.031287 20.415275 18.190695 20.42009 C 19.772803 20.422985 21.090475 20.888622 22.175689 21.815331 C 23.250801 22.753257 24.123849 23.915512 24.80605 25.312199 C 25.488808 26.719547 25.971812 28.19077 26.265723 29.725312 C 26.54953 31.27107 26.687524 32.685488 26.690919 33.978666 C 26.695734 35.913105 26.498569 37.86878 26.099424 39.84569 C 25.700279 41.822601 25.332 43.776522 24.973268 45.708567 C 24.396941 48.795687 23.927213 51.877239 23.5753 54.963329 C 23.212726 58.049975 23.035823 61.212436 23.033374 64.440611 C 23.033819 66.086677 23.117706 68.102498 23.305241 70.465639 C 23.482117 72.829338 23.932807 75.114604 24.645541 77.300676 C 25.368934 79.486191 26.385876 81.357088 27.716573 82.890934 C 29.037167 84.435996 30.851786 85.207039 33.150329 85.215277 C 35.373139 85.206092 37.151354 84.461213 38.472644 82.949215 C 39.80515 81.44732 40.791059 79.653547 41.44103 77.567338 C 42.080898 75.492346 42.49023 73.301125 42.669582 71.004336 C 42.848934 68.707547 42.938388 66.736119 42.948046 65.078836 C 42.946626 60.34373 42.552463 55.661199 41.755453 51.042461 C 40.968547 46.412506 39.925804 41.79591 38.638999 37.213437 C 38.275952 35.992483 37.976865 34.768189 37.720973 33.552329 C 37.475185 32.325252 37.347768 31.113372 37.348269 29.894812 C 37.350217 27.885198 37.942269 26.12268 39.124981 24.617919 C 40.307693 23.113158 41.978196 22.352525 44.126945 22.357897 C 45.922805 22.360318 47.583734 23.053875 49.132165 24.458773 C 50.669379 25.853568 52.058301 27.683663 53.277056 29.939511 C 54.496368 32.206018 55.558482 34.737268 56.452738 37.533816 C 57.346995 40.330365 58.12288 43.111717 58.769177 45.867769 C 59.405371 48.635038 59.895751 51.270965 60.219554 53.787324 C 60.5428 56.293024 60.734955 58.335257 60.806679 59.913468 C 60.876511 60.636667 60.913249 61.340215 60.916339 62.013454 C 60.919985 62.697353 60.915754 63.435108 60.914307 64.226162 Z M 60.914307 64.226162 " stroke="#1d2c4e" stroke-width="4.1331" stroke-opacity="1" stroke-miterlimit="4"/><path stroke-linecap="butt" transform="matrix(0.365914, 0.00494823, -0.00494823, 0.365914, 71.30033, 10.371953)" fill="none" stroke-linejoin="miter" d="M 50.80121 38.393041 C 50.804142 43.346354 49.583958 47.846491 47.140802 51.904128 C 44.697502 55.951092 41.434077 59.347276 37.350238 62.071333 C 39.501793 62.501277 41.369208 63.233972 42.941955 64.280237 C 44.52523 65.315683 45.834173 66.589697 46.868784 68.102278 C 47.913923 69.604041 48.705644 71.312062 49.243658 73.204995 C 49.781816 75.108601 50.043621 77.101347 50.05042 79.182944 C 50.04166 83.271712 49.0971 86.83937 47.195537 89.896877 C 45.293829 92.943711 42.840419 95.453565 39.824631 97.426581 C 36.808844 99.399598 33.455254 100.864766 29.76415 101.843434 C 26.062229 102.811573 22.385688 103.288304 18.724142 103.295118 C 16.717115 103.290233 14.708211 103.146594 12.697431 102.864201 C 10.686506 102.571135 8.790246 102.073687 6.997689 101.350654 C 6.354256 101.135174 5.808607 100.2565 5.38209 98.714346 C 4.955573 97.172191 4.609825 95.287334 4.355662 93.070303 C 4.112028 90.842454 3.908779 88.443254 3.766972 85.851067 C 3.625309 83.269553 3.517109 80.794341 3.442373 78.425429 C 3.367782 76.06719 3.339636 73.985882 3.336735 72.192466 C 3.333689 70.388377 3.338148 69.139304 3.339151 68.424043 C 3.337108 65.904694 3.334921 63.374671 3.332589 60.833974 C 3.340787 58.28246 3.413313 55.751427 3.550168 53.240875 C 3.552181 52.600328 3.570634 51.596598 3.605526 50.229684 C 3.640562 48.873444 3.673289 47.346429 3.714524 45.65917 C 3.745086 43.972055 3.817187 42.198976 3.930682 40.329259 C 4.033504 38.459686 4.180895 36.72829 4.361895 35.113868 C 4.542894 33.499446 4.79111 32.118972 5.117069 30.961629 C 5.4325 29.815103 5.807215 29.105464 6.240927 28.811365 C 7.891684 27.732185 9.724755 26.714591 11.729321 25.748055 C 13.744561 24.781374 15.825429 23.931234 17.972213 23.218983 C 20.129526 22.495913 22.278187 21.922415 24.428868 21.498345 C 26.579406 21.063601 28.62624 20.854441 30.569083 20.849518 C 33.216513 20.845743 35.783752 21.227365 38.259982 21.983853 C 40.736069 22.729668 42.886476 23.864199 44.72159 25.365954 C 46.546175 26.878528 48.023012 28.726739 49.130756 30.910876 C 50.238645 33.105687 50.795415 35.596184 50.80121 38.393041 Z M 32.933166 44.100437 C 32.937915 42.872711 32.552222 41.981199 31.807821 41.404122 C 31.052746 40.82719 30.066754 40.541614 28.839172 40.54754 C 27.835586 40.53976 26.781664 40.756844 25.666589 41.188261 C 24.562187 41.619533 23.609233 42.198212 22.818256 42.91348 C 22.597002 43.129979 22.402435 43.741103 22.223881 44.746999 C 22.045184 45.742221 21.900383 46.875763 21.789334 48.136954 C 21.688814 49.387326 21.619448 50.573226 21.581092 51.683978 C 21.542736 52.794731 21.520675 53.531627 21.525583 53.894522 C 21.527459 54.033276 21.530634 54.26809 21.524291 54.588435 C 21.528621 54.908637 21.543913 55.25004 21.580841 55.612502 C 21.617768 55.974964 21.664792 56.294588 21.743402 56.581759 C 21.81134 56.869074 21.920094 57.017058 22.058848 57.015181 C 23.286431 57.009256 24.540115 56.565289 25.830287 55.66179 C 27.120604 54.768965 28.290482 53.653586 29.329393 52.326471 C 30.368304 50.999357 31.224612 49.589309 31.908704 48.074837 C 32.59294 46.571039 32.937937 45.242633 32.933166 44.100437 Z M 32.499745 75.203526 C 32.504493 73.975799 32.076541 73.116885 31.215743 72.61611 C 30.354944 72.115335 29.380059 71.861635 28.301904 71.865539 C 27.298462 71.868433 26.244685 72.09619 25.130042 72.559627 C 24.015544 73.033737 23.104995 73.590492 22.387721 74.230036 C 22.17613 74.371677 22.010264 74.736881 21.900506 75.304158 C 21.790893 75.882108 21.724696 76.512847 21.691239 77.19652 C 21.646966 77.869665 21.613077 78.521318 21.57861 79.130278 C 21.544144 79.739237 21.528426 80.155788 21.52064 80.3694 C 21.522516 80.508154 21.526413 80.796335 21.521513 81.223414 C 21.527431 81.661022 21.544166 82.10916 21.582537 82.578355 C 21.61009 83.037022 21.690722 83.47362 21.792122 83.867236 C 21.904197 84.260707 22.024346 84.461914 22.173773 84.459893 C 23.177215 84.456999 24.283638 84.175154 25.503426 83.592866 C 26.723359 83.021252 27.855884 82.301365 28.901145 81.443879 C 29.935734 80.586538 30.797672 79.592752 31.476574 78.484013 C 32.166151 77.375129 32.50365 76.281681 32.499745 75.203526 Z M 32.499745 75.203526 " stroke="#1d2c4e" stroke-width="4.1331" stroke-opacity="1" stroke-miterlimit="4"/><path stroke-linecap="butt" transform="matrix(0.365866, -0.00770124, 0.00770124, 0.365866, 89.643723, 10.634504)" fill="none" stroke-linejoin="miter" d="M 50.794683 38.390369 C 50.797171 43.344417 49.581365 47.845752 47.13637 51.904822 C 44.702272 55.953445 41.438565 59.344002 37.345475 62.065821 C 39.503576 62.506286 41.367244 63.239502 42.946926 64.276364 C 44.526609 65.313227 45.834324 66.589929 46.870298 68.095799 C 47.916944 69.601893 48.703194 71.305365 49.239721 73.206437 C 49.776247 75.107509 50.043952 77.099013 50.042835 79.180949 C 50.042175 83.270117 49.091593 86.837484 47.190867 89.893723 C 45.290364 92.939289 42.835254 95.450022 39.825536 97.425922 C 36.805146 99.401598 33.45381 100.868501 29.760632 101.83708 C 26.067454 102.80566 22.384384 103.293999 18.72232 103.291652 C 16.715088 103.292108 14.711001 103.143156 12.698938 102.865916 C 10.687099 102.578004 8.786697 102.068226 6.997284 101.357927 C 6.350561 101.141456 5.813813 100.265344 5.376594 98.718694 C 4.950046 97.172268 4.605391 95.285912 4.363747 93.070745 C 4.111657 90.844682 3.906072 88.438094 3.768339 85.85143 C 3.619709 83.275213 3.511745 80.795942 3.443999 78.434962 C 3.376477 76.06331 3.334905 73.980475 3.340628 72.186908 C 3.33568 70.393115 3.340843 69.133372 3.33455 68.417899 C 3.33398 65.908859 3.333859 63.378475 3.333963 60.837419 C 3.334292 58.285691 3.408875 55.756879 3.547265 53.240087 C 3.550072 52.599544 3.571188 51.596377 3.610613 50.230587 C 3.639367 48.864573 3.682162 47.338703 3.717655 45.652529 C 3.753148 43.966355 3.822454 42.19548 3.925798 40.32923 C 4.039813 38.463204 4.183149 36.725917 4.35603 35.106695 C 4.539358 33.49837 4.792673 32.115729 5.115749 30.969445 C 5.438826 29.82316 5.816949 29.105103 6.239446 28.815048 C 7.895623 27.739531 9.721652 26.710296 11.727758 25.748912 C 13.74476 24.777081 15.823098 23.934661 17.973445 23.221877 C 20.124016 22.498422 22.282115 21.924599 24.426396 21.499959 C 26.581574 21.064872 28.625315 20.85165 30.568515 20.849847 C 33.216291 20.852197 35.781501 21.226494 38.26392 21.983411 C 40.735891 22.729431 42.890063 23.8638 44.716214 25.364949 C 46.552811 26.876995 48.019373 28.722906 49.126346 30.913581 C 50.243991 33.10448 50.800178 35.593185 50.794683 38.390369 Z M 32.929797 44.100052 C 32.934286 42.872325 32.558068 41.978238 31.801366 41.407121 C 31.055336 40.836228 30.068457 40.548537 28.840729 40.544048 C 27.837113 40.544276 26.786317 40.757045 25.666771 41.192578 C 24.558121 41.617664 23.606407 42.195527 22.811851 42.915495 C 22.604591 43.124667 22.399466 43.739599 22.228942 44.73962 C 22.047522 45.75009 21.906318 46.878849 21.794435 48.136347 C 21.682777 49.383172 21.614929 50.577536 21.580895 51.687198 C 21.54686 52.79686 21.520688 53.533002 21.523947 53.885403 C 21.520802 54.03481 21.526532 54.269819 21.530465 54.590203 C 21.523726 54.910363 21.548554 55.25254 21.583604 55.616286 C 21.618879 55.96936 21.6655 56.290643 21.74481 56.580584 C 21.813449 56.8703 21.917248 57.011282 22.066656 57.014427 C 23.283937 57.00802 24.542443 56.564735 25.831953 55.663004 C 27.121238 54.771945 28.287177 53.654079 29.329321 52.330749 C 30.371464 51.00742 31.234205 49.584223 31.906423 48.082279 C 32.589537 46.569888 32.937777 45.242629 32.929797 44.100052 Z M 32.499313 75.20294 C 32.503578 73.985884 32.073325 73.12269 31.208556 72.613358 C 30.354233 72.114923 29.377353 71.859473 28.30948 71.869025 C 27.305864 71.869253 26.244171 72.092469 25.134623 72.560243 C 24.014403 73.027792 23.105825 73.58521 22.387547 74.232047 C 22.170962 74.376962 22.013916 74.736664 21.905738 75.31093 C 21.79756 75.885196 21.720274 76.513495 21.684553 77.196053 C 21.648832 77.878611 21.61401 78.518481 21.579862 79.126335 C 21.545713 79.734189 21.526281 80.150171 21.521788 80.363611 C 21.529315 80.513244 21.52325 80.801387 21.524936 81.228491 C 21.526623 81.655595 21.538532 82.104268 21.582008 82.574959 C 21.615036 83.034753 21.691202 83.474101 21.789835 83.860539 C 21.898915 84.257874 22.022935 84.452665 22.172343 84.45581 C 23.175959 84.455582 24.29236 84.169457 25.510875 83.59721 C 26.729389 83.024963 27.855 82.301286 28.897931 81.447748 C 29.941087 80.583539 30.794618 79.597894 31.480093 78.480591 C 32.165343 77.37396 32.497968 76.281259 32.499313 75.20294 Z M 32.499313 75.20294 " stroke="#1d2c4e" stroke-width="4.1331" stroke-opacity="1" stroke-miterlimit="4"/><path stroke-linecap="butt" transform="matrix(0.365371, -0.020536, 0.020536, 0.365371, 107.972653, 10.268767)" fill="none" stroke-linejoin="miter" d="M 54.566403 87.144639 C 54.561685 88.940496 53.83585 90.631673 52.357524 92.205718 C 50.889855 93.780362 48.991217 95.223871 46.652151 96.514331 C 44.323743 97.80539 41.726625 98.931669 38.849541 99.903227 C 35.983714 100.864726 33.14639 101.699533 30.350024 102.376274 C 27.553058 103.063672 24.915482 103.578279 22.436096 103.941409 C 19.967967 104.29448 18.012123 104.473212 16.579222 104.478204 C 15.210865 104.476133 13.753179 104.351437 12.217421 104.094059 C 10.670407 103.84674 9.397144 103.294071 8.398232 102.425395 C 7.823574 101.997521 7.322095 101.02851 6.893198 99.529018 C 6.454243 98.018269 6.042118 96.220366 5.645568 94.145367 C 5.260275 92.06031 4.915939 89.817187 4.623218 87.416597 C 4.341156 85.016606 4.109984 82.66224 3.929106 80.364157 C 3.748227 78.066074 3.610453 75.952164 3.494468 74.02123 C 3.389739 72.080236 3.335653 70.569737 3.331609 69.50039 C 3.336326 67.704534 3.393982 65.537461 3.494517 62.987915 C 3.605709 60.438968 3.769715 57.71124 3.986535 54.804729 C 4.192697 51.897619 4.487114 48.942014 4.838413 45.925458 C 5.200369 42.909502 5.617286 40.057003 6.078504 37.367362 C 6.550381 34.678319 7.124514 32.262305 7.801505 30.10866 C 8.489152 27.955614 9.214987 26.264436 10.010383 25.047581 C 11.36993 23.11405 13.092406 22.141744 15.177214 22.141319 C 16.610115 22.136327 17.833684 22.622056 18.837264 23.597906 C 19.841444 24.563099 20.647672 25.816519 21.25595 27.358167 C 21.864228 28.899815 22.333834 30.626111 22.654708 32.525797 C 22.975582 34.425483 23.211795 36.309719 23.352689 38.177907 C 23.493583 40.046094 23.568261 41.760884 23.575524 43.343589 C 23.57213 44.925696 23.56599 46.176221 23.567163 47.106421 C 23.573004 52.708938 23.443292 58.250379 23.188086 63.742003 C 22.944136 69.223567 22.814424 74.765009 22.820265 80.367525 L 22.819317 84.569113 C 26.040437 83.563437 29.55817 82.606505 33.361261 81.708377 C 37.164352 80.810249 40.79248 80.362008 44.234987 80.363056 C 45.45354 80.367399 46.689813 80.436885 47.943209 80.582172 C 49.207262 80.728058 50.313124 81.02542 51.280913 81.496772 C 52.248701 81.968125 53.044647 82.643642 53.656893 83.544041 C 54.258482 84.443841 54.565604 85.637135 54.566403 87.144639 Z M 54.566403 87.144639 " stroke="#1d2c4e" stroke-width="4.1331" stroke-opacity="1" stroke-miterlimit="4"/><path stroke-linecap="butt" transform="matrix(0.364432, -0.0332679, 0.0332679, 0.364432, 126.871471, 9.213975)" fill="none" stroke-linejoin="miter" d="M 50.154485 85.09997 C 50.158807 86.461644 49.791073 87.789354 49.072545 89.085041 C 48.360809 90.306317 46.675819 91.738872 44.016604 93.393336 C 41.368989 95.038141 38.417952 96.601653 35.196354 98.076154 C 31.965096 99.539055 28.848917 100.798086 25.827527 101.840677 C 22.816768 102.884238 20.593831 103.399468 19.157746 103.396997 C 18.149779 103.401451 16.970846 103.165205 15.609349 102.697919 C 14.247852 102.230632 12.875769 101.644473 11.516301 100.920122 C 10.155863 100.206402 8.912401 99.385453 7.808145 98.448588 C 6.693259 97.510752 5.884706 96.622318 5.384428 95.762025 C 5.098561 95.253586 4.825442 94.253249 4.577642 92.740724 C 4.31824 91.237858 4.103389 89.48181 3.933088 87.472579 C 3.752156 85.462378 3.582869 83.324615 3.445517 81.071861 C 3.298504 78.807506 3.173679 76.652364 3.07104 74.606435 C 2.957771 72.559535 2.886934 70.752322 2.848869 69.173193 C 2.821435 67.595034 2.797705 66.445964 2.798941 65.727921 C 2.795105 63.069325 2.890955 60.023235 3.0662 56.577082 C 3.251106 53.142528 3.588715 49.67904 4.088687 46.198218 C 4.588659 42.717395 5.333081 39.376793 6.299721 36.185102 C 7.266361 32.993411 8.57493 30.283121 10.224458 28.064861 C 10.72337 27.413687 11.728691 26.733711 13.241393 26.014302 C 14.743465 25.293923 16.51998 24.620034 18.562248 23.970406 C 20.615147 23.321747 22.813957 22.718565 25.181878 22.141539 C 27.5498 21.564513 29.833607 21.086996 32.013979 20.685787 C 34.204011 20.296178 36.194937 19.974143 37.997387 19.720653 C 39.789207 19.466192 41.150925 19.343968 42.083511 19.343351 C 43.15526 19.344719 44.1844 19.57801 45.14967 20.041282 C 46.11494 20.504555 46.946782 21.137865 47.624906 21.928643 C 48.30303 22.719421 48.844858 23.594225 49.23879 24.562716 C 49.632723 25.531207 49.82852 26.556642 49.827152 27.62839 C 49.827768 28.560977 49.701838 29.353386 49.450331 29.994988 C 49.197853 30.64722 48.821651 31.363189 48.320755 32.153525 C 47.603329 33.084876 46.098214 34.190852 43.804438 35.482083 C 41.510662 36.773314 39.013943 38.056737 36.326852 39.312064 C 33.62913 40.566419 31.050326 41.692287 28.578837 42.699327 C 26.096718 43.705396 24.359813 44.415057 23.35555 44.848599 C 23.065006 46.504917 22.762861 48.170895 22.437516 49.856193 C 22.11217 51.541491 21.881526 53.246152 21.745582 54.970177 C 23.961991 53.821946 26.472163 52.743407 29.276098 51.734559 C 32.068432 50.735371 34.730116 50.228036 37.23795 50.231876 C 42.328998 50.235717 44.876483 52.740641 44.878465 57.767908 C 44.884771 58.99042 44.647599 60.06208 44.176608 60.994489 C 43.716247 61.927869 43.105167 62.751022 42.353998 63.464917 C 41.601859 64.189443 40.740552 64.818254 39.770076 65.351348 C 38.79863 65.895073 37.851355 66.408849 36.915681 66.912964 C 34.618068 68.128814 32.216138 69.195797 29.701203 70.091683 C 27.196898 70.988539 24.683903 71.863165 22.171878 72.727161 C 22.022835 73.303086 21.880541 73.922502 21.743054 74.606669 C 21.594937 75.289865 21.523172 75.958594 21.52873 76.602226 C 21.522554 77.609223 21.591759 78.612383 21.736346 79.611705 C 21.879963 80.621658 22.02455 81.62098 22.168166 82.630933 C 23.030312 82.345199 24.413422 81.87121 26.315558 81.230226 C 28.218665 80.578612 30.206812 79.934762 32.291601 79.289015 C 34.36576 78.642297 36.378035 78.086399 38.317795 77.62035 C 40.257555 77.154301 41.683098 76.919997 42.615685 76.91938 C 43.698063 76.921719 44.705943 77.153069 45.638352 77.62406 C 46.571732 78.084421 47.351394 78.70225 48.001508 79.447596 C 48.650653 80.203572 49.17025 81.087066 49.561272 82.087447 C 49.952293 83.087828 50.14906 84.102633 50.154485 85.09997 Z M 50.154485 85.09997 " stroke="#1d2c4e" stroke-width="4.1331" stroke-opacity="1" stroke-miterlimit="4"/><path fill="#ffffff" d="M 25.46875 48.886719 C 25.46875 45.773438 22.949219 43.253906 19.839844 43.253906 C 16.726562 43.253906 14.207031 45.773438 14.207031 48.886719 C 14.207031 51.996094 16.726562 54.519531 19.839844 54.519531 C 22.949219 54.519531 25.46875 51.996094 25.46875 48.886719 Z M 25.46875 48.886719 " fill-opacity="1" fill-rule="nonzero"/><g clip-path="url(#b64db07dfe)"><path fill="#ffffff" d="M 6.558594 61.238281 C 6.558594 61.527344 6.503906 61.804688 6.394531 62.070312 C 6.285156 62.335938 6.128906 62.570312 5.921875 62.773438 C 5.71875 62.980469 5.484375 63.136719 5.21875 63.246094 C 4.953125 63.355469 4.675781 63.410156 4.386719 63.410156 C 4.097656 63.410156 3.824219 63.355469 3.554688 63.246094 C 3.289062 63.136719 3.054688 62.980469 2.851562 62.773438 C 2.648438 62.570312 2.492188 62.335938 2.378906 62.070312 C 2.269531 61.804688 2.214844 61.527344 2.214844 61.238281 C 2.214844 60.953125 2.269531 60.675781 2.378906 60.40625 C 2.492188 60.140625 2.648438 59.90625 2.851562 59.703125 C 3.054688 59.5 3.289062 59.34375 3.554688 59.230469 C 3.824219 59.121094 4.097656 59.066406 4.386719 59.066406 C 4.675781 59.066406 4.953125 59.121094 5.21875 59.230469 C 5.484375 59.34375 5.71875 59.5 5.921875 59.703125 C 6.128906 59.90625 6.285156 60.140625 6.394531 60.40625 C 6.503906 60.675781 6.558594 60.953125 6.558594 61.238281 Z M 6.558594 61.238281 " fill-opacity="1" fill-rule="nonzero"/></g><path fill="#ffffff" d="M 13.054688 54.464844 C 13.054688 52.425781 11.402344 50.769531 9.363281 50.769531 C 7.324219 50.769531 5.671875 52.425781 5.671875 54.464844 C 5.671875 56.503906 7.324219 58.15625 9.363281 58.15625 C 11.402344 58.15625 13.054688 56.503906 13.054688 54.464844 Z M 13.054688 54.464844 " fill-opacity="1" fill-rule="nonzero"/></svg>