<svg width="200" height="200" viewBox="0 0 200 200" fill="none" xmlns="http://www.w3.org/2000/svg">
<path opacity="0.15" d="M33.3333 189.583C33.3333 191.241 40.357 192.83 52.8595 194.002C65.3619 195.175 82.3188 195.833 99.9999 195.833C117.681 195.833 134.638 195.175 147.14 194.002C159.643 192.83 166.667 191.241 166.667 189.583C166.667 187.925 159.643 186.336 147.14 185.164C134.638 183.991 117.681 183.333 99.9999 183.333C82.3188 183.333 65.3619 183.991 52.8595 185.164C40.357 186.336 33.3333 187.925 33.3333 189.583Z" fill="#45413C"/>
<path d="M16.6667 89.5833C16.6667 100.527 18.8222 111.363 23.0101 121.474C27.198 131.584 33.3363 140.771 41.0745 148.509C48.8127 156.247 57.9993 162.385 68.1098 166.573C78.2203 170.761 89.0566 172.917 100 172.917C110.944 172.917 121.78 170.761 131.89 166.573C142.001 162.385 151.187 156.247 158.926 148.509C166.664 140.771 172.802 131.584 176.99 121.474C181.178 111.363 183.333 100.527 183.333 89.5833C183.333 78.6398 181.178 67.8035 176.99 57.693C172.802 47.5826 166.664 38.396 158.926 30.6578C151.187 22.9196 142.001 16.7813 131.89 12.5934C121.78 8.40548 110.944 6.25 100 6.25C89.0566 6.25 78.2203 8.40548 68.1098 12.5934C57.9993 16.7813 48.8127 22.9196 41.0745 30.6578C33.3363 38.396 27.198 47.5826 23.0101 57.693C18.8222 67.8035 16.6667 78.6398 16.6667 89.5833Z" fill="#FFE500"/>
<path d="M100 6.25C83.5183 6.25 67.4067 11.1374 53.7026 20.2942C39.9985 29.451 29.3175 42.4659 23.0102 57.693C16.7029 72.9202 15.0526 89.6758 18.268 105.841C21.4834 122.006 29.4202 136.855 41.0746 148.509C52.7289 160.163 67.5775 168.1 83.7426 171.315C99.9077 174.531 116.663 172.881 131.89 166.573C147.118 160.266 160.132 149.585 169.289 135.881C178.446 122.177 183.333 106.065 183.333 89.5833C183.333 67.482 174.554 46.2858 158.926 30.6578C143.298 15.0297 122.101 6.25 100 6.25ZM100 160.417C84.9605 160.417 70.2586 155.957 57.7536 147.601C45.2486 139.246 35.5022 127.37 29.7468 113.475C23.9914 99.5801 22.4855 84.2906 25.4196 69.54C28.3537 54.7894 35.5959 41.24 46.2305 30.6054C56.8652 19.9708 70.4145 12.7285 85.1651 9.79445C99.9158 6.86037 115.205 8.36625 129.1 14.1217C142.995 19.8771 154.871 29.6235 163.226 42.1285C171.582 54.6335 176.042 69.3354 176.042 84.375C176.042 104.543 168.03 123.884 153.77 138.145C139.509 152.405 120.168 160.417 100 160.417Z" fill="#EBCB00"/>
<path d="M75 22.917C75 24.5746 77.6339 26.1643 82.3223 27.3364C87.0107 28.5085 93.3696 29.167 100 29.167C106.63 29.167 112.989 28.5085 117.678 27.3364C122.366 26.1643 125 24.5746 125 22.917C125 21.2594 122.366 19.6697 117.678 18.4976C112.989 17.3255 106.63 16.667 100 16.667C93.3696 16.667 87.0107 17.3255 82.3223 18.4976C77.6339 19.6697 75 21.2594 75 22.917Z" fill="#FFF48C"/>
<path d="M16.6667 89.5833C16.6667 100.527 18.8222 111.363 23.0101 121.474C27.198 131.584 33.3363 140.771 41.0745 148.509C48.8127 156.247 57.9993 162.385 68.1098 166.573C78.2203 170.761 89.0566 172.917 100 172.917C110.944 172.917 121.78 170.761 131.89 166.573C142.001 162.385 151.187 156.247 158.926 148.509C166.664 140.771 172.802 131.584 176.99 121.474C181.178 111.363 183.333 100.527 183.333 89.5833C183.333 78.6398 181.178 67.8035 176.99 57.693C172.802 47.5826 166.664 38.396 158.926 30.6578C151.187 22.9196 142.001 16.7813 131.89 12.5934C121.78 8.40548 110.944 6.25 100 6.25C89.0566 6.25 78.2203 8.40548 68.1098 12.5934C57.9993 16.7813 48.8127 22.9196 41.0745 30.6578C33.3363 38.396 27.198 47.5826 23.0101 57.693C18.8222 67.8035 16.6667 78.6398 16.6667 89.5833Z" stroke="#45413C" stroke-width="4.16667" stroke-linecap="round" stroke-linejoin="round"/>
<path d="M44.7917 64.583C49.6822 65.3712 54.4197 66.9176 58.8334 69.1663C63.2578 71.382 67.3071 74.2784 70.8334 77.7497" stroke="#45413C" stroke-width="4.16667" stroke-linecap="round" stroke-linejoin="round"/>
<path d="M155.208 64.583C145.383 66.1971 136.291 70.7937 129.167 77.7497" stroke="#45413C" stroke-width="4.16667" stroke-linecap="round" stroke-linejoin="round"/>
<path d="M160.417 110.417C160.417 113.875 155.75 116.667 150 116.667C144.25 116.667 139.583 113.875 139.583 110.417C139.583 106.959 144.25 104.167 150 104.167C155.75 104.167 160.417 106.959 160.417 110.417Z" fill="#FFAA54"/>
<path d="M39.5833 110.417C39.5833 113.875 44.2499 116.667 49.9999 116.667C55.7499 116.667 60.4166 113.875 60.4166 110.417C60.4166 106.959 55.7499 104.167 49.9999 104.167C44.2499 104.167 39.5833 106.959 39.5833 110.417Z" fill="#FFAA54"/>
<path d="M79.1667 131.25C85.3335 127.13 92.5835 124.931 100 124.931C107.417 124.931 114.667 127.13 120.833 131.25" stroke="#45413C" stroke-width="4.16667" stroke-linecap="round"/>
<path d="M158.333 85.417C158.333 87.3509 157.565 89.2055 156.198 90.573C154.83 91.9404 152.976 92.7087 151.042 92.7087C149.108 92.7087 147.253 91.9404 145.886 90.573C144.518 89.2055 143.75 87.3509 143.75 85.417" stroke="#45413C" stroke-width="4.16667" stroke-linecap="round" stroke-linejoin="round"/>
<path d="M56.2501 85.417C56.2501 87.3509 55.4819 89.2055 54.1144 90.573C52.7469 91.9404 50.8923 92.7087 48.9584 92.7087C47.0245 92.7087 45.1699 91.9404 43.8024 90.573C42.435 89.2055 41.6667 87.3509 41.6667 85.417" stroke="#45413C" stroke-width="4.16667" stroke-linecap="round" stroke-linejoin="round"/>
<path d="M173.708 145.25C172.354 142.692 170.039 140.777 167.274 139.926C164.508 139.074 161.517 139.355 158.958 140.708C157.563 141.459 156.353 142.512 155.417 143.792L129.167 108.333C128.435 107.524 127.452 106.983 126.377 106.798C125.301 106.613 124.195 106.794 123.234 107.313C122.274 107.832 121.515 108.657 121.08 109.658C120.645 110.659 120.558 111.777 120.833 112.833L135.625 154.5C134.037 154.571 132.485 154.999 131.083 155.75C128.934 157.263 127.402 159.502 126.771 162.054C126.139 164.606 126.45 167.301 127.646 169.642C128.842 171.984 130.843 173.815 133.281 174.799C135.719 175.783 138.43 175.855 140.917 175C143.459 177.642 146.793 179.385 150.414 179.963C154.035 180.542 157.746 179.925 160.986 178.207C164.225 176.488 166.816 173.761 168.368 170.439C169.919 167.116 170.346 163.378 169.583 159.792C172.014 158.368 173.801 156.06 174.57 153.35C175.339 150.64 175.03 147.738 173.708 145.25Z" fill="white" stroke="#45413C" stroke-width="4.16667" stroke-linecap="round" stroke-linejoin="round"/>
<path d="M26.2916 145.25C27.646 142.692 29.9605 140.777 32.7264 139.926C35.4923 139.074 38.4832 139.355 41.0416 140.708C42.4373 141.459 43.6474 142.512 44.5833 143.792L70.8333 108.333C71.5652 107.524 72.5476 106.983 73.6233 106.798C74.6989 106.613 75.8055 106.794 76.7658 107.313C77.7262 107.832 78.4847 108.657 78.92 109.658C79.3553 110.659 79.4421 111.777 79.1666 112.833L64.4166 154.167C66.0049 154.238 67.557 154.665 68.9583 155.417C70.2441 156.065 71.3897 156.96 72.3295 158.051C73.2694 159.143 73.9851 160.408 74.4358 161.776C74.8866 163.144 75.0635 164.587 74.9566 166.023C74.8496 167.459 74.4608 168.86 73.8124 170.146C73.164 171.432 72.2687 172.577 71.1776 173.517C70.0865 174.457 68.8209 175.173 67.4532 175.623C64.6909 176.534 61.6802 176.309 59.0833 175C56.5408 177.642 53.2068 179.385 49.5857 179.963C45.9647 180.542 42.2537 179.925 39.0143 178.207C35.775 176.488 33.1836 173.761 31.6323 170.439C30.081 167.116 29.6542 163.378 30.4166 159.792C27.9856 158.368 26.199 156.06 25.4303 153.35C24.6615 150.64 24.9701 147.738 26.2916 145.25Z" fill="white" stroke="#45413C" stroke-width="4.16667" stroke-linecap="round" stroke-linejoin="round"/>
</svg>
