<svg width="200" height="200" viewBox="0 0 200 200" fill="none" xmlns="http://www.w3.org/2000/svg">
<path d="M16.6667 89.5833C16.6667 100.527 18.8222 111.363 23.0101 121.474C27.198 131.584 33.3363 140.771 41.0745 148.509C48.8127 156.247 57.9993 162.385 68.1098 166.573C78.2203 170.761 89.0566 172.917 100 172.917C110.944 172.917 121.78 170.761 131.89 166.573C142.001 162.385 151.187 156.247 158.926 148.509C166.664 140.771 172.802 131.584 176.99 121.474C181.178 111.363 183.333 100.527 183.333 89.5833C183.333 78.6398 181.178 67.8035 176.99 57.693C172.802 47.5826 166.664 38.396 158.926 30.6578C151.187 22.9196 142.001 16.7813 131.89 12.5934C121.78 8.40548 110.944 6.25 100 6.25C89.0566 6.25 78.2203 8.40548 68.1098 12.5934C57.9993 16.7813 48.8127 22.9196 41.0745 30.6578C33.3363 38.396 27.198 47.5826 23.0101 57.693C18.8222 67.8035 16.6667 78.6398 16.6667 89.5833Z" fill="#FFE500"/>
<path d="M100 6.25C83.5183 6.25 67.4067 11.1374 53.7026 20.2942C39.9985 29.451 29.3175 42.4659 23.0102 57.693C16.7029 72.9202 15.0526 89.6758 18.268 105.841C21.4834 122.006 29.4202 136.855 41.0746 148.509C52.7289 160.163 67.5775 168.1 83.7426 171.315C99.9077 174.531 116.663 172.881 131.89 166.573C147.118 160.266 160.132 149.585 169.289 135.881C178.446 122.177 183.333 106.065 183.333 89.5833C183.333 67.482 174.554 46.2858 158.926 30.6578C143.298 15.0297 122.101 6.25 100 6.25ZM100 160.417C84.9605 160.417 70.2586 155.957 57.7536 147.601C45.2486 139.246 35.5022 127.37 29.7468 113.475C23.9914 99.5801 22.4855 84.2906 25.4196 69.54C28.3537 54.7894 35.5959 41.24 46.2305 30.6054C56.8652 19.9708 70.4145 12.7285 85.1651 9.79445C99.9158 6.86037 115.205 8.36625 129.1 14.1217C142.995 19.8771 154.871 29.6235 163.226 42.1285C171.582 54.6335 176.042 69.3354 176.042 84.375C176.042 104.543 168.03 123.884 153.77 138.145C139.509 152.405 120.168 160.417 100 160.417Z" fill="#EBCB00"/>
<path d="M75 22.917C75 24.5746 77.6339 26.1643 82.3223 27.3364C87.0107 28.5085 93.3696 29.167 100 29.167C106.63 29.167 112.989 28.5085 117.678 27.3364C122.366 26.1643 125 24.5746 125 22.917C125 21.2594 122.366 19.6697 117.678 18.4976C112.989 17.3255 106.63 16.667 100 16.667C93.3696 16.667 87.0107 17.3255 82.3223 18.4976C77.6339 19.6697 75 21.2594 75 22.917Z" fill="#FFF48C"/>
<path opacity="0.15" d="M33.3333 189.583C33.3333 191.241 40.357 192.83 52.8595 194.002C65.3619 195.175 82.3188 195.833 99.9999 195.833C117.681 195.833 134.638 195.175 147.14 194.002C159.643 192.83 166.667 191.241 166.667 189.583C166.667 187.925 159.643 186.336 147.14 185.164C134.638 183.991 117.681 183.333 99.9999 183.333C82.3188 183.333 65.3619 183.991 52.8595 185.164C40.357 186.336 33.3333 187.925 33.3333 189.583Z" fill="#45413C"/>
<path d="M16.6667 89.5833C16.6667 100.527 18.8222 111.363 23.0101 121.474C27.198 131.584 33.3363 140.771 41.0745 148.509C48.8127 156.247 57.9993 162.385 68.1098 166.573C78.2203 170.761 89.0566 172.917 100 172.917C110.944 172.917 121.78 170.761 131.89 166.573C142.001 162.385 151.187 156.247 158.926 148.509C166.664 140.771 172.802 131.584 176.99 121.474C181.178 111.363 183.333 100.527 183.333 89.5833C183.333 78.6398 181.178 67.8035 176.99 57.693C172.802 47.5826 166.664 38.396 158.926 30.6578C151.187 22.9196 142.001 16.7813 131.89 12.5934C121.78 8.40548 110.944 6.25 100 6.25C89.0566 6.25 78.2203 8.40548 68.1098 12.5934C57.9993 16.7813 48.8127 22.9196 41.0745 30.6578C33.3363 38.396 27.198 47.5826 23.0101 57.693C18.8222 67.8035 16.6667 78.6398 16.6667 89.5833Z" stroke="#45413C" stroke-width="4.16667" stroke-linecap="round" stroke-linejoin="round"/>
<path d="M160.417 110.417C160.417 113.875 155.75 116.667 150 116.667C144.25 116.667 139.583 113.875 139.583 110.417C139.583 106.959 144.25 104.167 150 104.167C155.75 104.167 160.417 106.959 160.417 110.417Z" fill="#FFAA54"/>
<path d="M39.5833 110.417C39.5833 113.875 44.2499 116.667 49.9999 116.667C55.7499 116.667 60.4166 113.875 60.4166 110.417C60.4166 106.959 55.7499 104.167 49.9999 104.167C44.2499 104.167 39.5833 106.959 39.5833 110.417Z" fill="#FFAA54"/>
<path d="M41.6667 94.7917C41.6667 92.8578 42.435 91.0031 43.8024 89.6357C45.1699 88.2682 47.0245 87.5 48.9584 87.5C50.8923 87.5 52.7469 88.2682 54.1144 89.6357C55.4819 91.0031 56.2501 92.8578 56.2501 94.7917" stroke="#45413C" stroke-width="4.16667" stroke-linecap="round" stroke-linejoin="round"/>
<path d="M143.75 94.7917C143.75 92.8578 144.518 91.0031 145.886 89.6357C147.253 88.2682 149.108 87.5 151.042 87.5C152.976 87.5 154.83 88.2682 156.198 89.6357C157.565 91.0031 158.333 92.8578 158.333 94.7917" stroke="#45413C" stroke-width="4.16667" stroke-linecap="round" stroke-linejoin="round"/>
<path d="M67.125 122.917C76.1981 130.971 87.9094 135.419 100.042 135.419C112.174 135.419 123.885 130.971 132.958 122.917" stroke="#45413C" stroke-width="4.16667" stroke-linecap="round" stroke-linejoin="round"/>
<path d="M129.167 126C120.774 132.041 110.715 135.33 100.375 135.417C112.875 145.792 109.625 161.458 122.167 159.958C139.333 157.875 136.375 135.583 129.167 126Z" fill="#FF6242"/>
<path d="M124.333 159.541C139.042 155.916 136.042 135.166 129.125 126.208C127.207 127.595 125.188 128.834 123.083 129.916C127.583 137.958 129.667 152 124.333 159.541Z" fill="#FF866E"/>
<path d="M129.167 126C120.774 132.041 110.715 135.33 100.375 135.417C112.875 145.792 109.625 161.458 122.167 159.958C139.333 157.875 136.375 135.583 129.167 126Z" stroke="#45413C" stroke-width="4.16667" stroke-linecap="round" stroke-linejoin="round"/>
</svg>
