<svg xmlns="http://www.w3.org/2000/svg" xmlns:xlink="http://www.w3.org/1999/xlink" width="500" zoomAndPan="magnify" viewBox="0 0 375 374.999991" height="500" preserveAspectRatio="xMidYMid meet" version="1.0"><defs><g/><clipPath id="f0e6d226e1"><path d="M 42 146.449219 L 51 146.449219 L 51 156 L 42 156 Z M 42 146.449219 " clip-rule="nonzero"/></clipPath></defs><g fill="#ffffff" fill-opacity="1"><g transform="translate(96.492365, 120.665889)"><g><path d="M 42.265625 -44.046875 C 41.929688 -40.359375 40.710938 -37.082031 38.609375 -34.21875 C 36.515625 -31.351562 33.851562 -29.039062 30.625 -27.28125 C 32.195312 -26.8125 33.535156 -26.132812 34.640625 -25.25 C 35.742188 -24.375 36.632812 -23.335938 37.3125 -22.140625 C 37.988281 -20.941406 38.460938 -19.613281 38.734375 -18.15625 C 39.003906 -16.695312 39.066406 -15.1875 38.921875 -13.625 C 38.648438 -10.582031 37.695312 -7.988281 36.0625 -5.84375 C 34.4375 -3.695312 32.429688 -1.984375 30.046875 -0.703125 C 27.660156 0.566406 25.050781 1.4375 22.21875 1.90625 C 19.394531 2.375 16.617188 2.488281 13.890625 2.25 C 12.390625 2.101562 10.898438 1.851562 9.421875 1.5 C 7.941406 1.15625 6.5625 0.648438 5.28125 -0.015625 C 4.800781 -0.210938 4.453125 -0.898438 4.234375 -2.078125 C 4.015625 -3.265625 3.882812 -4.695312 3.84375 -6.375 C 3.8125 -8.0625 3.828125 -9.875 3.890625 -11.8125 C 3.960938 -13.75 4.050781 -15.601562 4.15625 -17.375 C 4.269531 -19.144531 4.382812 -20.695312 4.5 -22.03125 C 4.625 -23.375 4.710938 -24.3125 4.765625 -24.84375 C 4.941406 -26.726562 5.113281 -28.617188 5.28125 -30.515625 C 5.457031 -32.410156 5.679688 -34.296875 5.953125 -36.171875 C 5.992188 -36.660156 6.078125 -37.410156 6.203125 -38.421875 C 6.328125 -39.429688 6.457031 -40.566406 6.59375 -41.828125 C 6.738281 -43.085938 6.914062 -44.40625 7.125 -45.78125 C 7.332031 -47.164062 7.554688 -48.457031 7.796875 -49.65625 C 8.046875 -50.851562 8.332031 -51.867188 8.65625 -52.703125 C 8.976562 -53.546875 9.3125 -54.054688 9.65625 -54.234375 C 10.945312 -54.921875 12.375 -55.5625 13.9375 -56.15625 C 15.507812 -56.75 17.125 -57.238281 18.78125 -57.625 C 20.445312 -58.007812 22.097656 -58.289062 23.734375 -58.46875 C 25.367188 -58.644531 26.90625 -58.664062 28.34375 -58.53125 C 30.320312 -58.351562 32.210938 -57.894531 34.015625 -57.15625 C 35.816406 -56.425781 37.347656 -55.4375 38.609375 -54.1875 C 39.878906 -52.9375 40.851562 -51.457031 41.53125 -49.75 C 42.207031 -48.050781 42.453125 -46.148438 42.265625 -44.046875 Z M 28.53125 -41.015625 C 28.613281 -41.921875 28.394531 -42.613281 27.875 -43.09375 C 27.351562 -43.582031 26.632812 -43.863281 25.71875 -43.9375 C 24.976562 -44.007812 24.175781 -43.921875 23.3125 -43.671875 C 22.445312 -43.429688 21.691406 -43.066406 21.046875 -42.578125 C 20.890625 -42.429688 20.707031 -41.988281 20.5 -41.25 C 20.300781 -40.507812 20.113281 -39.675781 19.9375 -38.75 C 19.769531 -37.820312 19.632812 -36.941406 19.53125 -36.109375 C 19.4375 -35.273438 19.375 -34.722656 19.34375 -34.453125 C 19.332031 -34.347656 19.316406 -34.175781 19.296875 -33.9375 C 19.273438 -33.695312 19.265625 -33.441406 19.265625 -33.171875 C 19.273438 -32.910156 19.296875 -32.664062 19.328125 -32.4375 C 19.367188 -32.21875 19.441406 -32.101562 19.546875 -32.09375 C 20.453125 -32.007812 21.414062 -32.257812 22.4375 -32.84375 C 23.46875 -33.4375 24.414062 -34.191406 25.28125 -35.109375 C 26.15625 -36.035156 26.894531 -37.035156 27.5 -38.109375 C 28.113281 -39.191406 28.457031 -40.160156 28.53125 -41.015625 Z M 26.109375 -17.8125 C 26.191406 -18.71875 25.925781 -19.382812 25.3125 -19.8125 C 24.695312 -20.25 23.988281 -20.503906 23.1875 -20.578125 C 22.4375 -20.640625 21.628906 -20.535156 20.765625 -20.265625 C 19.898438 -19.992188 19.1875 -19.644531 18.625 -19.21875 C 18.445312 -19.132812 18.296875 -18.878906 18.171875 -18.453125 C 18.054688 -18.023438 17.960938 -17.554688 17.890625 -17.046875 C 17.816406 -16.546875 17.742188 -16.066406 17.671875 -15.609375 C 17.609375 -15.160156 17.566406 -14.851562 17.546875 -14.6875 C 17.535156 -14.582031 17.515625 -14.367188 17.484375 -14.046875 C 17.460938 -13.722656 17.445312 -13.382812 17.4375 -13.03125 C 17.4375 -12.6875 17.460938 -12.363281 17.515625 -12.0625 C 17.566406 -11.757812 17.644531 -11.609375 17.75 -11.609375 C 18.5 -11.535156 19.347656 -11.671875 20.296875 -12.015625 C 21.253906 -12.359375 22.148438 -12.816406 22.984375 -13.390625 C 23.816406 -13.960938 24.523438 -14.640625 25.109375 -15.421875 C 25.703125 -16.210938 26.035156 -17.007812 26.109375 -17.8125 Z M 26.109375 -17.8125 "/></g></g></g><g fill="#ffffff" fill-opacity="1"><g transform="translate(136.674896, 124.395344)"><g><path d="M 47.109375 -25.921875 C 46.984375 -23.710938 46.753906 -21.441406 46.421875 -19.109375 C 46.085938 -16.785156 45.59375 -14.535156 44.9375 -12.359375 C 44.28125 -10.179688 43.429688 -8.132812 42.390625 -6.21875 C 41.347656 -4.3125 40.0625 -2.65625 38.53125 -1.25 C 37.007812 0.144531 35.203125 1.21875 33.109375 1.96875 C 31.023438 2.71875 28.613281 3.023438 25.875 2.890625 C 21.84375 2.679688 18.382812 1.5625 15.5 -0.46875 C 12.625 -2.507812 10.265625 -5.046875 8.421875 -8.078125 C 6.585938 -11.117188 5.28125 -14.476562 4.5 -18.15625 C 3.71875 -21.832031 3.421875 -25.441406 3.609375 -28.984375 C 3.628906 -29.359375 3.644531 -29.707031 3.65625 -30.03125 C 3.675781 -30.351562 3.722656 -30.648438 3.796875 -30.921875 C 3.910156 -32.035156 4.082031 -33.554688 4.3125 -35.484375 C 4.550781 -37.421875 4.890625 -39.484375 5.328125 -41.671875 C 5.765625 -43.859375 6.300781 -46.09375 6.9375 -48.375 C 7.570312 -50.65625 8.347656 -52.6875 9.265625 -54.46875 C 10.191406 -56.257812 11.273438 -57.71875 12.515625 -58.84375 C 13.765625 -59.96875 15.195312 -60.484375 16.8125 -60.390625 C 18 -60.335938 18.972656 -59.9375 19.734375 -59.1875 C 20.503906 -58.445312 21.117188 -57.535156 21.578125 -56.453125 C 22.035156 -55.378906 22.335938 -54.257812 22.484375 -53.09375 C 22.640625 -51.925781 22.691406 -50.863281 22.640625 -49.90625 C 22.566406 -48.445312 22.34375 -46.984375 21.96875 -45.515625 C 21.59375 -44.054688 21.238281 -42.609375 20.90625 -41.171875 C 20.34375 -38.898438 19.867188 -36.609375 19.484375 -34.296875 C 19.097656 -31.992188 18.84375 -29.640625 18.71875 -27.234375 C 18.65625 -25.992188 18.640625 -24.484375 18.671875 -22.703125 C 18.710938 -20.921875 18.960938 -19.195312 19.421875 -17.53125 C 19.878906 -15.875 20.570312 -14.441406 21.5 -13.234375 C 22.4375 -12.023438 23.765625 -11.375 25.484375 -11.28125 C 27.148438 -11.195312 28.503906 -11.691406 29.546875 -12.765625 C 30.597656 -13.847656 31.40625 -15.15625 31.96875 -16.6875 C 32.539062 -18.21875 32.9375 -19.835938 33.15625 -21.546875 C 33.382812 -23.265625 33.53125 -24.742188 33.59375 -25.984375 C 33.78125 -29.523438 33.671875 -33.039062 33.265625 -36.53125 C 32.859375 -40.019531 32.257812 -43.515625 31.46875 -47.015625 C 31.25 -47.953125 31.070312 -48.878906 30.9375 -49.796875 C 30.800781 -50.710938 30.753906 -51.628906 30.796875 -52.546875 C 30.878906 -54.054688 31.390625 -55.351562 32.328125 -56.4375 C 33.265625 -57.519531 34.539062 -58.019531 36.15625 -57.9375 C 37.5 -57.863281 38.722656 -57.269531 39.828125 -56.15625 C 40.929688 -55.039062 41.894531 -53.613281 42.71875 -51.875 C 43.539062 -50.132812 44.234375 -48.195312 44.796875 -46.0625 C 45.359375 -43.9375 45.828125 -41.828125 46.203125 -39.734375 C 46.578125 -37.648438 46.835938 -35.660156 46.984375 -33.765625 C 47.128906 -31.867188 47.195312 -30.328125 47.1875 -29.140625 C 47.21875 -28.597656 47.21875 -28.070312 47.1875 -27.5625 C 47.164062 -27.050781 47.140625 -26.503906 47.109375 -25.921875 Z M 47.109375 -25.921875 "/></g></g></g><g fill="#ffffff" fill-opacity="1"><g transform="translate(186.247012, 126.874081)"><g><path d="M 38.734375 -47.1875 C 38.679688 -43.476562 37.722656 -40.113281 35.859375 -37.09375 C 33.992188 -34.082031 31.515625 -31.578125 28.421875 -29.578125 C 30.023438 -29.234375 31.410156 -28.660156 32.578125 -27.859375 C 33.753906 -27.066406 34.726562 -26.097656 35.5 -24.953125 C 36.269531 -23.816406 36.84375 -22.53125 37.21875 -21.09375 C 37.601562 -19.664062 37.785156 -18.171875 37.765625 -16.609375 C 37.722656 -13.546875 36.972656 -10.878906 35.515625 -8.609375 C 34.054688 -6.335938 32.1875 -4.472656 29.90625 -3.015625 C 27.625 -1.566406 25.09375 -0.5 22.3125 0.1875 C 19.53125 0.875 16.769531 1.195312 14.03125 1.15625 C 12.519531 1.132812 11.015625 1.003906 9.515625 0.765625 C 8.015625 0.535156 6.59375 0.144531 5.25 -0.40625 C 4.769531 -0.570312 4.375 -1.238281 4.0625 -2.40625 C 3.757812 -3.570312 3.523438 -4.988281 3.359375 -6.65625 C 3.191406 -8.320312 3.066406 -10.125 2.984375 -12.0625 C 2.898438 -14.007812 2.84375 -15.867188 2.8125 -17.640625 C 2.789062 -19.421875 2.785156 -20.984375 2.796875 -22.328125 C 2.816406 -23.671875 2.832031 -24.613281 2.84375 -25.15625 C 2.863281 -27.039062 2.882812 -28.9375 2.90625 -30.84375 C 2.9375 -32.75 3.019531 -34.644531 3.15625 -36.53125 C 3.15625 -37.019531 3.175781 -37.773438 3.21875 -38.796875 C 3.269531 -39.816406 3.316406 -40.957031 3.359375 -42.21875 C 3.398438 -43.488281 3.46875 -44.816406 3.5625 -46.203125 C 3.664062 -47.597656 3.789062 -48.898438 3.9375 -50.109375 C 4.09375 -51.328125 4.296875 -52.363281 4.546875 -53.21875 C 4.804688 -54.070312 5.097656 -54.609375 5.421875 -54.828125 C 6.671875 -55.609375 8.050781 -56.351562 9.5625 -57.0625 C 11.082031 -57.769531 12.65625 -58.378906 14.28125 -58.890625 C 15.90625 -59.410156 17.523438 -59.820312 19.140625 -60.125 C 20.765625 -60.425781 22.300781 -60.566406 23.75 -60.546875 C 25.738281 -60.523438 27.65625 -60.21875 29.5 -59.625 C 31.351562 -59.039062 32.957031 -58.171875 34.3125 -57.015625 C 35.664062 -55.867188 36.75 -54.46875 37.5625 -52.8125 C 38.375 -51.164062 38.765625 -49.289062 38.734375 -47.1875 Z M 25.296875 -43.09375 C 25.304688 -44.007812 25.03125 -44.6875 24.46875 -45.125 C 23.90625 -45.5625 23.164062 -45.785156 22.25 -45.796875 C 21.5 -45.804688 20.703125 -45.65625 19.859375 -45.34375 C 19.023438 -45.03125 18.304688 -44.609375 17.703125 -44.078125 C 17.546875 -43.921875 17.394531 -43.46875 17.25 -42.71875 C 17.101562 -41.96875 16.984375 -41.117188 16.890625 -40.171875 C 16.796875 -39.234375 16.726562 -38.347656 16.6875 -37.515625 C 16.65625 -36.679688 16.632812 -36.128906 16.625 -35.859375 C 16.625 -35.753906 16.617188 -35.578125 16.609375 -35.328125 C 16.609375 -35.085938 16.617188 -34.832031 16.640625 -34.5625 C 16.671875 -34.300781 16.710938 -34.0625 16.765625 -33.84375 C 16.816406 -33.625 16.894531 -33.515625 17 -33.515625 C 17.914062 -33.492188 18.863281 -33.816406 19.84375 -34.484375 C 20.820312 -35.148438 21.707031 -35.972656 22.5 -36.953125 C 23.300781 -37.941406 23.960938 -39 24.484375 -40.125 C 25.003906 -41.25 25.273438 -42.238281 25.296875 -43.09375 Z M 24.640625 -19.765625 C 24.660156 -20.679688 24.347656 -21.332031 23.703125 -21.71875 C 23.066406 -22.101562 22.347656 -22.300781 21.546875 -22.3125 C 20.785156 -22.320312 19.984375 -22.15625 19.140625 -21.8125 C 18.304688 -21.476562 17.617188 -21.070312 17.078125 -20.59375 C 16.910156 -20.5 16.785156 -20.234375 16.703125 -19.796875 C 16.617188 -19.367188 16.554688 -18.898438 16.515625 -18.390625 C 16.472656 -17.878906 16.4375 -17.394531 16.40625 -16.9375 C 16.375 -16.476562 16.359375 -16.164062 16.359375 -16 C 16.359375 -15.894531 16.351562 -15.679688 16.34375 -15.359375 C 16.34375 -15.035156 16.351562 -14.695312 16.375 -14.34375 C 16.394531 -14 16.441406 -13.675781 16.515625 -13.375 C 16.597656 -13.082031 16.691406 -12.9375 16.796875 -12.9375 C 17.554688 -12.925781 18.394531 -13.128906 19.3125 -13.546875 C 20.238281 -13.960938 21.09375 -14.488281 21.875 -15.125 C 22.664062 -15.757812 23.320312 -16.488281 23.84375 -17.3125 C 24.363281 -18.144531 24.628906 -18.960938 24.640625 -19.765625 Z M 24.640625 -19.765625 "/></g></g></g><g fill="#ffffff" fill-opacity="1"><g transform="translate(226.485674, 127.402219)"><g><path d="M 37.078125 -48.484375 C 37.148438 -44.773438 36.304688 -41.382812 34.546875 -38.3125 C 32.796875 -35.238281 30.410156 -32.648438 27.390625 -30.546875 C 29.003906 -30.253906 30.410156 -29.726562 31.609375 -28.96875 C 32.804688 -28.21875 33.804688 -27.285156 34.609375 -26.171875 C 35.410156 -25.054688 36.023438 -23.789062 36.453125 -22.375 C 36.890625 -20.957031 37.125 -19.46875 37.15625 -17.90625 C 37.21875 -14.84375 36.5625 -12.148438 35.1875 -9.828125 C 33.8125 -7.515625 32.007812 -5.59375 29.78125 -4.0625 C 27.550781 -2.53125 25.054688 -1.367188 22.296875 -0.578125 C 19.546875 0.203125 16.800781 0.617188 14.0625 0.671875 C 12.550781 0.703125 11.039062 0.625 9.53125 0.4375 C 8.019531 0.257812 6.585938 -0.0820312 5.234375 -0.59375 C 4.742188 -0.738281 4.320312 -1.390625 3.96875 -2.546875 C 3.625 -3.703125 3.34375 -5.109375 3.125 -6.765625 C 2.90625 -8.429688 2.71875 -10.234375 2.5625 -12.171875 C 2.414062 -14.109375 2.296875 -15.960938 2.203125 -17.734375 C 2.117188 -19.503906 2.0625 -21.0625 2.03125 -22.40625 C 2 -23.75 1.976562 -24.691406 1.96875 -25.234375 C 1.925781 -27.117188 1.882812 -29.015625 1.84375 -30.921875 C 1.8125 -32.828125 1.828125 -34.722656 1.890625 -36.609375 C 1.878906 -37.097656 1.878906 -37.851562 1.890625 -38.875 C 1.898438 -39.894531 1.90625 -41.035156 1.90625 -42.296875 C 1.90625 -43.566406 1.925781 -44.898438 1.96875 -46.296875 C 2.019531 -47.691406 2.097656 -49 2.203125 -50.21875 C 2.316406 -51.4375 2.488281 -52.476562 2.71875 -53.34375 C 2.945312 -54.207031 3.21875 -54.75 3.53125 -54.96875 C 4.738281 -55.800781 6.09375 -56.597656 7.59375 -57.359375 C 9.09375 -58.117188 10.640625 -58.78125 12.234375 -59.34375 C 13.835938 -59.914062 15.441406 -60.378906 17.046875 -60.734375 C 18.660156 -61.097656 20.191406 -61.296875 21.640625 -61.328125 C 23.628906 -61.367188 25.554688 -61.125 27.421875 -60.59375 C 29.296875 -60.070312 30.925781 -59.257812 32.3125 -58.15625 C 33.707031 -57.0625 34.835938 -55.703125 35.703125 -54.078125 C 36.578125 -52.453125 37.035156 -50.585938 37.078125 -48.484375 Z M 23.796875 -43.921875 C 23.773438 -44.835938 23.472656 -45.503906 22.890625 -45.921875 C 22.316406 -46.347656 21.570312 -46.550781 20.65625 -46.53125 C 19.90625 -46.519531 19.113281 -46.34375 18.28125 -46 C 17.457031 -45.65625 16.753906 -45.207031 16.171875 -44.65625 C 16.023438 -44.5 15.890625 -44.039062 15.765625 -43.28125 C 15.648438 -42.519531 15.5625 -41.664062 15.5 -40.71875 C 15.4375 -39.78125 15.398438 -38.894531 15.390625 -38.0625 C 15.378906 -37.226562 15.375 -36.675781 15.375 -36.40625 C 15.382812 -36.300781 15.390625 -36.125 15.390625 -35.875 C 15.398438 -35.632812 15.421875 -35.378906 15.453125 -35.109375 C 15.484375 -34.847656 15.53125 -34.609375 15.59375 -34.390625 C 15.65625 -34.179688 15.738281 -34.078125 15.84375 -34.078125 C 16.757812 -34.097656 17.691406 -34.453125 18.640625 -35.140625 C 19.597656 -35.835938 20.457031 -36.691406 21.21875 -37.703125 C 21.976562 -38.710938 22.597656 -39.785156 23.078125 -40.921875 C 23.566406 -42.066406 23.804688 -43.066406 23.796875 -43.921875 Z M 23.953125 -20.609375 C 23.929688 -21.523438 23.59375 -22.160156 22.9375 -22.515625 C 22.289062 -22.878906 21.566406 -23.054688 20.765625 -23.046875 C 20.003906 -23.023438 19.207031 -22.832031 18.375 -22.46875 C 17.550781 -22.101562 16.878906 -21.675781 16.359375 -21.1875 C 16.191406 -21.070312 16.070312 -20.796875 16 -20.359375 C 15.9375 -19.929688 15.894531 -19.460938 15.875 -18.953125 C 15.851562 -18.441406 15.832031 -17.957031 15.8125 -17.5 C 15.800781 -17.039062 15.796875 -16.726562 15.796875 -16.5625 C 15.796875 -16.457031 15.800781 -16.242188 15.8125 -15.921875 C 15.820312 -15.597656 15.84375 -15.257812 15.875 -14.90625 C 15.90625 -14.5625 15.960938 -14.238281 16.046875 -13.9375 C 16.140625 -13.644531 16.238281 -13.5 16.34375 -13.5 C 17.101562 -13.519531 17.9375 -13.753906 18.84375 -14.203125 C 19.75 -14.660156 20.582031 -15.21875 21.34375 -15.875 C 22.113281 -16.539062 22.742188 -17.296875 23.234375 -18.140625 C 23.734375 -18.984375 23.972656 -19.804688 23.953125 -20.609375 Z M 23.953125 -20.609375 "/></g></g></g><g fill="#ffffff" fill-opacity="1"><g transform="translate(266.733439, 126.549045)"><g><path d="M 40.234375 -13.421875 C 40.304688 -12.078125 39.820312 -10.78125 38.78125 -9.53125 C 37.75 -8.28125 36.390625 -7.125 34.703125 -6.0625 C 33.015625 -5 31.113281 -4.046875 29 -3.203125 C 26.882812 -2.359375 24.796875 -1.617188 22.734375 -0.984375 C 20.671875 -0.359375 18.722656 0.140625 16.890625 0.515625 C 15.054688 0.890625 13.601562 1.101562 12.53125 1.15625 C 11.5 1.21875 10.398438 1.1875 9.234375 1.0625 C 8.066406 0.9375 7.085938 0.570312 6.296875 -0.03125 C 5.847656 -0.320312 5.429688 -1.023438 5.046875 -2.140625 C 4.671875 -3.253906 4.289062 -4.582031 3.90625 -6.125 C 3.519531 -7.664062 3.164062 -9.328125 2.84375 -11.109375 C 2.53125 -12.898438 2.257812 -14.648438 2.03125 -16.359375 C 1.800781 -18.078125 1.601562 -19.660156 1.4375 -21.109375 C 1.28125 -22.554688 1.175781 -23.679688 1.125 -24.484375 C 1.050781 -25.816406 1.003906 -27.441406 0.984375 -29.359375 C 0.960938 -31.273438 0.96875 -33.328125 1 -35.515625 C 1.039062 -37.703125 1.128906 -39.925781 1.265625 -42.1875 C 1.410156 -44.445312 1.597656 -46.597656 1.828125 -48.640625 C 2.054688 -50.679688 2.382812 -52.519531 2.8125 -54.15625 C 3.238281 -55.800781 3.71875 -57.097656 4.25 -58.046875 C 5.195312 -59.546875 6.445312 -60.34375 8 -60.4375 C 9.082031 -60.5 10.015625 -60.1875 10.796875 -59.5 C 11.585938 -58.820312 12.242188 -57.914062 12.765625 -56.78125 C 13.285156 -55.65625 13.707031 -54.382812 14.03125 -52.96875 C 14.363281 -51.5625 14.617188 -50.160156 14.796875 -48.765625 C 14.984375 -47.367188 15.109375 -46.082031 15.171875 -44.90625 C 15.234375 -43.726562 15.285156 -42.789062 15.328125 -42.09375 C 15.566406 -37.894531 15.707031 -33.734375 15.75 -29.609375 C 15.789062 -25.492188 15.929688 -21.335938 16.171875 -17.140625 L 16.34375 -14.015625 C 18.726562 -14.910156 21.320312 -15.769531 24.125 -16.59375 C 26.9375 -17.414062 29.632812 -17.898438 32.21875 -18.046875 C 33.125 -18.097656 34.050781 -18.097656 35 -18.046875 C 35.945312 -17.992188 36.789062 -17.8125 37.53125 -17.5 C 38.28125 -17.195312 38.898438 -16.722656 39.390625 -16.078125 C 39.890625 -15.429688 40.171875 -14.546875 40.234375 -13.421875 Z M 40.234375 -13.421875 "/></g></g></g><g fill="#ffffff" fill-opacity="1"><g transform="translate(308.127629, 124.191057)"><g><path d="M 36.296875 -16.046875 C 36.390625 -15.023438 36.21875 -14.003906 35.78125 -12.984375 C 35.320312 -12.023438 34.15625 -10.835938 32.28125 -9.421875 C 30.414062 -8.015625 28.328125 -6.648438 26.015625 -5.328125 C 23.703125 -4.015625 21.457031 -2.863281 19.28125 -1.875 C 17.101562 -0.894531 15.476562 -0.359375 14.40625 -0.265625 C 13.644531 -0.191406 12.738281 -0.28125 11.6875 -0.53125 C 10.644531 -0.789062 9.59375 -1.140625 8.53125 -1.578125 C 7.46875 -2.023438 6.484375 -2.5625 5.578125 -3.1875 C 4.679688 -3.8125 4.019531 -4.425781 3.59375 -5.03125 C 3.34375 -5.394531 3.070312 -6.128906 2.78125 -7.234375 C 2.488281 -8.335938 2.207031 -9.632812 1.9375 -11.125 C 1.664062 -12.613281 1.398438 -14.195312 1.140625 -15.875 C 0.878906 -17.550781 0.632812 -19.148438 0.40625 -20.671875 C 0.1875 -22.191406 0.0078125 -23.535156 -0.125 -24.703125 C -0.257812 -25.878906 -0.347656 -26.738281 -0.390625 -27.28125 C -0.578125 -29.257812 -0.71875 -31.539062 -0.8125 -34.125 C -0.914062 -36.71875 -0.894531 -39.328125 -0.75 -41.953125 C -0.613281 -44.585938 -0.296875 -47.128906 0.203125 -49.578125 C 0.710938 -52.035156 1.507812 -54.148438 2.59375 -55.921875 C 2.925781 -56.441406 3.628906 -57.019531 4.703125 -57.65625 C 5.785156 -58.300781 7.066406 -58.929688 8.546875 -59.546875 C 10.023438 -60.160156 11.628906 -60.765625 13.359375 -61.359375 C 15.085938 -61.953125 16.753906 -62.46875 18.359375 -62.90625 C 19.972656 -63.351562 21.441406 -63.734375 22.765625 -64.046875 C 24.085938 -64.367188 25.097656 -64.5625 25.796875 -64.625 C 26.585938 -64.695312 27.363281 -64.585938 28.125 -64.296875 C 28.894531 -64.003906 29.554688 -63.585938 30.109375 -63.046875 C 30.671875 -62.503906 31.132812 -61.882812 31.5 -61.1875 C 31.863281 -60.488281 32.078125 -59.738281 32.140625 -58.9375 C 32.210938 -58.238281 32.175781 -57.640625 32.03125 -57.140625 C 31.882812 -56.648438 31.648438 -56.09375 31.328125 -55.46875 C 30.859375 -54.71875 29.804688 -53.78125 28.171875 -52.65625 C 26.546875 -51.539062 24.773438 -50.421875 22.859375 -49.296875 C 20.941406 -48.179688 19.085938 -47.160156 17.296875 -46.234375 C 15.515625 -45.304688 14.265625 -44.65625 13.546875 -44.28125 C 13.429688 -43.019531 13.3125 -41.75 13.1875 -40.46875 C 13.070312 -39.195312 13.023438 -37.914062 13.046875 -36.625 C 14.617188 -37.613281 16.414062 -38.582031 18.4375 -39.53125 C 20.457031 -40.476562 22.40625 -41.035156 24.28125 -41.203125 C 28.082031 -41.554688 30.15625 -39.851562 30.5 -36.09375 C 30.582031 -35.1875 30.476562 -34.367188 30.1875 -33.640625 C 29.90625 -32.910156 29.507812 -32.253906 29 -31.671875 C 28.5 -31.085938 27.898438 -30.554688 27.203125 -30.078125 C 26.515625 -29.609375 25.84375 -29.15625 25.1875 -28.71875 C 23.550781 -27.644531 21.828125 -26.6875 20.015625 -25.84375 C 18.203125 -25.007812 16.382812 -24.1875 14.5625 -23.375 C 14.5 -22.9375 14.4375 -22.457031 14.375 -21.9375 C 14.3125 -21.425781 14.300781 -20.925781 14.34375 -20.4375 C 14.414062 -19.6875 14.539062 -18.941406 14.71875 -18.203125 C 14.894531 -17.460938 15.066406 -16.722656 15.234375 -15.984375 C 15.859375 -16.253906 16.859375 -16.695312 18.234375 -17.3125 C 19.609375 -17.925781 21.050781 -18.546875 22.5625 -19.171875 C 24.082031 -19.796875 25.550781 -20.347656 26.96875 -20.828125 C 28.382812 -21.304688 29.441406 -21.578125 30.140625 -21.640625 C 30.929688 -21.710938 31.691406 -21.601562 32.421875 -21.3125 C 33.160156 -21.03125 33.796875 -20.628906 34.328125 -20.109375 C 34.859375 -19.597656 35.300781 -18.976562 35.65625 -18.25 C 36.019531 -17.519531 36.234375 -16.785156 36.296875 -16.046875 Z M 36.296875 -16.046875 "/></g></g></g><path stroke-linecap="butt" transform="matrix(0.746909, 0.0680227, -0.0680227, 0.746909, 99.7775, 40.828013)" fill="none" stroke-linejoin="miter" d="M 50.800823 38.394666 C 50.801624 43.342067 49.580121 47.846419 47.141027 51.902061 C 44.701461 55.952516 41.438479 59.345778 37.34595 62.071943 C 39.49813 62.503526 41.364135 63.238356 42.943963 64.276432 C 44.523791 65.314508 45.832523 66.591699 46.869212 68.097631 C 47.911089 69.603091 48.699309 71.309468 49.238587 73.211103 C 49.777866 75.112738 50.047909 77.101652 50.044002 79.183503 C 50.045135 83.273173 49.094145 86.842888 47.196217 89.892175 C 45.293102 92.941935 42.833482 95.451399 39.823016 97.425283 C 36.807363 99.399639 33.453063 100.871388 29.760116 101.84053 C 26.061509 102.804957 22.387345 103.291238 18.726305 103.289945 C 16.718015 103.289798 14.707344 103.148662 12.699006 102.860876 C 10.690669 102.573089 8.788394 102.071678 6.997368 101.35617 C 6.349908 101.137952 5.809852 100.261445 5.381443 98.715805 C 4.953507 97.175352 4.609449 95.292547 4.359644 93.066445 C 4.109839 90.840344 3.911874 88.436934 3.765751 85.856218 C 3.624814 83.275028 3.514072 80.795687 3.444844 78.427622 C 3.370429 76.06003 3.338028 73.981485 3.336794 72.187746 C 3.335561 70.394006 3.336301 69.138766 3.339014 68.422024 C 3.334834 65.906828 3.334897 63.380786 3.338257 60.833525 C 3.33643 58.286735 3.409109 55.75408 3.552051 53.246405 C 3.550532 52.598037 3.568759 51.592239 3.606733 50.229009 C 3.63952 48.866252 3.678411 47.340813 3.713505 45.658823 C 3.748126 43.971646 3.82187 42.197227 3.929079 40.330853 C 4.036288 38.464479 4.181241 36.725414 4.358279 35.108945 C 4.540976 33.497191 4.791611 32.114594 5.110658 30.966341 C 5.434892 29.817616 5.813894 29.097984 6.24295 28.813104 C 7.891752 27.737254 9.723049 26.712772 11.732126 25.745317 C 13.741203 24.777863 15.819145 23.934884 17.971139 23.215908 C 20.128793 22.501646 22.27798 21.924133 24.430021 21.492797 C 26.582534 21.066648 28.628512 20.848936 30.563714 20.850509 C 33.220372 20.849136 35.786085 21.227368 38.260379 21.980017 C 40.734673 22.732667 42.88791 23.864958 44.719617 25.371705 C 46.551324 26.878451 48.021413 28.721465 49.130831 30.911119 C 50.245435 33.1003 50.802257 35.596545 50.800823 38.394666 Z M 32.93178 44.096124 C 32.935827 42.877191 32.556092 41.980854 31.802949 41.406169 C 31.049806 40.831483 30.061411 40.544946 28.84295 40.546087 C 27.838569 40.54342 26.780939 40.760028 25.669588 41.190724 C 24.558237 41.621421 23.60629 42.194496 22.819405 42.914666 C 22.603474 43.127837 22.402697 43.7371 22.227446 44.741509 C 22.047009 45.746391 21.904316 46.878582 21.793707 48.133369 C 21.688285 49.387684 21.61303 50.571262 21.578316 51.68316 C 21.543602 52.795058 21.527217 53.533964 21.523031 53.889978 C 21.525884 54.036155 21.525921 54.266267 21.524088 54.590687 C 21.527441 54.914635 21.542585 55.253198 21.580366 55.61062 C 21.613433 55.973701 21.668655 56.292924 21.74179 56.579138 C 21.81021 56.87101 21.92246 57.012454 22.06345 57.010073 C 23.282383 57.01412 24.538493 56.56501 25.832255 55.667931 C 27.12083 54.771324 28.290069 53.65547 29.330545 52.331688 C 30.370548 51.002719 31.229936 49.585601 31.913898 48.079862 C 32.592672 46.574595 32.931966 45.246682 32.93178 44.096124 Z M 32.501112 75.200884 C 32.505158 73.981951 32.071202 73.121932 31.209616 72.619881 C 30.353218 72.117357 29.38369 71.865711 28.30622 71.864471 C 27.301838 71.861805 26.240911 72.099633 25.132394 72.56145 C 24.019163 73.028927 23.102579 73.588322 22.387357 74.233977 C 22.17 74.374059 22.009263 74.733871 21.899487 75.308696 C 21.794898 75.883049 21.721439 76.512096 21.689013 77.189705 C 21.651871 77.872973 21.616611 78.51946 21.578043 79.12964 C 21.544662 79.739347 21.524925 80.154306 21.523545 80.368857 C 21.525925 80.509847 21.525972 80.797487 21.523212 81.226589 C 21.526112 81.660406 21.545989 82.108366 21.577657 82.570942 C 21.614984 83.038232 21.685785 83.471095 21.794775 83.86387 C 21.904237 84.261833 22.026397 84.454673 22.173046 84.457007 C 23.176955 84.454487 24.285972 84.17044 25.509526 83.593548 C 26.728366 83.022315 27.855231 82.302562 28.896253 81.44419 C 29.936803 80.580631 30.799091 79.59733 31.482173 78.483913 C 32.160068 77.370968 32.505058 76.277881 32.501112 75.200884 Z M 32.501112 75.200884 " stroke="#1d2c4e" stroke-width="4.1331" stroke-opacity="1" stroke-miterlimit="4"/><path stroke-linecap="butt" transform="matrix(0.748979, 0.0391112, -0.0391112, 0.748979, 137.011049, 44.346259)" fill="none" stroke-linejoin="miter" d="M 60.917382 64.225019 C 60.91453 67.166671 60.775318 70.193674 60.484687 73.317247 C 60.199256 76.440548 59.695143 79.47096 58.977819 82.413413 C 58.260495 85.355866 57.273874 88.135056 56.017956 90.750985 C 54.76231 93.372114 53.166261 95.666801 51.230079 97.640247 C 49.293898 99.613692 46.960684 101.17499 44.235638 102.323868 C 41.510592 103.472746 38.317407 104.046295 34.656082 104.044516 C 29.273728 104.043946 24.592674 102.791559 20.612376 100.276953 C 16.627148 97.76782 13.309323 94.55626 10.653971 90.647747 C 7.998347 86.734033 6.027821 82.356878 4.737192 77.516554 C 3.446292 72.671029 2.799762 67.880518 2.797603 63.14502 C 2.797535 62.644342 2.799368 62.180073 2.79763 61.747283 C 2.796163 61.319695 2.832735 60.921412 2.907888 60.562839 C 2.975301 59.057275 3.103159 57.011365 3.281332 54.430854 C 3.464435 51.84487 3.768878 49.085656 4.199318 46.142538 C 4.629759 43.19942 5.18177 40.187368 5.865483 37.100638 C 6.549196 34.013909 7.443009 31.255211 8.556782 28.813599 C 9.670555 26.371987 11.015736 24.366818 12.591782 22.78769 C 14.173029 21.20829 16.03536 20.417388 18.189451 20.419642 C 19.769774 20.420565 21.092588 20.883463 22.168839 21.818193 C 23.24509 22.752924 24.124698 23.916971 24.807935 25.315536 C 25.491173 26.714101 25.974821 28.185674 26.25888 29.730254 C 26.547868 31.269362 26.689632 32.685771 26.689374 33.979211 C 26.691588 35.919236 26.496154 37.869581 26.098687 39.846123 C 25.706149 41.817192 25.3284 43.771842 24.970641 45.709802 C 24.396426 48.796029 23.926507 51.882025 23.571288 54.967248 C 23.210867 58.052741 23.031363 61.207019 23.033319 64.440484 C 23.030725 66.088695 23.119961 68.097191 23.301027 70.465972 C 23.482093 72.834753 23.929549 75.111392 24.648869 77.300818 C 25.362988 79.490516 26.38849 81.351028 27.715785 82.8985 C 29.042809 84.440772 30.851119 85.212105 33.151116 85.211955 C 35.372822 85.210679 37.148362 84.455602 38.478007 82.951925 C 39.80218 81.443319 40.788121 79.64988 41.435561 77.566408 C 42.083273 75.488136 42.495611 73.296985 42.673118 71.003357 C 42.855828 68.709458 42.945607 66.733337 42.942999 65.085398 C 42.94084 60.3499 42.550217 55.66598 41.760999 51.039383 C 40.971781 46.412785 39.927702 41.799497 38.639708 37.209376 C 38.278595 35.986961 37.974967 34.766759 37.723623 33.549042 C 37.472279 32.331326 37.346037 31.112292 37.344896 29.891941 C 37.344081 27.878828 37.940744 26.121363 39.124211 24.614889 C 40.307678 23.108415 41.973721 22.35384 44.127811 22.356095 C 45.921929 22.356285 47.590932 23.056661 49.129618 24.457494 C 50.673234 25.852854 52.057078 27.684222 53.275406 29.941468 C 54.494005 32.203916 55.554543 34.735388 56.451548 37.530957 C 57.348824 40.331727 58.11964 43.107807 58.764812 45.874803 C 59.409713 48.636597 59.896715 51.271035 60.215689 53.783862 C 60.539863 56.296418 60.735297 58.341092 60.807191 59.917613 C 60.881082 60.633483 60.917748 61.335652 60.91692 62.018916 C 60.91582 62.69698 60.917708 63.432257 60.917382 64.225019 Z M 60.917382 64.225019 " stroke="#1d2c4e" stroke-width="4.1331" stroke-opacity="1" stroke-miterlimit="4"/><path stroke-linecap="butt" transform="matrix(0.749931, 0.0101413, -0.0101413, 0.749931, 183.628236, 46.727901)" fill="none" stroke-linejoin="miter" d="M 50.80072 38.39294 C 50.799922 43.34132 49.579496 47.847817 47.139301 51.902017 C 44.699105 55.956217 41.437329 59.344381 37.348834 62.071789 C 39.500669 62.501065 41.364948 63.236341 42.941672 64.277616 C 44.523604 65.318821 45.832619 66.592904 46.873923 68.099795 C 47.910019 69.606757 48.698744 71.309789 49.240098 73.208893 C 49.776314 75.113275 50.048056 77.104574 50.044909 79.182932 C 50.048114 83.271804 49.096306 86.842292 47.194693 89.894326 C 45.293009 92.941152 42.837176 95.453756 39.821915 97.426999 C 36.806654 99.400243 33.456396 100.867553 29.760867 101.839487 C 26.065268 102.806213 22.384021 103.293534 18.7274 103.290894 C 16.716815 103.292039 14.709466 103.147294 12.700216 102.861936 C 10.690965 102.576578 8.788122 102.071012 6.997034 101.355582 C 6.348231 101.140377 5.810265 100.262154 5.383066 98.715706 C 4.950729 97.174536 4.607555 95.293587 4.358683 93.067582 C 4.109811 90.841577 3.910623 88.4378 3.766327 85.856182 C 3.622031 83.274564 3.515598 80.79661 3.441892 78.427598 C 3.373464 76.063724 3.334878 73.980722 3.336691 72.188867 C 3.338433 70.391804 3.337084 69.136499 3.337851 68.422881 C 3.335083 65.907064 3.337382 63.38076 3.334191 60.833695 C 3.336208 58.28656 3.406138 55.754133 3.54933 53.246759 C 3.551013 52.600844 3.568668 51.595305 3.607503 50.230071 C 3.641201 48.870116 3.677853 47.34344 3.712321 45.655319 C 3.74686 43.972406 3.821794 42.195189 3.926778 40.329015 C 4.03697 38.462771 4.18017 36.726301 4.361445 35.109119 C 4.537582 33.497215 4.789728 32.113471 5.112815 30.968372 C 5.435832 29.818066 5.811565 29.099378 6.240015 28.812308 C 7.892303 27.737785 9.722363 26.712946 11.730335 25.748206 C 13.738236 24.778259 15.820738 23.932314 17.972703 23.215651 C 20.124668 22.498987 22.278604 21.928143 24.429164 21.492774 C 26.585002 21.062542 28.629155 20.847382 30.56683 20.847223 C 33.22333 20.847761 35.785951 21.224603 38.259902 21.977678 C 40.739061 22.730683 42.889987 23.863161 44.717819 25.369833 C 46.550858 26.876435 48.018718 28.726548 49.131742 30.914823 C 50.244766 33.103098 50.799356 35.595827 50.80072 38.39294 Z M 32.933528 44.098598 C 32.932601 42.87454 32.555867 41.978511 31.803256 41.405301 C 31.050645 40.832092 30.062275 40.543347 28.843425 40.544203 C 27.838168 40.547379 26.783649 40.759574 25.669594 41.191344 C 24.555539 41.623115 23.604828 42.193314 22.817604 42.912357 C 22.601761 43.128837 22.406824 43.735695 22.222518 44.743488 C 22.043349 45.746002 21.902396 46.87822 21.79438 48.135004 C 21.686293 49.38658 21.613746 50.569961 21.576739 51.685147 C 21.544868 52.795054 21.523551 53.529784 21.523203 53.889197 C 21.525175 54.035017 21.523136 54.269441 21.527502 54.592328 C 21.526661 54.915286 21.541654 55.253656 21.577761 55.612575 C 21.613867 55.971495 21.670312 56.293678 21.741888 56.579194 C 21.813534 56.869919 21.919663 57.01433 22.065483 57.012358 C 23.284333 57.011502 24.538789 56.562207 25.828851 55.664473 C 27.124192 54.771876 28.286308 53.657102 29.325756 52.330426 C 30.370412 51.003679 31.231525 49.585655 31.909095 48.076355 C 32.591943 46.572193 32.933398 45.244538 32.933528 44.098598 Z M 32.505087 75.200986 C 32.504231 73.982136 32.070634 73.118128 31.209643 72.619308 C 30.348583 72.11528 29.381537 71.862708 28.30337 71.86687 C 27.30325 71.864768 26.243805 72.097865 25.130243 72.56609 C 24.01661 73.029107 23.102214 73.588398 22.386914 74.233546 C 22.170085 74.377116 22.008223 74.733503 21.901397 75.307917 C 21.794571 75.882331 21.724904 76.50833 21.687259 77.191193 C 21.649614 77.874056 21.616684 78.520394 21.578053 79.130347 C 21.54463 79.74023 21.524154 80.152003 21.527041 80.365525 C 21.523806 80.511415 21.527679 80.797848 21.523109 81.230241 C 21.523676 81.657355 21.545356 82.10502 21.577733 82.573375 C 21.615319 83.041659 21.688796 83.467788 21.793168 83.867455 C 21.902677 84.261844 22.025134 84.458123 22.170954 84.456151 C 23.176282 84.458182 24.287101 84.172302 25.50855 83.593233 C 26.724861 83.019443 27.855944 82.306167 28.896452 81.44306 C 29.93696 80.579953 30.798711 79.594252 31.481704 78.485957 C 32.164626 77.372455 32.504042 76.279224 32.505087 75.200986 Z M 32.505087 75.200986 " stroke="#1d2c4e" stroke-width="4.1331" stroke-opacity="1" stroke-miterlimit="4"/><path stroke-linecap="butt" transform="matrix(0.749834, -0.0157835, 0.0157835, 0.749834, 221.222568, 47.26599)" fill="none" stroke-linejoin="miter" d="M 50.802324 38.394845 C 50.80234 43.343859 49.58234 47.845223 47.142324 51.898938 C 44.702308 55.952654 41.437527 59.343032 37.347981 62.070073 C 39.50085 62.500892 41.365955 63.238222 42.943405 64.276857 C 44.520855 65.315493 45.832904 66.588178 46.869028 68.099901 C 47.910469 69.606527 48.703007 71.305874 49.241217 73.208246 C 49.779426 75.110619 50.044889 77.101022 50.047911 79.18488 C 50.045184 83.274271 49.094858 86.843604 47.196933 89.89288 C 45.293801 92.942046 42.834156 95.45334 39.823207 97.426871 C 36.807051 99.400293 33.452426 100.871688 29.759332 101.841058 C 26.061142 102.805111 22.388656 103.290432 18.726364 103.291486 C 16.715516 103.290835 14.707627 103.14959 12.6976 102.862434 C 10.69278 102.575388 8.7915 102.071723 6.99365 101.356646 C 6.352234 101.139975 5.81337 100.258648 5.382156 98.717981 C 4.950942 97.177315 4.610386 95.289522 4.36027 93.065016 C 4.110153 90.840509 3.910628 88.439945 3.767011 85.858226 C 3.623504 83.271299 3.514035 80.799698 3.444141 78.42791 C 3.374138 76.061329 3.334557 73.98191 3.335812 72.189873 C 3.337176 70.392629 3.337555 69.13715 3.33706 68.418231 C 3.337819 65.907274 3.338907 63.380695 3.335226 60.833178 C 3.336752 58.285771 3.405643 55.75541 3.552203 53.247522 C 3.550173 52.601503 3.571327 51.596517 3.605252 50.232346 C 3.639176 48.868174 3.676499 47.34258 3.712011 45.655453 C 3.747415 43.973534 3.821351 42.193446 3.928284 40.3307 C 4.035326 38.462747 4.181286 36.725851 4.361175 35.109487 C 4.535857 33.493013 4.788921 32.112616 5.109954 30.968077 C 5.436303 29.81844 5.810834 29.102205 6.244071 28.814384 C 7.892057 27.739452 9.721309 26.715221 11.731715 25.746898 C 13.742122 24.778576 15.822799 23.93676 17.973855 23.216243 C 20.124802 22.500934 22.277996 21.926328 24.433329 21.497633 C 26.583564 21.063622 28.630149 20.851436 30.568097 20.850553 C 33.219758 20.849064 35.785309 21.226055 38.259544 21.981417 C 40.739096 22.731681 42.887692 23.860481 44.720953 25.368146 C 46.549007 26.8757 48.020836 28.724793 49.131343 30.910105 C 50.24174 33.100625 50.798807 35.592067 50.802324 38.394845 Z M 32.933549 44.098191 C 32.933161 42.879163 32.556158 41.980405 31.802431 41.407124 C 31.048703 40.833844 30.064929 40.547452 28.846011 40.542633 C 27.840477 40.547514 26.783694 40.759697 25.670236 41.189484 C 24.556778 41.619272 23.60699 42.193161 22.815666 42.911042 C 22.602665 43.130567 22.402383 43.735861 22.224903 44.742766 C 22.047534 45.744463 21.903874 46.877108 21.794144 48.130284 C 21.684304 49.388668 21.612558 50.569712 21.578688 51.683829 C 21.544817 52.797946 21.524155 53.532049 21.527007 53.891564 C 21.524047 54.032158 21.524322 54.26659 21.527941 54.589655 C 21.526352 54.91261 21.545264 55.251624 21.579358 55.611797 C 21.613453 55.971969 21.669143 56.296129 21.741332 56.578961 C 21.813412 56.867 21.919803 57.009896 22.065604 57.012965 C 23.284632 57.012577 24.539123 56.56492 25.829185 55.664786 C 27.124344 54.769969 28.288611 53.658808 29.327193 52.331412 C 30.370981 51.004126 31.229175 49.584372 31.912078 48.077576 C 32.594981 46.570781 32.935471 45.244319 32.933549 44.098191 Z M 32.50288 75.200185 C 32.502493 73.981157 32.072651 73.117753 31.213136 72.620388 C 30.348523 72.117706 29.379713 71.862886 28.306485 71.866343 C 27.301061 71.866017 26.24384 72.099028 25.129615 72.565267 C 24.020596 73.031614 23.10249 73.585332 22.385601 74.231847 C 22.169037 74.373154 22.010357 74.734478 21.904461 75.310502 C 21.793468 75.88121 21.722926 76.510073 21.687739 77.191775 C 21.652551 77.873477 21.612924 78.518619 21.579271 79.127421 C 21.545509 79.74143 21.526436 80.152578 21.527149 80.366182 C 21.52408 80.511983 21.523259 80.798488 21.524685 81.225696 C 21.526002 81.658111 21.542612 82.106476 21.579721 82.570902 C 21.616721 83.040534 21.685841 83.469167 21.792069 83.867324 C 21.903613 84.260384 22.029737 84.45579 22.170331 84.458749 C 23.175755 84.459075 24.286254 84.169881 25.506925 83.596484 C 26.727596 83.023087 27.857606 82.301917 28.896737 81.443386 C 29.935978 80.579649 30.800586 79.597627 31.480475 78.481479 C 32.160255 77.370539 32.50102 76.27851 32.50288 75.200185 Z M 32.50288 75.200185 " stroke="#1d2c4e" stroke-width="4.1331" stroke-opacity="1" stroke-miterlimit="4"/><path stroke-linecap="butt" transform="matrix(0.748818, -0.0420881, 0.0420881, 0.748818, 258.787284, 46.516425)" fill="none" stroke-linejoin="miter" d="M 54.567726 87.146385 C 54.565984 88.940782 53.829624 90.626074 52.358354 92.20746 C 50.887376 93.783647 48.986018 95.220879 46.654863 96.508757 C 44.323417 97.801835 41.724547 98.933818 38.853347 99.899215 C 35.981854 100.869812 33.149746 101.69656 30.351822 102.379165 C 27.554191 103.05657 24.916716 103.576047 22.439398 103.937596 C 19.962372 104.293945 18.011557 104.476424 16.577139 104.474049 C 15.210321 104.475474 13.756624 104.352036 12.216339 104.098533 C 10.670562 103.849937 9.397713 103.293256 8.39259 102.428196 C 7.821989 101.999667 7.318185 101.03237 6.88638 99.526599 C 6.460067 98.01592 6.044337 96.224141 5.650174 94.141448 C 5.25572 92.063955 4.917419 89.822688 4.630072 87.417356 C 4.342726 85.012024 4.109657 82.661908 3.930868 80.367008 C 3.746878 78.071816 3.604952 75.956351 3.500182 74.015121 C 3.38992 72.078798 3.338893 70.573562 3.336701 69.498829 C 3.338442 67.704432 3.392721 65.53218 3.499244 62.987272 C 3.606059 60.437164 3.764413 57.712591 3.980091 54.803443 C 4.195475 51.899495 4.486877 48.942437 4.844188 45.926486 C 5.201498 42.910534 5.61215 40.059294 6.081634 37.367857 C 6.545627 34.681328 7.1201 32.25662 7.804471 30.104133 C 8.483641 27.951354 9.220001 26.266062 10.00835 25.047966 C 11.3744 23.111157 13.093157 22.138367 15.174438 22.140584 C 16.608857 22.142958 17.828597 22.623623 18.833074 23.592978 C 19.837551 24.562332 20.648563 25.818156 21.255712 27.359866 C 21.86806 28.901868 22.334683 30.623475 22.655581 32.524687 C 22.976479 34.4259 23.209559 36.311743 23.355114 38.177018 C 23.500669 40.042292 23.570914 41.762486 23.570756 43.343093 C 23.570597 44.9237 23.568052 46.17553 23.572936 47.109568 C 23.571329 52.70684 23.442349 58.250004 23.191197 63.739353 C 22.940044 69.228701 22.816265 74.772158 22.814658 80.36943 L 22.818872 84.563776 C 26.046896 83.561053 29.558881 82.610806 33.365227 81.713619 C 37.166373 80.81614 40.790995 80.367797 44.233893 80.368296 C 45.454522 80.369087 46.692152 80.438649 47.946491 80.582182 C 49.206029 80.726008 50.315812 81.028346 51.285946 81.494981 C 52.25088 81.961324 53.04175 82.647412 53.65394 83.542552 C 54.26093 84.4374 54.568992 85.638872 54.567726 87.146385 Z M 54.567726 87.146385 " stroke="#1d2c4e" stroke-width="4.1331" stroke-opacity="1" stroke-miterlimit="4"/><path stroke-linecap="butt" transform="matrix(0.746894, -0.0681818, 0.0681818, 0.746894, 297.519916, 44.354656)" fill="none" stroke-linejoin="miter" d="M 50.153067 85.100335 C 50.15397 86.465445 49.797459 87.792698 49.077875 89.086806 C 48.360207 90.30264 46.675798 91.738792 44.019935 93.389603 C 41.364072 95.040413 38.423432 96.602467 35.193302 98.070105 C 31.962698 99.54293 28.84629 100.796059 25.832756 101.83892 C 22.819695 102.876594 20.590999 103.400112 19.157988 103.400046 C 18.154079 103.397312 16.9673 103.163455 15.608023 102.699421 C 14.243559 102.234914 12.880559 101.639791 11.518075 100.924425 C 10.150405 100.208585 8.913394 99.379154 7.800908 98.44603 C 6.693609 97.513379 5.886196 96.618565 5.379142 95.756399 C 5.095462 95.254573 4.826117 94.251978 4.576766 92.743898 C 4.322228 91.235345 4.105978 89.479247 3.928488 87.470419 C 3.750999 85.46159 3.584873 83.328279 3.446145 81.066719 C 3.30223 78.804686 3.174305 76.653942 3.068032 74.609775 C 2.961759 72.565608 2.886519 70.754393 2.853162 69.171891 C 2.814144 67.594102 2.798541 66.44731 2.79598 65.730567 C 2.797919 63.07391 2.887711 60.027792 3.066301 56.581842 C 3.244892 53.135892 3.587114 49.673499 4.087779 46.19419 C 4.593631 42.715355 5.327184 39.377595 6.298339 36.187045 C 7.26478 32.990835 8.573375 30.286098 10.225072 28.062461 C 10.72892 27.412868 11.732614 26.730453 13.236153 26.015218 C 14.744878 25.300457 16.522842 24.615504 18.563911 23.970259 C 20.610167 23.325487 22.815318 22.71614 25.184552 22.142692 C 27.553786 21.569244 29.831508 21.081581 32.016773 20.690079 C 34.207699 20.293863 36.198664 19.968303 37.994383 19.71906 C 39.784916 19.469343 41.151016 19.343011 42.081836 19.344303 C 43.159306 19.343292 44.178689 19.577558 45.150831 20.042861 C 46.117786 20.507691 46.94416 21.137507 47.62524 21.92665 C 48.30632 22.715792 48.843548 23.591172 49.241164 24.563638 C 49.634066 25.530443 49.833616 26.552817 49.82944 27.629814 C 49.833335 28.561107 49.703837 29.349474 49.456508 29.996335 C 49.203991 30.642722 48.824603 31.361208 48.323531 32.152265 C 47.60597 33.080459 46.102754 34.193202 43.803982 35.484361 C 41.510397 36.775994 39.014528 38.049161 36.326275 39.309995 C 33.633309 40.565169 31.051202 41.694484 28.574768 42.697465 C 26.098333 43.700446 24.359022 44.420308 23.357309 44.851864 C 23.065751 46.498845 22.761452 48.170813 22.440173 49.856921 C 22.118893 51.543029 21.884842 53.24756 21.738492 54.965327 C 23.966479 53.819376 26.475949 52.74096 29.276804 51.736215 C 32.071999 50.736182 34.727904 50.230743 37.238385 50.229798 C 42.332436 50.229349 44.88017 52.7422 44.882061 57.763163 C 44.880187 58.98681 44.6459 60.06372 44.179198 60.993894 C 43.712022 61.929255 43.103427 62.752337 42.352937 63.468325 C 41.596788 64.189027 40.734106 64.816324 39.770077 65.35069 C 38.800388 65.889768 37.848153 66.40952 36.918085 66.915606 C 34.620756 68.133677 32.217861 69.190442 29.703742 70.090613 C 27.195283 70.986071 24.683058 71.865495 22.172726 72.724173 C 22.025861 73.301754 21.885107 73.926964 21.739146 74.609229 C 21.598371 75.291966 21.527391 75.954925 21.526207 76.598106 C 21.523473 77.602015 21.599014 78.607839 21.742457 79.614631 C 21.886372 80.616237 22.029815 81.623029 22.173257 82.629822 C 23.031097 82.342032 24.412887 81.871953 26.312492 81.229484 C 28.217758 80.582301 30.206486 79.937508 32.289522 79.290864 C 34.367371 78.643746 36.37917 78.089968 38.315018 77.623398 C 40.250867 77.156827 41.689624 76.922067 42.620445 76.923359 C 43.697915 76.922348 44.701737 77.155194 45.631911 77.621896 C 46.567272 78.089072 47.353573 78.69954 48.001187 79.454247 C 48.649274 80.203768 49.165281 81.082441 49.559582 82.091213 C 49.954357 83.094799 50.155801 84.096427 50.153067 85.100335 Z M 50.153067 85.100335 " stroke="#1d2c4e" stroke-width="4.1331" stroke-opacity="1" stroke-miterlimit="4"/><path fill="#ffffff" d="M 89.703125 125.660156 C 89.703125 119.285156 84.535156 114.117188 78.160156 114.117188 C 71.785156 114.117188 66.617188 119.285156 66.617188 125.660156 C 66.617188 132.035156 71.785156 137.207031 78.160156 137.207031 C 84.535156 137.207031 89.703125 132.035156 89.703125 125.660156 Z M 89.703125 125.660156 " fill-opacity="1" fill-rule="nonzero"/><g clip-path="url(#f0e6d226e1)"><path fill="#ffffff" d="M 50.941406 150.980469 C 50.941406 151.273438 50.914062 151.5625 50.855469 151.851562 C 50.796875 152.136719 50.714844 152.414062 50.601562 152.6875 C 50.492188 152.957031 50.351562 153.210938 50.191406 153.457031 C 50.027344 153.699219 49.84375 153.921875 49.636719 154.128906 C 49.429688 154.335938 49.207031 154.523438 48.960938 154.683594 C 48.71875 154.847656 48.464844 154.984375 48.191406 155.09375 C 47.921875 155.207031 47.644531 155.292969 47.359375 155.347656 C 47.070312 155.40625 46.78125 155.433594 46.488281 155.433594 C 46.195312 155.433594 45.90625 155.40625 45.621094 155.347656 C 45.332031 155.292969 45.054688 155.207031 44.785156 155.09375 C 44.515625 154.984375 44.257812 154.847656 44.015625 154.683594 C 43.773438 154.523438 43.546875 154.335938 43.339844 154.128906 C 43.132812 153.921875 42.949219 153.699219 42.789062 153.457031 C 42.625 153.210938 42.488281 152.957031 42.375 152.6875 C 42.265625 152.414062 42.179688 152.136719 42.121094 151.851562 C 42.066406 151.5625 42.039062 151.273438 42.039062 150.980469 C 42.039062 150.691406 42.066406 150.398438 42.121094 150.113281 C 42.179688 149.828125 42.265625 149.546875 42.375 149.277344 C 42.488281 149.007812 42.625 148.75 42.789062 148.507812 C 42.949219 148.265625 43.132812 148.039062 43.339844 147.835938 C 43.546875 147.628906 43.773438 147.441406 44.015625 147.28125 C 44.257812 147.117188 44.515625 146.980469 44.785156 146.867188 C 45.054688 146.757812 45.332031 146.671875 45.621094 146.617188 C 45.90625 146.558594 46.195312 146.53125 46.488281 146.53125 C 46.78125 146.53125 47.070312 146.558594 47.359375 146.617188 C 47.644531 146.671875 47.921875 146.757812 48.191406 146.867188 C 48.464844 146.980469 48.71875 147.117188 48.960938 147.28125 C 49.207031 147.441406 49.429688 147.628906 49.636719 147.835938 C 49.84375 148.039062 50.027344 148.265625 50.191406 148.507812 C 50.351562 148.75 50.492188 149.007812 50.601562 149.277344 C 50.714844 149.546875 50.796875 149.828125 50.855469 150.113281 C 50.914062 150.398438 50.941406 150.691406 50.941406 150.980469 Z M 50.941406 150.980469 " fill-opacity="1" fill-rule="nonzero"/></g><path fill="#ffffff" d="M 64.261719 137.097656 C 64.261719 132.917969 60.875 129.527344 56.695312 129.527344 C 52.515625 129.527344 49.128906 132.917969 49.128906 137.097656 C 49.128906 141.277344 52.515625 144.664062 56.695312 144.664062 C 60.875 144.664062 64.261719 141.277344 64.261719 137.097656 Z M 64.261719 137.097656 " fill-opacity="1" fill-rule="nonzero"/></svg>