<svg width="200" height="200" viewBox="0 0 200 200" fill="none" xmlns="http://www.w3.org/2000/svg">
<path d="M2.08325 89.5833C2.08325 111.685 10.863 132.881 26.491 148.509C42.1191 164.137 63.3152 172.917 85.4166 172.917C107.518 172.917 128.714 164.137 144.342 148.509C159.97 132.881 168.75 111.685 168.75 89.5833C168.75 78.6398 166.594 67.8035 162.407 57.693C158.219 47.5826 152.08 38.396 144.342 30.6578C136.604 22.9196 127.417 16.7813 117.307 12.5934C107.196 8.40548 96.3601 6.25 85.4166 6.25C74.4731 6.25 63.6368 8.40548 53.5263 12.5934C43.4158 16.7813 34.2292 22.9196 26.491 30.6578C18.7528 38.396 12.6145 47.5826 8.42662 57.693C4.23873 67.8035 2.08325 78.6398 2.08325 89.5833Z" fill="#FFE500"/>
<path d="M85.4166 6.25C68.9348 6.25 52.8232 11.1374 39.1191 20.2942C25.415 29.451 14.734 42.4659 8.42666 57.693C2.11936 72.9202 0.469081 89.6758 3.68452 105.841C6.89995 122.006 14.8367 136.855 26.4911 148.509C38.1454 160.163 52.994 168.1 69.1591 171.315C85.3242 174.531 102.08 172.881 117.307 166.573C132.534 160.266 145.549 149.585 154.706 135.881C163.863 122.177 168.75 106.065 168.75 89.5833C168.75 78.6398 166.594 67.8035 162.407 57.693C158.219 47.5826 152.08 38.396 144.342 30.6578C136.604 22.9196 127.417 16.7813 117.307 12.5934C107.196 8.40548 96.3601 6.25 85.4166 6.25ZM85.4166 160.417C70.377 160.417 55.6751 155.957 43.1701 147.601C30.6652 139.246 20.9187 127.37 15.1633 113.475C9.40787 99.5801 7.90199 84.2906 10.8361 69.54C13.7702 54.7894 21.0124 41.24 31.647 30.6054C42.2817 19.9708 55.831 12.7285 70.5816 9.79445C85.3323 6.86037 100.622 8.36625 114.517 14.1217C128.411 19.8771 140.287 29.6235 148.643 42.1285C156.999 54.6335 161.458 69.3354 161.458 84.375C161.458 104.543 153.447 123.884 139.186 138.145C124.926 152.405 105.584 160.417 85.4166 160.417Z" fill="#EBCB00"/>
<path d="M60.4167 22.917C60.4167 24.5746 63.0507 26.1643 67.7391 27.3364C72.4275 28.5085 78.7863 29.167 85.4167 29.167C92.0472 29.167 98.406 28.5085 103.094 27.3364C107.783 26.1643 110.417 24.5746 110.417 22.917C110.417 21.2594 107.783 19.6697 103.094 18.4976C98.406 17.3255 92.0472 16.667 85.4167 16.667C78.7863 16.667 72.4275 17.3255 67.7391 18.4976C63.0507 19.6697 60.4167 21.2594 60.4167 22.917Z" fill="#FFF48C"/>
<path opacity="0.15" d="M18.75 189.583C18.75 191.241 25.7738 192.83 38.2762 194.002C50.7786 195.175 67.7356 195.833 85.4167 195.833C103.098 195.833 120.055 195.175 132.557 194.002C145.06 192.83 152.083 191.241 152.083 189.583C152.083 187.925 145.06 186.336 132.557 185.164C120.055 183.991 103.098 183.333 85.4167 183.333C67.7356 183.333 50.7786 183.991 38.2762 185.164C25.7738 186.336 18.75 187.925 18.75 189.583Z" fill="#45413C"/>
<path d="M2.08325 89.5833C2.08325 111.685 10.863 132.881 26.491 148.509C42.1191 164.137 63.3152 172.917 85.4166 172.917C107.518 172.917 128.714 164.137 144.342 148.509C159.97 132.881 168.75 111.685 168.75 89.5833C168.75 78.6398 166.594 67.8035 162.407 57.693C158.219 47.5826 152.08 38.396 144.342 30.6578C136.604 22.9196 127.417 16.7813 117.307 12.5934C107.196 8.40548 96.3601 6.25 85.4166 6.25C74.4731 6.25 63.6368 8.40548 53.5263 12.5934C43.4158 16.7813 34.2292 22.9196 26.491 30.6578C18.7528 38.396 12.6145 47.5826 8.42662 57.693C4.23873 67.8035 2.08325 78.6398 2.08325 89.5833Z" stroke="#45413C" stroke-width="4.16667" stroke-linecap="round" stroke-linejoin="round"/>
<path d="M145.833 110.417C145.833 113.875 141.167 116.667 135.417 116.667C129.667 116.667 125 113.875 125 110.417C125 106.959 129.667 104.167 135.417 104.167C141.167 104.167 145.833 106.959 145.833 110.417Z" fill="#FFAA54"/>
<path d="M25 110.417C25 113.875 29.6667 116.667 35.4167 116.667C41.1667 116.667 45.8333 113.875 45.8333 110.417C45.8333 106.959 41.1667 104.167 35.4167 104.167C29.6667 104.167 25 106.959 25 110.417Z" fill="#FFAA54"/>
<path d="M27.0833 94.7917C27.0833 92.8578 27.8515 91.0031 29.2189 89.6357C30.5864 88.2682 32.441 87.5 34.3749 87.5C36.3088 87.5 38.1635 88.2682 39.5309 89.6357C40.8984 91.0031 41.6666 92.8578 41.6666 94.7917" stroke="#45413C" stroke-width="4.16667" stroke-linecap="round" stroke-linejoin="round"/>
<path d="M129.167 94.7917C129.167 92.8578 129.935 91.0031 131.302 89.6357C132.67 88.2682 134.525 87.5 136.458 87.5C138.392 87.5 140.247 88.2682 141.614 89.6357C142.982 91.0031 143.75 92.8578 143.75 94.7917" stroke="#45413C" stroke-width="4.16667" stroke-linecap="round" stroke-linejoin="round"/>
<path d="M177.792 127.791L196.708 121.458C197.057 121.334 197.358 121.105 197.571 120.803C197.784 120.501 197.898 120.14 197.898 119.771C197.898 119.401 197.784 119.04 197.571 118.738C197.358 118.436 197.057 118.207 196.708 118.083L181.167 112.916C180.11 112.558 179.153 111.957 178.371 111.161C177.589 110.364 177.006 109.396 176.667 108.333L171.5 92.7913C171.373 92.4397 171.141 92.1355 170.835 91.9195C170.53 91.7035 170.166 91.5861 169.792 91.583C169.422 91.5825 169.061 91.6991 168.762 91.9162C168.462 92.1333 168.24 92.4397 168.125 92.7913L162.917 108.333C162.57 109.405 161.973 110.379 161.176 111.176C160.38 111.973 159.405 112.569 158.333 112.916L142.792 118.083C142.444 118.207 142.142 118.436 141.929 118.738C141.716 119.04 141.602 119.401 141.602 119.771C141.602 120.14 141.716 120.501 141.929 120.803C142.142 121.105 142.444 121.334 142.792 121.458L158.333 126.666C159.381 127.016 160.333 127.605 161.114 128.386C161.895 129.167 162.483 130.119 162.833 131.166L168.042 146.708C168.156 147.06 168.379 147.366 168.679 147.583C168.978 147.8 169.339 147.917 169.708 147.916C170.082 147.913 170.447 147.796 170.752 147.58C171.057 147.364 171.289 147.06 171.417 146.708L177.792 127.791Z" fill="white" stroke="#45413C" stroke-width="4.16667" stroke-linecap="round" stroke-linejoin="round"/>
<path d="M85.4167 152.292C123.75 152.292 128.875 136.292 126.625 123.125C126.142 121.158 125.243 119.316 123.99 117.724C122.736 116.132 121.157 114.827 119.357 113.895C117.558 112.964 115.58 112.428 113.556 112.324C111.533 112.22 109.511 112.55 107.625 113.292C100.466 115.675 92.9618 116.858 85.4167 116.792C77.8715 116.858 70.3675 115.675 63.2083 113.292C61.3228 112.55 59.3004 112.22 57.2769 112.324C55.2534 112.428 53.2755 112.964 51.476 113.895C49.6765 114.827 48.0971 116.132 46.8436 117.724C45.5901 119.316 44.6916 121.158 44.2083 123.125C41.9583 136.292 47.0833 152.292 85.4167 152.292Z" fill="white" stroke="#45413C" stroke-width="4.16667" stroke-linecap="round" stroke-linejoin="round"/>
<path d="M127 126.167C120.909 128.948 114.457 130.856 107.833 131.834C100.422 133.027 92.9234 133.599 85.4166 133.542C77.9098 133.599 70.4114 133.027 62.9999 131.834C56.3763 130.856 49.9238 128.948 43.8333 126.167" stroke="#45413C" stroke-width="4.16667" stroke-linecap="round" stroke-linejoin="round"/>
<path d="M65.75 114.125L63 131.833L60.375 148.875" stroke="#45413C" stroke-width="4.16667" stroke-linecap="round" stroke-linejoin="round"/>
<path d="M85.4167 152.292V116.875" stroke="#45413C" stroke-width="4.16667" stroke-linecap="round" stroke-linejoin="round"/>
<path d="M105.125 114.125L107.833 131.833L110.458 148.875" stroke="#45413C" stroke-width="4.16667" stroke-linecap="round" stroke-linejoin="round"/>
</svg>
