<svg width="200" height="200" viewBox="0 0 200 200" fill="none" xmlns="http://www.w3.org/2000/svg">
<path d="M16.6667 89.5833C16.6667 100.527 18.8222 111.363 23.0101 121.474C27.198 131.584 33.3363 140.771 41.0745 148.509C48.8127 156.247 57.9993 162.385 68.1098 166.573C78.2203 170.761 89.0566 172.917 100 172.917C110.944 172.917 121.78 170.761 131.89 166.573C142.001 162.385 151.187 156.247 158.926 148.509C166.664 140.771 172.802 131.584 176.99 121.474C181.178 111.363 183.333 100.527 183.333 89.5833C183.333 78.6398 181.178 67.8035 176.99 57.693C172.802 47.5826 166.664 38.396 158.926 30.6578C151.187 22.9196 142.001 16.7813 131.89 12.5934C121.78 8.40548 110.944 6.25 100 6.25C89.0566 6.25 78.2203 8.40548 68.1098 12.5934C57.9993 16.7813 48.8127 22.9196 41.0745 30.6578C33.3363 38.396 27.198 47.5826 23.0101 57.693C18.8222 67.8035 16.6667 78.6398 16.6667 89.5833Z" fill="#FFE500"/>
<path d="M100 6.25C83.5183 6.25 67.4067 11.1374 53.7026 20.2942C39.9985 29.451 29.3175 42.4659 23.0102 57.693C16.7029 72.9202 15.0526 89.6758 18.268 105.841C21.4834 122.006 29.4202 136.855 41.0746 148.509C52.7289 160.163 67.5775 168.1 83.7426 171.315C99.9077 174.531 116.663 172.881 131.89 166.573C147.118 160.266 160.132 149.585 169.289 135.881C178.446 122.177 183.333 106.065 183.333 89.5833C183.333 67.482 174.554 46.2858 158.926 30.6578C143.298 15.0297 122.101 6.25 100 6.25ZM100 160.417C84.9605 160.417 70.2586 155.957 57.7536 147.601C45.2486 139.246 35.5022 127.37 29.7468 113.475C23.9914 99.5801 22.4855 84.2906 25.4196 69.54C28.3537 54.7894 35.5959 41.24 46.2305 30.6054C56.8652 19.9708 70.4145 12.7285 85.1651 9.79445C99.9158 6.86037 115.205 8.36625 129.1 14.1217C142.995 19.8771 154.871 29.6235 163.226 42.1285C171.582 54.6335 176.042 69.3354 176.042 84.375C176.042 104.543 168.03 123.884 153.77 138.145C139.509 152.405 120.168 160.417 100 160.417Z" fill="#EBCB00"/>
<path d="M75 22.917C75 24.5746 77.6339 26.1643 82.3223 27.3364C87.0107 28.5085 93.3696 29.167 100 29.167C106.63 29.167 112.989 28.5085 117.678 27.3364C122.366 26.1643 125 24.5746 125 22.917C125 21.2594 122.366 19.6697 117.678 18.4976C112.989 17.3255 106.63 16.667 100 16.667C93.3696 16.667 87.0107 17.3255 82.3223 18.4976C77.6339 19.6697 75 21.2594 75 22.917Z" fill="#FFF48C"/>
<path d="M16.6667 89.5833C16.6667 100.527 18.8222 111.363 23.0101 121.474C27.198 131.584 33.3363 140.771 41.0745 148.509C48.8127 156.247 57.9993 162.385 68.1098 166.573C78.2203 170.761 89.0566 172.917 100 172.917C110.944 172.917 121.78 170.761 131.89 166.573C142.001 162.385 151.187 156.247 158.926 148.509C166.664 140.771 172.802 131.584 176.99 121.474C181.178 111.363 183.333 100.527 183.333 89.5833C183.333 78.6398 181.178 67.8035 176.99 57.693C172.802 47.5826 166.664 38.396 158.926 30.6578C151.187 22.9196 142.001 16.7813 131.89 12.5934C121.78 8.40548 110.944 6.25 100 6.25C89.0566 6.25 78.2203 8.40548 68.1098 12.5934C57.9993 16.7813 48.8127 22.9196 41.0745 30.6578C33.3363 38.396 27.198 47.5826 23.0101 57.693C18.8222 67.8035 16.6667 78.6398 16.6667 89.5833Z" stroke="#45413C" stroke-width="4.16667" stroke-linecap="round" stroke-linejoin="round"/>
<path d="M79.1667 131.25C85.3335 127.13 92.5835 124.931 100 124.931C107.417 124.931 114.667 127.13 120.833 131.25" stroke="#45413C" stroke-width="4.16667" stroke-linecap="round"/>
<path opacity="0.15" d="M33.3333 189.583C33.3333 191.241 40.357 192.83 52.8595 194.002C65.3619 195.175 82.3188 195.833 99.9999 195.833C117.681 195.833 134.638 195.175 147.14 194.002C159.643 192.83 166.667 191.241 166.667 189.583C166.667 187.925 159.643 186.336 147.14 185.164C134.638 183.991 117.681 183.333 99.9999 183.333C82.3188 183.333 65.3619 183.991 52.8595 185.164C40.357 186.336 33.3333 187.925 33.3333 189.583Z" fill="#45413C"/>
<path d="M62.5001 89.5837C62.5001 90.4078 62.2557 91.2133 61.7979 91.8985C61.34 92.5837 60.6893 93.1178 59.9279 93.4332C59.1666 93.7485 58.3288 93.831 57.5205 93.6703C56.7123 93.5095 55.9699 93.1127 55.3871 92.5299C54.8044 91.9472 54.4076 91.2048 54.2468 90.3965C54.086 89.5883 54.1686 88.7505 54.4839 87.9891C54.7993 87.2278 55.3333 86.577 56.0185 86.1192C56.7037 85.6614 57.5093 85.417 58.3334 85.417C59.4385 85.417 60.4983 85.856 61.2797 86.6374C62.0611 87.4188 62.5001 88.4786 62.5001 89.5837Z" fill="#45413C" stroke="#45413C" stroke-width="4.16667" stroke-linecap="round" stroke-linejoin="round"/>
<path d="M137.5 89.5837C137.5 90.4078 137.744 91.2133 138.202 91.8985C138.66 92.5837 139.311 93.1178 140.072 93.4332C140.834 93.7485 141.671 93.831 142.48 93.6703C143.288 93.5095 144.03 93.1127 144.613 92.5299C145.196 91.9472 145.592 91.2048 145.753 90.3965C145.914 89.5883 145.832 88.7505 145.516 87.9891C145.201 87.2278 144.667 86.577 143.982 86.1192C143.296 85.6614 142.491 85.417 141.667 85.417C140.562 85.417 139.502 85.856 138.72 86.6374C137.939 87.4188 137.5 88.4786 137.5 89.5837Z" fill="#45413C" stroke="#45413C" stroke-width="4.16667" stroke-linecap="round" stroke-linejoin="round"/>
<path d="M160.417 110.417C160.417 113.875 155.75 116.667 150 116.667C144.25 116.667 139.583 113.875 139.583 110.417C139.583 106.959 144.25 104.167 150 104.167C155.75 104.167 160.417 106.959 160.417 110.417Z" fill="#FFAA54"/>
<path d="M39.5833 110.417C39.5833 113.875 44.2499 116.667 49.9999 116.667C55.7499 116.667 60.4166 113.875 60.4166 110.417C60.4166 106.959 55.7499 104.167 49.9999 104.167C44.2499 104.167 39.5833 106.959 39.5833 110.417Z" fill="#FFAA54"/>
<path d="M36.25 87.2087C37.5363 81.8179 40.3318 76.9053 44.3093 73.0459C48.2867 69.1866 53.2813 66.5403 58.7083 65.417C62.8249 64.5029 67.0918 64.5029 71.2083 65.417" stroke="#45413C" stroke-width="4.16667" stroke-linecap="round" stroke-linejoin="round"/>
<path d="M163.75 87.2087C162.464 81.8179 159.668 76.9053 155.691 73.0459C151.713 69.1866 146.719 66.5403 141.292 65.417C137.175 64.5029 132.908 64.5029 128.792 65.417" stroke="#45413C" stroke-width="4.16667" stroke-linecap="round" stroke-linejoin="round"/>
<path d="M157.875 167.834C142.667 161.167 161.417 144.5 159.333 133.042C176.583 143.792 173.042 174.459 157.875 167.834Z" fill="#00B8F0"/>
<path d="M159.333 133.042C159.357 133.319 159.357 133.598 159.333 133.875C170.5 146.625 166.417 169.792 153.25 164.542C154.438 166.012 155.989 167.146 157.75 167.834C173.042 174.459 176.583 143.792 159.333 133.042Z" fill="#4ACFFF"/>
<path d="M157.875 167.834C142.667 161.167 161.417 144.5 159.333 133.042C176.583 143.792 173.042 174.459 157.875 167.834Z" stroke="#45413C" stroke-width="4.16667" stroke-linecap="round" stroke-linejoin="round"/>
<path d="M157.125 124.208C145.667 121.792 156.208 107.542 152.958 100C166.667 104.958 168.542 126.625 157.125 124.208Z" fill="#00B8F0"/>
<path d="M153.167 100V100.583C162.708 107.75 163.208 124.333 153.375 122.583C154.405 123.433 155.641 123.993 156.958 124.208C168.542 126.625 166.667 104.958 153.167 100Z" fill="#4ACFFF"/>
<path d="M157.125 124.208C145.667 121.792 156.208 107.542 152.958 100C166.667 104.958 168.542 126.625 157.125 124.208Z" stroke="#45413C" stroke-width="4.16667" stroke-linecap="round" stroke-linejoin="round"/>
<path d="M42.8751 124.208C54.3334 121.792 43.7917 107.542 47.0417 100C33.3334 104.958 31.4584 126.625 42.8751 124.208Z" fill="#00B8F0"/>
<path d="M46.8334 100V100.583C37.2918 107.75 36.7918 124.333 46.8334 122.583C45.8038 123.433 44.5673 123.993 43.2501 124.208C31.4584 126.625 33.3334 104.958 46.8334 100Z" fill="#4ACFFF"/>
<path d="M42.8751 124.208C54.3334 121.792 43.7917 107.542 47.0417 100C33.3334 104.958 31.4584 126.625 42.8751 124.208Z" stroke="#45413C" stroke-width="4.16667" stroke-linecap="round" stroke-linejoin="round"/>
</svg>
