<svg width="307" height="318" viewBox="0 0 307 318" fill="none" xmlns="http://www.w3.org/2000/svg">
<path d="M26.7985 28.4211L99.0074 13.7136C101.422 13.2916 103.9 13.8621 105.915 15.3036C106.264 14.0153 106.348 12.6653 106.161 11.3413C105.973 10.0173 105.519 8.74894 104.828 7.6186C103.827 6.03181 102.391 4.7922 100.703 4.05998C99.0159 3.32775 97.1552 3.13655 95.3618 3.5111L23.1528 18.1523C21.3723 18.5122 19.7341 19.4087 18.4436 20.7293C17.1531 22.05 16.2679 23.736 15.899 25.5758C15.5301 27.4156 15.6939 29.3273 16.37 31.071C17.046 32.8148 18.2042 34.3129 19.6991 35.3773C20.1332 33.6447 21.0292 32.0736 22.2846 30.8435C23.54 29.6133 25.1043 28.7739 26.7985 28.4211Z" fill="#EDDBFF"/>
<path opacity="0.15" d="M78.6047 300.841C78.6047 303.635 86.4685 306.314 100.466 308.29C114.464 310.265 133.449 311.375 153.244 311.375C173.04 311.375 192.025 310.265 206.022 308.29C220.02 306.314 227.883 303.635 227.883 300.841C227.883 298.048 220.02 295.368 206.022 293.393C192.025 291.417 173.04 290.308 153.244 290.308C133.449 290.308 114.464 291.417 100.466 293.393C86.4685 295.368 78.6047 298.048 78.6047 300.841Z" fill="#45413C"/>
<path d="M67.4121 182.453C67.4121 194.163 69.6388 205.759 73.9652 216.578C78.2915 227.397 84.6327 237.227 92.6267 245.507C100.621 253.788 110.111 260.356 120.556 264.837C131 269.319 142.195 271.625 153.5 271.625C164.805 271.625 176 269.319 186.444 264.837C196.889 260.356 206.379 253.788 214.373 245.507C222.367 237.227 228.709 227.397 233.035 216.578C237.361 205.759 239.588 194.163 239.588 182.453C239.588 170.742 237.361 159.147 233.035 148.328C228.709 137.509 222.367 127.679 214.373 119.398C206.379 111.118 196.889 104.549 186.444 100.068C176 95.5868 164.805 93.2803 153.5 93.2803C142.195 93.2803 131 95.5868 120.556 100.068C110.111 104.549 100.621 111.118 92.6267 119.398C84.6327 127.679 78.2915 137.509 73.9652 148.328C69.6388 159.147 67.4121 170.742 67.4121 182.453Z" fill="#FFE500"/>
<path d="M153.5 93.3467C136.471 93.3467 119.824 98.5782 105.666 108.38C91.507 118.181 80.473 132.112 73.9591 148.41C67.4452 164.708 65.7441 182.641 69.071 199.94C72.3979 217.24 80.6033 233.129 92.6493 245.597C104.695 258.065 120.041 266.553 136.744 269.986C153.448 273.42 170.759 271.644 186.489 264.885C202.218 258.125 215.659 246.686 225.111 232.013C234.562 217.34 239.601 200.092 239.588 182.453C239.571 158.814 230.494 136.15 214.351 119.441C198.208 102.733 176.321 93.3467 153.5 93.3467ZM153.5 258.375C137.972 258.375 122.792 253.607 109.878 244.674C96.9652 235.74 86.8984 223.042 80.9501 208.184C75.0018 193.326 73.439 176.975 76.4591 161.198C79.4793 145.42 86.9469 130.924 97.9182 119.541C108.89 108.158 122.872 100.399 138.099 97.2448C153.326 94.0908 169.114 95.683 183.468 101.82C197.821 107.958 210.097 118.364 218.742 131.726C227.388 145.087 232.016 160.803 232.041 176.888C232.058 187.583 230.039 198.176 226.099 208.062C222.16 217.948 216.377 226.932 209.082 234.5C201.787 242.069 193.123 248.073 183.586 252.17C174.049 256.267 163.825 258.375 153.5 258.375Z" fill="#EBCB00"/>
<path d="M67.4121 182.453C67.4121 194.163 69.6388 205.759 73.9652 216.578C78.2915 227.397 84.6327 237.227 92.6267 245.507C100.621 253.788 110.111 260.356 120.556 264.837C131 269.319 142.195 271.625 153.5 271.625C164.805 271.625 176 269.319 186.444 264.837C196.889 260.356 206.379 253.788 214.373 245.507C222.367 237.227 228.709 227.397 233.035 216.578C237.361 205.759 239.588 194.163 239.588 182.453C239.588 170.742 237.361 159.147 233.035 148.328C228.709 137.509 222.367 127.679 214.373 119.398C206.379 111.118 196.889 104.549 186.444 100.068C176 95.5868 164.805 93.2803 153.5 93.2803C142.195 93.2803 131 95.5868 120.556 100.068C110.111 104.549 100.621 111.118 92.6267 119.398C84.6327 127.679 78.2915 137.509 73.9652 148.328C69.6388 159.147 67.4121 170.742 67.4121 182.453Z" stroke="#45413C" stroke-width="4.16667" stroke-linecap="round" stroke-linejoin="round"/>
<path d="M119.09 225.912C119.09 235.365 122.716 244.431 129.169 251.115C135.622 257.799 144.374 261.555 153.5 261.555C162.626 261.555 171.378 257.799 177.831 251.115C184.284 244.431 187.909 235.365 187.909 225.912C187.909 216.459 184.284 207.393 177.831 200.709C171.378 194.025 162.626 190.27 153.5 190.27C144.374 190.27 135.622 194.025 129.169 200.709C122.716 207.393 119.09 216.459 119.09 225.912Z" fill="#FFB0CA" stroke="#45413C" stroke-width="4.16667" stroke-linecap="round" stroke-linejoin="round"/>
<path d="M124.399 244.86C124.399 249.288 127.465 253.534 132.922 256.665C138.38 259.796 145.782 261.555 153.5 261.555C161.218 261.555 168.62 259.796 174.078 256.665C179.535 253.534 182.601 249.288 182.601 244.86C182.601 240.432 179.535 236.186 174.078 233.055C168.62 229.924 161.218 228.165 153.5 228.165C145.782 228.165 138.38 229.924 132.922 233.055C127.465 236.186 124.399 240.432 124.399 244.86Z" fill="#FF866E" stroke="#45413C" stroke-width="4.16667" stroke-linecap="round" stroke-linejoin="round"/>
<path d="M222.383 209.218C222.383 212.928 217.522 215.843 211.574 215.843C205.626 215.843 200.829 212.862 200.829 209.218C200.829 205.574 205.626 202.593 211.574 202.593C217.522 202.593 222.383 205.375 222.383 209.218Z" fill="#FFAA54"/>
<path d="M84.6169 209.218C84.6169 212.928 89.4778 215.843 95.4259 215.843C101.374 215.843 106.171 212.862 106.171 209.218C106.171 205.574 101.374 202.593 95.4259 202.593C89.4778 202.593 84.6169 205.375 84.6169 209.218Z" fill="#FFAA54"/>
<path d="M164.245 262.152C164.262 259.962 164.869 257.822 166 255.972C167.13 254.122 168.738 252.637 170.641 251.684C172.196 250.859 173.551 249.681 174.606 248.239L178.188 243.337C178.724 242.581 179.476 242.021 180.339 241.736C181.201 241.451 182.128 241.455 182.987 241.75C183.846 242.044 184.593 242.612 185.121 243.373C185.65 244.135 185.932 245.049 185.927 245.987V258.375C185.927 259.402 185.732 260.419 185.353 261.367C184.973 262.316 184.417 263.177 183.717 263.903C183.016 264.629 182.184 265.205 181.268 265.598C180.352 265.991 179.371 266.193 178.38 266.193C177.955 266.184 177.532 266.263 177.136 266.426C176.741 266.588 176.381 266.831 176.077 267.139C175.773 267.448 175.532 267.816 175.367 268.222C175.203 268.629 175.118 269.065 175.118 269.505V301.835C175.118 303.311 174.552 304.727 173.544 305.77C172.537 306.814 171.17 307.4 169.746 307.4C168.321 307.4 166.954 306.814 165.947 305.77C164.939 304.727 164.373 303.311 164.373 301.835L164.245 262.152Z" fill="#4AEFF7" stroke="#45413C" stroke-width="4.16667" stroke-linecap="round" stroke-linejoin="round"/>
<path d="M213.749 182.452C213.845 183.535 213.723 184.626 213.389 185.657C213.055 186.688 212.517 187.635 211.81 188.439C211.103 189.242 210.242 189.884 209.282 190.323C208.321 190.762 207.283 190.989 206.234 190.989C205.184 190.989 204.146 190.762 203.186 190.323C202.226 189.884 201.364 189.242 200.657 188.439C199.95 187.635 199.412 186.688 199.078 185.657C198.745 184.626 198.622 183.535 198.719 182.452" stroke="#45413C" stroke-width="4.16667" stroke-linecap="round" stroke-linejoin="round"/>
<path d="M108.345 182.452C108.345 184.525 107.55 186.514 106.135 187.98C104.72 189.446 102.8 190.27 100.798 190.27C98.7967 190.27 96.8771 189.446 95.4617 187.98C94.0464 186.514 93.2512 184.525 93.2512 182.452" stroke="#45413C" stroke-width="4.16667" stroke-linecap="round" stroke-linejoin="round"/>
<path d="M163.541 117.196L125.614 109.71C124.48 109.485 123.433 108.923 122.602 108.093C121.77 107.262 121.19 106.199 120.933 105.033C120.675 103.867 120.751 102.648 121.15 101.526C121.55 100.403 122.257 99.4257 123.184 98.7123L157.913 72.2123L133.353 67.376C131.853 66.9707 130.547 66.0151 129.676 64.6869C128.806 63.3586 128.43 61.7481 128.62 60.1548C128.766 59.3581 129.062 58.599 129.492 57.9211C129.921 57.2432 130.476 56.6598 131.123 56.2044C131.771 55.7489 132.499 55.4304 133.266 55.267C134.033 55.1036 134.823 55.0986 135.592 55.2523L173.583 62.7385C174.712 62.9727 175.752 63.5416 176.575 64.3762C177.399 65.2107 177.971 66.2749 178.221 67.4396C178.472 68.6043 178.391 69.8193 177.987 70.937C177.584 72.0547 176.876 73.0271 175.949 73.736L141.22 100.236L165.78 105.072C167.332 105.38 168.703 106.313 169.59 107.668C170.478 109.022 170.81 110.686 170.513 112.294C170.216 113.901 169.315 115.321 168.007 116.24C166.7 117.16 165.094 117.504 163.541 117.196Z" fill="#DABFF5" stroke="#45413C" stroke-width="4.16667" stroke-linejoin="round"/>
<path d="M94.4025 156.747L63.5746 169.6C62.6856 169.883 61.7388 169.911 60.836 169.678C59.9332 169.446 59.1086 168.963 58.4508 168.282C57.7931 167.601 57.3271 166.747 57.1029 165.812C56.8788 164.876 56.905 163.896 57.1788 162.975L70.3542 126.869L50.2713 135.216C49.0391 135.656 47.6912 135.593 46.5026 135.039C45.314 134.485 44.3744 133.482 43.8754 132.235C43.4303 130.968 43.4744 129.571 43.9987 128.337C44.523 127.103 45.4869 126.126 46.6896 125.61L77.2617 112.625C78.1685 112.257 79.1578 112.165 80.1134 112.359C81.069 112.553 81.9513 113.026 82.6565 113.722C83.3617 114.418 83.8606 115.307 84.0946 116.286C84.3285 117.266 84.2878 118.294 83.9773 119.25L70.674 155.091L90.629 146.81C91.2629 146.475 91.9573 146.281 92.6676 146.241C93.378 146.2 94.0888 146.313 94.7546 146.573C95.4204 146.832 96.0266 147.233 96.5345 147.749C97.0424 148.265 97.4408 148.885 97.7042 149.57C97.9677 150.254 98.0904 150.988 98.0646 151.725C98.0388 152.461 97.865 153.184 97.5543 153.847C97.2436 154.51 96.8028 155.099 96.2601 155.575C95.7174 156.052 95.0848 156.406 94.4025 156.615V156.747Z" fill="#DABFF5" stroke="#45413C" stroke-width="4.16667" stroke-linejoin="round"/>
<path d="M112.439 93.8762L40.2938 108.517C38.489 108.89 36.6177 108.695 34.9213 107.956C33.2248 107.217 31.781 105.968 30.7761 104.371C29.7712 102.774 29.2512 100.902 29.2833 98.9957C29.3153 97.0897 29.8979 95.2373 30.9559 93.6775L76.7501 26.5L26.6707 36.9012C24.2705 37.3844 21.7832 36.8601 19.7562 35.4438C17.7291 34.0274 16.3282 31.8349 15.8617 29.3487C15.3953 26.8625 15.9014 24.2861 17.2688 22.1864C18.6361 20.0867 20.7528 18.6356 23.153 18.1525L95.298 3.51121C97.1008 3.11576 98.9768 3.29361 100.68 4.02145C102.384 4.74929 103.835 5.99318 104.845 7.59013C105.854 9.18708 106.374 11.0626 106.337 12.971C106.3 14.8794 105.707 16.7316 104.636 18.285L59.1615 85.2637L108.729 75.1275C111.129 74.6443 113.617 75.1685 115.644 76.5849C117.671 78.0013 119.072 80.1937 119.538 82.68C120.005 85.1662 119.499 87.7426 118.131 89.8423C116.764 91.942 114.647 93.393 112.247 93.8762H112.439Z" fill="#DABFF5" stroke="#45413C" stroke-width="4.16667" stroke-linejoin="round"/>
<path d="M112.439 93.8762L40.2938 108.517C38.489 108.89 36.6177 108.695 34.9213 107.956C33.2248 107.217 31.781 105.968 30.7761 104.371C29.7712 102.774 29.2512 100.902 29.2833 98.9957C29.3153 97.0897 29.8979 95.2373 30.9559 93.6775L76.7501 26.5L26.6707 36.9012C24.2705 37.3844 21.7832 36.8601 19.7562 35.4438C17.7291 34.0274 16.3282 31.8349 15.8617 29.3487C15.3953 26.8625 15.9014 24.2861 17.2688 22.1864C18.6361 20.0867 20.7528 18.6356 23.153 18.1525L95.298 3.51121C97.1008 3.11576 98.9768 3.29361 100.68 4.02145C102.384 4.74929 103.835 5.99318 104.845 7.59013C105.854 9.18708 106.374 11.0626 106.337 12.971C106.3 14.8794 105.707 16.7316 104.636 18.285L59.1615 85.2637L108.729 75.1275C111.129 74.6443 113.617 75.1685 115.644 76.5849C117.671 78.0013 119.072 80.1937 119.538 82.68C120.005 85.1662 119.499 87.7426 118.131 89.8423C116.764 91.942 114.647 93.393 112.247 93.8762H112.439Z" stroke="#45413C" stroke-width="4.16667" stroke-linejoin="round"/>
</svg>
