<svg width="280" height="280" viewBox="0 0 185 185" fill="none" xmlns="http://www.w3.org/2000/svg">
<path opacity="0.15" d="M47.3677 171.018C47.3677 172.643 52.1064 174.202 60.5415 175.351C68.9765 176.5 80.4169 177.146 92.3458 177.146C104.275 177.146 115.715 176.5 124.15 175.351C132.585 174.202 137.324 172.643 137.324 171.018C137.324 169.392 132.585 167.834 124.15 166.685C115.715 165.535 104.275 164.89 92.3458 164.89C80.4169 164.89 68.9765 165.535 60.5415 166.685C52.1064 167.834 47.3677 169.392 47.3677 171.018Z" fill="#45413C"/>
<path d="M40.623 106.144C40.623 119.902 46.0887 133.097 55.8175 142.826C65.5463 152.555 78.7415 158.021 92.5001 158.021C106.259 158.021 119.454 152.555 129.183 142.826C138.912 133.097 144.377 119.902 144.377 106.144C144.377 92.385 138.912 79.1899 129.183 69.461C119.454 59.7322 106.259 54.2666 92.5001 54.2666C78.7415 54.2666 65.5463 59.7322 55.8175 69.461C46.0887 79.1899 40.623 92.385 40.623 106.144Z" fill="#FFE500"/>
<path d="M92.5001 54.3057C82.2382 54.3057 72.2068 57.3492 63.6748 63.0512C55.1428 68.7532 48.4936 76.8576 44.5683 86.3392C40.643 95.8207 39.6179 106.253 41.6227 116.318C43.6275 126.382 48.5722 135.625 55.8312 142.879C63.0901 150.133 72.3374 155.07 82.4031 157.068C92.4688 159.065 102.901 158.032 112.379 154.1C121.858 150.167 129.957 143.512 135.653 134.976C141.349 126.44 144.385 116.406 144.377 106.144C144.367 92.3922 138.897 79.207 129.169 69.4865C119.441 59.766 106.252 54.3057 92.5001 54.3057ZM92.5001 150.313C83.1426 150.313 73.9951 147.539 66.2135 142.342C58.4319 137.145 52.3656 129.757 48.7811 121.114C45.1966 112.47 44.2549 102.957 46.0748 93.7786C47.8948 84.5998 52.3948 76.1664 59.0062 69.5443C65.6176 62.9221 74.0436 58.4084 83.2195 56.5735C92.3954 54.7386 101.909 55.6648 110.559 59.2353C119.208 62.8057 126.606 68.86 131.815 76.6331C137.025 84.4062 139.814 93.5492 139.829 102.907C139.839 109.129 138.623 115.291 136.249 121.042C133.875 126.794 130.39 132.02 125.994 136.423C121.598 140.826 116.377 144.32 110.63 146.703C104.883 149.086 98.722 150.313 92.5001 150.313Z" fill="#EBCB00"/>
<path d="M40.623 106.144C40.623 119.902 46.0887 133.097 55.8175 142.826C65.5463 152.555 78.7415 158.021 92.5001 158.021C106.259 158.021 119.454 152.555 129.183 142.826C138.912 133.097 144.377 119.902 144.377 106.144C144.377 92.385 138.912 79.1899 129.183 69.461C119.454 59.7322 106.259 54.2666 92.5001 54.2666C78.7415 54.2666 65.5463 59.7322 55.8175 69.461C46.0887 79.1899 40.623 92.385 40.623 106.144Z" stroke="#45413C" stroke-width="3.85417" stroke-linecap="round" stroke-linejoin="round"/>
<path d="M71.7646 131.427C71.7646 134.15 72.301 136.846 73.343 139.362C74.3851 141.878 75.9125 144.164 77.8379 146.089C79.7634 148.014 82.0492 149.542 84.565 150.584C87.0807 151.626 89.7771 152.162 92.5001 152.162C95.2231 152.162 97.9194 151.626 100.435 150.584C102.951 149.542 105.237 148.014 107.162 146.089C109.088 144.164 110.615 141.878 111.657 139.362C112.699 136.846 113.235 134.15 113.235 131.427C113.235 128.704 112.699 126.007 111.657 123.492C110.615 120.976 109.088 118.69 107.162 116.765C105.237 114.839 102.951 113.312 100.435 112.27C97.9194 111.228 95.2231 110.691 92.5001 110.691C89.7771 110.691 87.0807 111.228 84.565 112.27C82.0492 113.312 79.7634 114.839 77.8379 116.765C75.9125 118.69 74.3851 120.976 73.343 123.492C72.301 126.007 71.7646 128.704 71.7646 131.427Z" fill="#FFB0CA" stroke="#45413C" stroke-width="3.85417" stroke-linecap="round" stroke-linejoin="round"/>
<path d="M74.9634 142.45C74.9634 145.026 76.811 147.496 80.0997 149.318C83.3884 151.139 87.8489 152.162 92.4998 152.162C97.1508 152.162 101.611 151.139 104.9 149.318C108.189 147.496 110.036 145.026 110.036 142.45C110.036 139.874 108.189 137.403 104.9 135.582C101.611 133.761 97.1508 132.737 92.4998 132.737C87.8489 132.737 83.3884 133.761 80.0997 135.582C76.811 137.403 74.9634 139.874 74.9634 142.45Z" fill="#FF866E" stroke="#45413C" stroke-width="3.85417" stroke-linecap="round" stroke-linejoin="round"/>
<path d="M134.01 121.715C134.01 123.873 131.08 125.569 127.496 125.569C123.912 125.569 121.021 123.834 121.021 121.715C121.021 119.595 123.912 117.86 127.496 117.86C131.08 117.86 134.01 119.479 134.01 121.715Z" fill="#FFAA54"/>
<path d="M50.9907 121.715C50.9907 123.873 53.9199 125.569 57.5043 125.569C61.0886 125.569 63.9793 123.834 63.9793 121.715C63.9793 119.595 61.0886 117.86 57.5043 117.86C53.9199 117.86 50.9907 119.479 50.9907 121.715Z" fill="#FFAA54"/>
<path d="M99 149.767C99.0099 148.837 99.3743 147.927 100.052 147.14C100.73 146.354 101.694 145.723 102.835 145.318C103.767 144.967 104.58 144.467 105.212 143.854L107.36 141.77C107.681 141.449 108.132 141.211 108.649 141.089C109.166 140.968 109.722 140.97 110.237 141.095C110.752 141.22 111.2 141.462 111.517 141.786C111.834 142.109 112.003 142.498 112 142.896V148.162C112 149.043 111.523 149.888 110.675 150.512C109.826 151.135 108.675 151.485 107.475 151.485C107.22 151.481 106.966 151.515 106.729 151.584C106.492 151.653 106.276 151.756 106.094 151.887C105.912 152.018 105.767 152.175 105.669 152.347C105.57 152.52 105.519 152.706 105.519 152.893V166.635C105.519 167.262 105.18 167.864 104.576 168.307C103.972 168.751 103.152 169 102.298 169C101.444 169 100.624 168.751 100.02 168.307C99.4161 167.864 99.0767 167.262 99.0767 166.635L99 149.767Z" fill="#4AEFF7" stroke="#45413C" stroke-width="3.85417" stroke-linecap="round" stroke-linejoin="round"/>
<path d="M128.806 106.144C128.864 106.773 128.79 107.408 128.589 108.008C128.388 108.608 128.064 109.159 127.638 109.626C127.212 110.094 126.693 110.467 126.114 110.722C125.535 110.978 124.91 111.11 124.277 111.11C123.645 111.11 123.019 110.978 122.441 110.722C121.862 110.467 121.343 110.094 120.917 109.626C120.491 109.159 120.167 108.608 119.966 108.008C119.764 107.408 119.691 106.773 119.749 106.144" stroke="#45413C" stroke-width="3.85417" stroke-linecap="round" stroke-linejoin="round"/>
<path d="M65.2897 106.144C65.2897 107.35 64.8105 108.507 63.9576 109.359C63.1047 110.212 61.9479 110.691 60.7418 110.691C59.5356 110.691 58.3788 110.212 57.5259 109.359C56.673 108.507 56.1938 107.35 56.1938 106.144" stroke="#45413C" stroke-width="3.85417" stroke-linecap="round" stroke-linejoin="round"/>
<path d="M106.109 64.9629L93.5942 62.434C93.2199 62.3581 92.8745 62.1683 92.6002 61.8877C92.3259 61.6072 92.1345 61.248 92.0495 60.8541C91.9644 60.4601 91.9894 60.0485 92.1213 59.6693C92.2532 59.2901 92.4863 58.9599 92.7923 58.7189L104.252 49.767L96.1478 48.1332C95.653 47.9963 95.2219 47.6735 94.9346 47.2248C94.6474 46.7761 94.5235 46.2321 94.5861 45.6938C94.6342 45.4247 94.7319 45.1683 94.8737 44.9393C95.0154 44.7103 95.1984 44.5132 95.4121 44.3593C95.6258 44.2055 95.866 44.0979 96.1191 44.0427C96.3721 43.9875 96.6329 43.9858 96.8865 44.0377L109.422 46.5666C109.795 46.6458 110.138 46.8379 110.41 47.1198C110.682 47.4018 110.87 47.7613 110.953 48.1547C111.036 48.5481 111.009 48.9586 110.876 49.3362C110.743 49.7137 110.509 50.0422 110.203 50.2817L98.7437 59.2336L106.848 60.8674C107.36 60.9712 107.812 61.2866 108.105 61.7441C108.398 62.2016 108.507 62.7637 108.409 63.3068C108.312 63.8499 108.014 64.3295 107.583 64.64C107.151 64.9506 106.621 65.0667 106.109 64.9629Z" fill="#DABFF5" stroke="#45413C" stroke-width="3.85417" stroke-linejoin="round"/>
<path d="M56.3185 93.7719L42.1765 98.9062C41.7687 99.0195 41.3344 99.0304 40.9202 98.9376C40.5061 98.8449 40.1278 98.652 39.8261 98.3799C39.5243 98.1077 39.3105 97.7665 39.2077 97.3929C39.1049 97.0193 39.1169 96.6276 39.2425 96.2597L45.2866 81.8359L36.0738 85.1706C35.5085 85.3465 34.8902 85.3212 34.345 85.0999C33.7997 84.8786 33.3686 84.4779 33.1397 83.9796C32.9355 83.4734 32.9558 82.9157 33.1963 82.4226C33.4368 81.9296 33.879 81.5393 34.4307 81.3331L48.4553 76.1458C48.8713 75.9989 49.3251 75.962 49.7635 76.0397C50.2019 76.1173 50.6066 76.3062 50.9301 76.5841C51.2536 76.862 51.4825 77.2174 51.5898 77.6086C51.6972 77.9998 51.6785 78.4104 51.5361 78.7924L45.4333 93.1103L54.5874 89.8021C54.8783 89.6685 55.1968 89.591 55.5226 89.5747C55.8485 89.5584 56.1746 89.6035 56.48 89.7073C56.7855 89.811 57.0635 89.9711 57.2965 90.1773C57.5295 90.3834 57.7123 90.6312 57.8331 90.9047C57.954 91.1781 58.0103 91.4713 57.9985 91.7655C57.9866 92.0597 57.9069 92.3485 57.7643 92.6133C57.6218 92.8782 57.4196 93.1133 57.1707 93.3037C56.9217 93.494 56.6315 93.6355 56.3185 93.719V93.7719Z" fill="#DABFF5" stroke="#45413C" stroke-width="3.85417" stroke-linejoin="round"/>
<path d="M77.9036 67.4884L57.0955 72.2554C56.575 72.3768 56.0353 72.3131 55.546 72.0725C55.0567 71.8318 54.6403 71.4253 54.3504 70.9053C54.0606 70.3854 53.9106 69.7758 53.9199 69.1552C53.9291 68.5346 54.0971 67.9315 54.4023 67.4237L67.6102 45.5517L53.1664 48.9382C52.8236 49.0161 52.471 49.0143 52.1288 48.9329C51.7867 48.8514 51.4616 48.692 51.1721 48.4637C50.8826 48.2353 50.6344 47.9426 50.4417 47.6021C50.2489 47.2616 50.1155 46.88 50.0488 46.4792C49.9822 46.0784 49.9838 45.6662 50.0534 45.2661C50.123 44.8659 50.2594 44.4858 50.4546 44.1473C50.6499 43.8088 50.9003 43.5186 51.1915 43.2932C51.4827 43.0679 51.809 42.9118 52.1518 42.8339L72.9598 38.0669C73.4798 37.9382 74.0208 37.9961 74.5122 38.233C75.0035 38.47 75.4221 38.875 75.7133 39.395C76.0044 39.9149 76.1544 40.5255 76.1437 41.1469C76.1329 41.7682 75.9619 42.3713 75.653 42.877L62.5373 64.6843L76.8336 61.3841C77.5259 61.2268 78.2433 61.3974 78.8279 61.8586C79.4126 62.3197 79.8166 63.0336 79.9512 63.8431C80.0857 64.6525 79.9397 65.4914 79.5453 66.175C79.151 66.8586 78.5405 67.3311 77.8482 67.4884H77.9036Z" fill="#DABFF5" stroke="#45413C" stroke-width="3.85417" stroke-linejoin="round"/>
</svg>
