<svg width="200" height="200" viewBox="0 0 200 200" fill="none" xmlns="http://www.w3.org/2000/svg">
<g clip-path="url(#clip0_379_18)">
<path opacity="0.15" d="M34 192C34 194.122 41.1643 196.157 53.9167 197.657C66.6692 199.157 83.9653 200 102 200C120.035 200 137.331 199.157 150.083 197.657C162.836 196.157 170 194.122 170 192C170 189.878 162.836 187.843 150.083 186.343C137.331 184.843 120.035 184 102 184C83.9653 184 66.6692 184.843 53.9167 186.343C41.1643 187.843 34 189.878 34 192Z" fill="#45413C"/>
<path d="M20 97C20 107.768 22.121 118.431 26.2419 128.38C30.3628 138.329 36.4028 147.368 44.0172 154.983C51.6316 162.597 60.6713 168.637 70.62 172.758C80.5687 176.879 91.2316 179 102 179C112.768 179 123.431 176.879 133.38 172.758C143.329 168.637 152.368 162.597 159.983 154.983C167.597 147.368 173.637 138.329 177.758 128.38C181.879 118.431 184 107.768 184 97C184 86.2316 181.879 75.5687 177.758 65.62C173.637 55.6713 167.597 46.6317 159.983 39.0172C152.368 31.4028 143.329 25.3628 133.38 21.2419C123.431 17.121 112.768 15 102 15C91.2316 15 80.5687 17.121 70.62 21.2419C60.6713 25.3628 51.6316 31.4028 44.0172 39.0172C36.4028 46.6317 30.3628 55.6713 26.2419 65.62C22.121 75.5687 20 86.2316 20 97Z" fill="#FFE500"/>
<path d="M102 15C85.7793 15 69.9231 19.8401 56.4369 28.908C42.9508 37.9759 32.4407 50.8643 26.2361 65.9428C20.0315 81.0213 18.4112 97.6124 21.5801 113.617C24.749 129.623 32.5648 144.323 44.0388 155.858C55.5128 167.393 70.1295 175.246 86.04 178.422C101.95 181.599 118.44 179.956 133.422 173.702C148.405 167.449 161.207 156.865 170.21 143.29C179.213 129.715 184.012 113.758 184 97.4387C183.984 75.569 175.337 54.6005 159.961 39.142C144.585 23.6835 123.737 15 102 15ZM102 167.68C87.2089 167.68 72.7498 163.269 60.4498 155.004C48.1498 146.739 38.561 134.991 32.8951 121.245C27.2293 107.498 25.7407 92.3709 28.6174 77.7738C31.4942 63.1767 38.6072 49.7651 49.0575 39.2339C59.5079 28.7027 72.8266 21.5245 87.3305 18.6065C101.834 15.6884 116.873 17.1615 130.545 22.8395C144.217 28.5175 155.909 38.1457 164.144 50.5072C172.379 62.8687 176.787 77.4089 176.811 92.2901C176.827 102.185 174.904 111.985 171.152 121.131C167.399 130.277 161.891 138.589 154.943 145.591C147.994 152.594 139.742 158.149 130.657 161.939C121.573 165.729 111.835 167.68 102 167.68Z" fill="#EBCB00"/>
<path d="M20 97C20 107.768 22.121 118.431 26.2419 128.38C30.3628 138.329 36.4028 147.368 44.0172 154.983C51.6316 162.597 60.6713 168.637 70.62 172.758C80.5687 176.879 91.2316 179 102 179C112.768 179 123.431 176.879 133.38 172.758C143.329 168.637 152.368 162.597 159.983 154.983C167.597 147.368 173.637 138.329 177.758 128.38C181.879 118.431 184 107.768 184 97C184 86.2316 181.879 75.5687 177.758 65.62C173.637 55.6713 167.597 46.6317 159.983 39.0172C152.368 31.4028 143.329 25.3628 133.38 21.2419C123.431 17.121 112.768 15 102 15C91.2316 15 80.5687 17.121 70.62 21.2419C60.6713 25.3628 51.6316 31.4028 44.0172 39.0172C36.4028 46.6317 30.3628 55.6713 26.2419 65.62C22.121 75.5687 20 86.2316 20 97Z" stroke="#45413C" stroke-width="4.16667" stroke-linecap="round" stroke-linejoin="round"/>
<path d="M70 137.5C70 146.385 73.4768 154.906 79.6655 161.188C85.8542 167.471 94.2479 171 103 171C111.752 171 120.146 167.471 126.335 161.188C132.523 154.906 136 146.385 136 137.5C136 128.615 132.523 120.094 126.335 113.812C120.146 107.529 111.752 104 103 104C94.2479 104 85.8542 107.529 79.6655 113.812C73.4768 120.094 70 128.615 70 137.5Z" fill="#FFB0CA" stroke="#45413C" stroke-width="4.16667" stroke-linecap="round" stroke-linejoin="round"/>
<path d="M74 155C74 159.243 76.95 163.313 82.201 166.314C87.452 169.314 94.5739 171 102 171C109.426 171 116.548 169.314 121.799 166.314C127.05 163.313 130 159.243 130 155C130 150.757 127.05 146.687 121.799 143.686C116.548 140.686 109.426 139 102 139C94.5739 139 87.452 140.686 82.201 143.686C76.95 146.687 74 150.757 74 155Z" fill="#FF866E" stroke="#45413C" stroke-width="4.16667" stroke-linecap="round" stroke-linejoin="round"/>
<path d="M167 122.5C167 126.14 162.49 129 156.97 129C151.451 129 147 126.075 147 122.5C147 118.925 151.451 116 156.97 116C162.49 116 167 118.73 167 122.5Z" fill="#FFAA54"/>
<path d="M37 122.5C37 126.14 41.7359 129 47.5312 129C53.3264 129 58 126.075 58 122.5C58 118.925 53.3264 116 47.5312 116C41.7359 116 37 118.73 37 122.5Z" fill="#FFAA54"/>
<path d="M114 163.838C114.015 162.475 114.576 161.143 115.618 159.991C116.661 158.84 118.144 157.915 119.9 157.323C121.334 156.809 122.584 156.076 123.557 155.179L126.861 152.127C127.355 151.657 128.05 151.308 128.845 151.131C129.64 150.953 130.495 150.956 131.288 151.14C132.08 151.323 132.77 151.676 133.257 152.15C133.744 152.624 134.004 153.193 134 153.777V161.487C134 162.126 133.82 162.759 133.47 163.349C133.12 163.94 132.607 164.476 131.961 164.928C131.314 165.38 130.547 165.738 129.702 165.982C128.858 166.227 127.953 166.353 127.038 166.353C126.646 166.347 126.256 166.397 125.891 166.498C125.527 166.599 125.194 166.75 124.914 166.942C124.634 167.134 124.411 167.363 124.26 167.616C124.108 167.869 124.029 168.14 124.029 168.415V188.536C124.029 189.455 123.507 190.336 122.578 190.986C121.649 191.635 120.388 192 119.074 192C117.759 192 116.499 191.635 115.569 190.986C114.64 190.336 114.118 189.455 114.118 188.536L114 163.838Z" fill="#4AEFF7" stroke="#45413C" stroke-width="4.16667" stroke-linecap="round" stroke-linejoin="round"/>
<path d="M161.966 98C162.068 98.8878 161.939 99.7829 161.585 100.628C161.231 101.473 160.661 102.25 159.911 102.909C159.162 103.568 158.249 104.094 157.231 104.454C156.213 104.814 155.113 105 154 105C152.887 105 151.787 104.814 150.769 104.454C149.751 104.094 148.838 103.568 148.089 102.909C147.339 102.25 146.769 101.473 146.415 100.628C146.061 99.7829 145.932 98.8878 146.034 98" stroke="#45413C" stroke-width="4.16667" stroke-linecap="round" stroke-linejoin="round"/>
<path d="M60 98C60 99.5913 59.2098 101.117 57.8033 102.243C56.3968 103.368 54.4891 104 52.5 104C50.5109 104 48.6032 103.368 47.1967 102.243C45.7902 101.117 45 99.5913 45 98" stroke="#45413C" stroke-width="4.16667" stroke-linecap="round" stroke-linejoin="round"/>
<path d="M97.822 29.947L82.0138 26.3342C81.5409 26.2258 81.1046 25.9547 80.7581 25.5539C80.4116 25.1531 80.1699 24.64 80.0625 24.0772C79.9551 23.5145 79.9866 22.9264 80.1532 22.3847C80.3198 21.8431 80.6143 21.3713 81.0007 21.027L95.4761 8.23852L85.2394 5.90462C84.6143 5.70901 84.0697 5.24785 83.7069 4.60686C83.344 3.96588 83.1876 3.18868 83.2667 2.41976C83.3274 2.03528 83.4509 1.66897 83.6299 1.34183C83.8089 1.01468 84.0401 0.733143 84.31 0.513346C84.58 0.293549 84.8834 0.13982 85.203 0.0609765C85.5226 -0.0178669 85.852 -0.0202747 86.1724 0.0538901L102.007 3.66663C102.478 3.77964 102.911 4.05419 103.255 4.45692C103.598 4.85965 103.836 5.37323 103.941 5.93528C104.045 6.49734 104.011 7.08368 103.843 7.62308C103.675 8.16249 103.38 8.63174 102.994 8.97386L88.5183 21.7623L98.755 24.0962C99.402 24.2446 99.9732 24.6951 100.343 25.3487C100.713 26.0022 100.851 26.8052 100.728 27.5811C100.604 28.3569 100.228 29.0421 99.6834 29.4858C99.1385 29.9295 98.4689 30.0954 97.822 29.947Z" fill="#DABFF5" stroke="#45413C" stroke-width="4.16667" stroke-linejoin="round"/>
<path d="M39.3185 76.7262L25.1765 83.8696C24.7687 84.0272 24.3344 84.0422 23.9202 83.9132C23.5061 83.7842 23.1278 83.5159 22.8261 83.1372C22.5243 82.7585 22.3105 82.2838 22.2077 81.764C22.1049 81.2443 22.1169 80.6992 22.2425 80.1874L28.2866 60.1196L19.0738 64.7591C18.5085 65.0038 17.8902 64.9687 17.345 64.6607C16.7997 64.3528 16.3686 63.7953 16.1397 63.1021C15.9355 62.3978 15.9558 61.6218 16.1963 60.9358C16.4368 60.2498 16.879 59.7068 17.4307 59.4199L31.4553 52.2029C31.8713 51.9984 32.3251 51.9472 32.7635 52.0552C33.2019 52.1632 33.6066 52.426 33.9301 52.8126C34.2536 53.1993 34.4825 53.6938 34.5898 54.238C34.6972 54.7823 34.6785 55.3537 34.5361 55.8851L28.4333 75.8056L37.5874 71.2029C37.8783 71.017 38.1968 70.9092 38.5226 70.8865C38.8485 70.8638 39.1746 70.9266 39.48 71.071C39.7855 71.2154 40.0635 71.4381 40.2965 71.7249C40.5295 72.0118 40.7123 72.3564 40.8331 72.7369C40.954 73.1174 41.0103 73.5253 40.9985 73.9346C40.9866 74.344 40.9069 74.7457 40.7643 75.1142C40.6218 75.4827 40.4196 75.8098 40.1707 76.0747C39.9217 76.3395 39.6315 76.5363 39.3185 76.6525V76.7262Z" fill="#DABFF5" stroke="#45413C" stroke-width="4.16667" stroke-linejoin="round"/>
<path d="M61.5786 34.7712L41.2142 44.8166C40.6269 45.0382 40.0015 45.0594 39.4051 44.8779C38.8087 44.6965 38.264 44.3192 37.8295 43.7867C37.395 43.2542 37.0872 42.5866 36.9391 41.8557C36.7911 41.1248 36.8084 40.3583 36.9892 39.6385L45.6927 11.4181L32.4262 17.9425C31.6123 18.2867 30.7219 18.2372 29.9367 17.8042C29.1516 17.3711 28.5308 16.5872 28.2012 15.6124C27.9072 14.622 27.9363 13.5307 28.2827 12.566C28.629 11.6013 29.2658 10.8377 30.0602 10.4343L50.2557 0.285323C50.8547 -0.00222375 51.5082 -0.0742953 52.1395 0.0775874C52.7708 0.22947 53.3535 0.598994 53.8194 1.14274C54.2853 1.6865 54.6148 2.38189 54.7694 3.14723C54.9239 3.91258 54.8971 4.71609 54.6919 5.46337L45.9039 33.4766L59.0859 27.0041C59.5047 26.7426 59.9634 26.5911 60.4326 26.5592C60.9019 26.5272 61.3714 26.6156 61.8112 26.8186C62.2511 27.0216 62.6515 27.3348 62.987 27.7382C63.3225 28.1415 63.5857 28.6262 63.7597 29.1613C63.9337 29.6963 64.0148 30.27 63.9978 30.8456C63.9807 31.4212 63.8659 31.9861 63.6606 32.5043C63.4554 33.0225 63.1642 33.4825 62.8057 33.855C62.4473 34.2275 62.0293 34.5042 61.5786 34.6676V34.7712Z" fill="#DABFF5" stroke="#45413C" stroke-width="4.16667" stroke-linejoin="round"/>
</g>
<defs>
<clipPath id="clip0_379_18">
<rect width="200" height="200" fill="white"/>
</clipPath>
</defs>
</svg>
