<svg width="200" height="200" viewBox="0 0 200 200" fill="none" xmlns="http://www.w3.org/2000/svg">
<path opacity="0.15" d="M33.3333 187.5C33.3333 189.158 40.357 190.747 52.8595 191.919C65.3619 193.092 82.3188 193.75 99.9999 193.75C117.681 193.75 134.638 193.092 147.14 191.919C159.643 190.747 166.667 189.158 166.667 187.5C166.667 185.842 159.643 184.253 147.14 183.081C134.638 181.908 117.681 181.25 99.9999 181.25C82.3188 181.25 65.3619 181.908 52.8595 183.081C40.357 184.253 33.3333 185.842 33.3333 187.5Z" fill="#45413C"/>
<path d="M16.6667 89.5833C16.6667 100.527 18.8222 111.363 23.0101 121.474C27.198 131.584 33.3363 140.771 41.0745 148.509C48.8127 156.247 57.9993 162.385 68.1098 166.573C78.2203 170.761 89.0566 172.917 100 172.917C110.944 172.917 121.78 170.761 131.89 166.573C142.001 162.385 151.187 156.247 158.926 148.509C166.664 140.771 172.802 131.584 176.99 121.474C181.178 111.363 183.333 100.527 183.333 89.5833C183.333 78.6398 181.178 67.8035 176.99 57.693C172.802 47.5826 166.664 38.396 158.926 30.6578C151.187 22.9196 142.001 16.7813 131.89 12.5934C121.78 8.40548 110.944 6.25 100 6.25C89.0566 6.25 78.2203 8.40548 68.1098 12.5934C57.9993 16.7813 48.8127 22.9196 41.0745 30.6578C33.3363 38.396 27.198 47.5826 23.0101 57.693C18.8222 67.8035 16.6667 78.6398 16.6667 89.5833Z" fill="#FFE500"/>
<path d="M100 6.25C83.5183 6.25 67.4067 11.1374 53.7026 20.2942C39.9985 29.451 29.3175 42.4659 23.0102 57.693C16.7029 72.9202 15.0526 89.6758 18.268 105.841C21.4834 122.006 29.4202 136.855 41.0746 148.509C52.7289 160.163 67.5775 168.1 83.7426 171.315C99.9077 174.531 116.663 172.881 131.89 166.573C147.118 160.266 160.132 149.585 169.289 135.881C178.446 122.177 183.333 106.065 183.333 89.5833C183.333 67.482 174.554 46.2858 158.926 30.6578C143.298 15.0297 122.101 6.25 100 6.25ZM100 160.417C84.9605 160.417 70.2586 155.957 57.7536 147.601C45.2486 139.246 35.5022 127.37 29.7468 113.475C23.9914 99.5801 22.4855 84.2906 25.4196 69.54C28.3537 54.7894 35.5959 41.24 46.2305 30.6054C56.8652 19.9708 70.4145 12.7285 85.1651 9.79445C99.9158 6.86037 115.205 8.36625 129.1 14.1217C142.995 19.8771 154.871 29.6235 163.226 42.1285C171.582 54.6335 176.042 69.3354 176.042 84.375C176.042 104.543 168.03 123.884 153.77 138.145C139.509 152.405 120.168 160.417 100 160.417Z" fill="#EBCB00"/>
<path d="M75 22.917C75 24.5746 77.6339 26.1643 82.3223 27.3364C87.0107 28.5085 93.3696 29.167 100 29.167C106.63 29.167 112.989 28.5085 117.678 27.3364C122.366 26.1643 125 24.5746 125 22.917C125 21.2594 122.366 19.6697 117.678 18.4976C112.989 17.3255 106.63 16.667 100 16.667C93.3696 16.667 87.0107 17.3255 82.3223 18.4976C77.6339 19.6697 75 21.2594 75 22.917Z" fill="#FFF48C"/>
<path d="M16.6667 89.5833C16.6667 100.527 18.8222 111.363 23.0101 121.474C27.198 131.584 33.3363 140.771 41.0745 148.509C48.8127 156.247 57.9993 162.385 68.1098 166.573C78.2203 170.761 89.0566 172.917 100 172.917C110.944 172.917 121.78 170.761 131.89 166.573C142.001 162.385 151.187 156.247 158.926 148.509C166.664 140.771 172.802 131.584 176.99 121.474C181.178 111.363 183.333 100.527 183.333 89.5833C183.333 78.6398 181.178 67.8035 176.99 57.693C172.802 47.5826 166.664 38.396 158.926 30.6578C151.187 22.9196 142.001 16.7813 131.89 12.5934C121.78 8.40548 110.944 6.25 100 6.25C89.0566 6.25 78.2203 8.40548 68.1098 12.5934C57.9993 16.7813 48.8127 22.9196 41.0745 30.6578C33.3363 38.396 27.198 47.5826 23.0101 57.693C18.8222 67.8035 16.6667 78.6398 16.6667 89.5833Z" stroke="#45413C" stroke-width="4.16667" stroke-linecap="round" stroke-linejoin="round"/>
<path d="M160.417 110.417C160.417 113.875 155.75 116.667 150 116.667C144.25 116.667 139.583 113.875 139.583 110.417C139.583 106.959 144.25 104.167 150 104.167C155.75 104.167 160.417 106.959 160.417 110.417Z" fill="#FFAA54"/>
<path d="M39.5833 110.417C39.5833 113.875 44.2499 116.667 49.9999 116.667C55.7499 116.667 60.4166 113.875 60.4166 110.417C60.4166 106.959 55.7499 104.167 49.9999 104.167C44.2499 104.167 39.5833 106.959 39.5833 110.417Z" fill="#FFAA54"/>
<path d="M48.9167 75L62.5001 81.7083C63.1826 82.058 63.7554 82.5892 64.1553 83.2435C64.5553 83.8978 64.7669 84.6498 64.7669 85.4167C64.7669 86.1835 64.5553 86.9355 64.1553 87.5898C63.7554 88.2441 63.1826 88.7753 62.5001 89.125L48.9167 95.8333" stroke="#45413C" stroke-width="4.16667" stroke-linecap="round" stroke-linejoin="round"/>
<path d="M54.1667 66.6667C59.0572 65.8784 63.7947 64.3321 68.2084 62.0833C72.639 59.8778 76.6898 56.9804 80.2084 53.5" stroke="#45413C" stroke-width="4.16667" stroke-linecap="round" stroke-linejoin="round"/>
<path d="M151.083 75L137.708 81.7083C137.026 82.058 136.453 82.5892 136.053 83.2435C135.653 83.8978 135.441 84.6498 135.441 85.4167C135.441 86.1835 135.653 86.9355 136.053 87.5898C136.453 88.2441 137.026 88.7753 137.708 89.125L151.083 95.8333" stroke="#45413C" stroke-width="4.16667" stroke-linecap="round" stroke-linejoin="round"/>
<path d="M145.833 66.6667C140.943 65.8784 136.205 64.3321 131.792 62.0833C127.361 59.8778 123.31 56.9804 119.792 53.5" stroke="#45413C" stroke-width="4.16667" stroke-linecap="round" stroke-linejoin="round"/>
<path d="M135.417 135.416L127.958 127.958C127.571 127.568 127.11 127.258 126.602 127.046C126.095 126.834 125.55 126.726 125 126.726C124.45 126.726 123.905 126.834 123.398 127.046C122.89 127.258 122.429 127.568 122.042 127.958L115.458 134.541C115.071 134.932 114.61 135.242 114.102 135.453C113.595 135.665 113.05 135.774 112.5 135.774C111.95 135.774 111.405 135.665 110.898 135.453C110.39 135.242 109.929 134.932 109.542 134.541L102.958 127.958C102.571 127.568 102.11 127.258 101.602 127.046C101.095 126.834 100.55 126.726 99.9999 126.726C99.4499 126.726 98.9053 126.834 98.3975 127.046C97.8898 127.258 97.4289 127.568 97.0416 127.958L90.4583 134.541C90.0709 134.932 89.6101 135.242 89.1023 135.453C88.5946 135.665 88.05 135.774 87.4999 135.774C86.9499 135.774 86.4053 135.665 85.8975 135.453C85.3898 135.242 84.9289 134.932 84.5416 134.541L77.9583 127.958C77.5709 127.568 77.1101 127.258 76.6023 127.046C76.0946 126.834 75.55 126.726 74.9999 126.726C74.4499 126.726 73.9053 126.834 73.3975 127.046C72.8898 127.258 72.4289 127.568 72.0416 127.958L64.5833 135.416" stroke="#45413C" stroke-width="4.16667" stroke-linecap="round" stroke-linejoin="round"/>
</svg>
