<svg width="55" height="45" viewBox="0 0 76 58" fill="none" xmlns="http://www.w3.org/2000/svg">
<path fill-rule="evenodd" clip-rule="evenodd" d="M3.98367 23.3496C3.00416 23.9476 2.1911 24.7856 1.62308 25.7825C1.05507 26.7794 0.751336 27.9015 0.741244 29.0402C0.731153 30.1789 1.01505 31.2957 1.56548 32.2827C2.11591 33.2697 2.91425 34.0934 3.8833 34.6742L3.8864 34.6773L39.7266 56.1025L39.7359 56.1055C40.7371 56.6985 41.8827 57.0119 43.0553 57.0137C44.2279 57.0155 45.3854 56.7056 46.4094 56.1157C47.4334 55.5259 48.287 54.6772 48.8829 53.6567C49.4788 52.6362 49.7956 51.4804 49.8008 50.3077L49.895 40.0406L72.644 39.839C73.2268 39.8346 73.7883 39.5997 74.2058 39.1857C74.6232 38.7717 74.8628 38.2122 74.8722 37.6294L75.1618 19.0347C75.1664 18.7434 75.1133 18.4552 75.0055 18.1866C74.8978 17.918 74.7375 17.6743 74.534 17.4696C74.3305 17.2649 74.0878 17.1033 73.8198 16.994C73.5518 16.8848 73.2639 16.83 72.9727 16.833L50.2236 17.0408L50.3146 6.77067L50.3147 6.75195C50.3175 5.56984 50.0036 4.41418 49.4056 3.4051C48.8075 2.39603 47.9472 1.57039 46.9141 1.01403C45.8809 0.457663 44.7127 0.190884 43.5308 0.24143C42.349 0.291975 41.1966 0.657999 40.1935 1.30144L3.9899 23.3495L3.98367 23.3496Z" fill="white"/>
</svg>
