<svg width="48" height="45" viewBox="0 0 75 72" fill="none" xmlns="http://www.w3.org/2000/svg">
<path fill-rule="evenodd" clip-rule="evenodd" d="M41.2217 1.62161C40.2171 0.583295 38.8547 0 37.4342 0C36.0136 0 34.6513 0.583295 33.6467 1.62161L1.50381 34.8529C0.527967 35.8975 -0.0120033 37.2966 0.000202514 38.7488C0.0124083 40.2009 0.575813 41.5901 1.56907 42.617C2.56233 43.6439 3.90597 44.2263 5.31059 44.239C6.71522 44.2516 8.06844 43.6933 9.07881 42.6844L10.6485 41.0616V66.4614C10.6485 67.9304 11.2129 69.3391 12.2175 70.3778C13.2222 71.4165 14.5848 72 16.0056 72H58.8627C60.2835 72 61.6462 71.4165 62.6508 70.3778C63.6555 69.3391 64.2199 67.9304 64.2199 66.4614V41.0616L65.7895 42.6844C66.2837 43.2134 66.8748 43.6354 67.5284 43.9256C68.182 44.2159 68.885 44.3687 69.5963 44.3751C70.3076 44.3815 71.013 44.2413 71.6714 43.9629C72.3298 43.6844 72.9279 43.2731 73.4309 42.7531C73.9339 42.2331 74.3317 41.6147 74.6011 40.934C74.8704 40.2533 75.006 39.524 74.9998 38.7886C74.9936 38.0532 74.8458 37.3264 74.5651 36.6507C74.2843 35.975 73.8762 35.3638 73.3645 34.8529L41.2217 1.62161Z" fill="white"/>
</svg>
