<svg width="24" height="24" viewBox="0 0 24 24" fill="none" xmlns="http://www.w3.org/2000/svg">
<path fill-rule="evenodd" clip-rule="evenodd" d="M0 3C0 1.344 1.344 0 3 0H21C22.656 0 24 1.34229 24 3V8.58343C23.9998 11.9953 22.9059 15.3174 20.8788 18.0618C18.8517 20.8063 15.9982 22.8286 12.7371 23.832C12.257 23.9811 11.743 23.9811 11.2629 23.832C8.00181 22.8286 5.1483 20.8063 3.12119 18.0618C1.09409 15.3174 0.000165986 11.9953 0 8.58343L0 3ZM12 11.1429C13.023 11.1429 14.0041 10.7365 14.7274 10.0131C15.4508 9.28977 15.8571 8.30869 15.8571 7.28571C15.8571 6.26274 15.4508 5.28166 14.7274 4.5583C14.0041 3.83495 13.023 3.42857 12 3.42857C10.977 3.42857 9.99594 3.83495 9.27259 4.5583C8.54923 5.28166 8.14286 6.26274 8.14286 7.28571C8.14286 8.30869 8.54923 9.28977 9.27259 10.0131C9.99594 10.7365 10.977 11.1429 12 11.1429ZM19.1177 16.1023C18.2336 15.0824 17.1404 14.2647 15.9122 13.7047C14.684 13.1448 13.3498 12.8557 12 12.8571C10.6502 12.8557 9.31595 13.1448 8.0878 13.7047C6.85965 14.2647 5.76639 15.0824 4.88229 16.1023C6.58775 18.6153 9.09809 20.4726 12 21.3686C14.9019 20.4726 17.4122 18.6153 19.1177 16.1023Z" fill="black"/>
</svg>
